%TF.GenerationSoftware,KiCad,Pcbnew,7.0.8*%
%TF.CreationDate,2023-11-12T19:05:12-08:00*%
%TF.ProjectId,Synthwave v2,53796e74-6877-4617-9665-2076322e6b69,rev?*%
%TF.SameCoordinates,Original*%
%TF.FileFunction,Legend,Top*%
%TF.FilePolarity,Positive*%
%FSLAX46Y46*%
G04 Gerber Fmt 4.6, Leading zero omitted, Abs format (unit mm)*
G04 Created by KiCad (PCBNEW 7.0.8) date 2023-11-12 19:05:12*
%MOMM*%
%LPD*%
G01*
G04 APERTURE LIST*
%ADD10C,0.150000*%
%ADD11C,0.100000*%
%ADD12C,0.120000*%
G04 APERTURE END LIST*
D10*
X32281905Y-23934819D02*
X32281905Y-22934819D01*
X32281905Y-22934819D02*
X32520000Y-22934819D01*
X32520000Y-22934819D02*
X32662857Y-22982438D01*
X32662857Y-22982438D02*
X32758095Y-23077676D01*
X32758095Y-23077676D02*
X32805714Y-23172914D01*
X32805714Y-23172914D02*
X32853333Y-23363390D01*
X32853333Y-23363390D02*
X32853333Y-23506247D01*
X32853333Y-23506247D02*
X32805714Y-23696723D01*
X32805714Y-23696723D02*
X32758095Y-23791961D01*
X32758095Y-23791961D02*
X32662857Y-23887200D01*
X32662857Y-23887200D02*
X32520000Y-23934819D01*
X32520000Y-23934819D02*
X32281905Y-23934819D01*
X33805714Y-23934819D02*
X33234286Y-23934819D01*
X33520000Y-23934819D02*
X33520000Y-22934819D01*
X33520000Y-22934819D02*
X33424762Y-23077676D01*
X33424762Y-23077676D02*
X33329524Y-23172914D01*
X33329524Y-23172914D02*
X33234286Y-23220533D01*
X27678095Y-24104819D02*
X27678095Y-23104819D01*
X28249523Y-24104819D02*
X27820952Y-23533390D01*
X28249523Y-23104819D02*
X27678095Y-23676247D01*
X72898095Y-17052438D02*
X72802857Y-17004819D01*
X72802857Y-17004819D02*
X72660000Y-17004819D01*
X72660000Y-17004819D02*
X72517143Y-17052438D01*
X72517143Y-17052438D02*
X72421905Y-17147676D01*
X72421905Y-17147676D02*
X72374286Y-17242914D01*
X72374286Y-17242914D02*
X72326667Y-17433390D01*
X72326667Y-17433390D02*
X72326667Y-17576247D01*
X72326667Y-17576247D02*
X72374286Y-17766723D01*
X72374286Y-17766723D02*
X72421905Y-17861961D01*
X72421905Y-17861961D02*
X72517143Y-17957200D01*
X72517143Y-17957200D02*
X72660000Y-18004819D01*
X72660000Y-18004819D02*
X72755238Y-18004819D01*
X72755238Y-18004819D02*
X72898095Y-17957200D01*
X72898095Y-17957200D02*
X72945714Y-17909580D01*
X72945714Y-17909580D02*
X72945714Y-17576247D01*
X72945714Y-17576247D02*
X72755238Y-17576247D01*
X73374286Y-18004819D02*
X73374286Y-17004819D01*
X73374286Y-17004819D02*
X73945714Y-18004819D01*
X73945714Y-18004819D02*
X73945714Y-17004819D01*
X74421905Y-18004819D02*
X74421905Y-17004819D01*
X74421905Y-17004819D02*
X74660000Y-17004819D01*
X74660000Y-17004819D02*
X74802857Y-17052438D01*
X74802857Y-17052438D02*
X74898095Y-17147676D01*
X74898095Y-17147676D02*
X74945714Y-17242914D01*
X74945714Y-17242914D02*
X74993333Y-17433390D01*
X74993333Y-17433390D02*
X74993333Y-17576247D01*
X74993333Y-17576247D02*
X74945714Y-17766723D01*
X74945714Y-17766723D02*
X74898095Y-17861961D01*
X74898095Y-17861961D02*
X74802857Y-17957200D01*
X74802857Y-17957200D02*
X74660000Y-18004819D01*
X74660000Y-18004819D02*
X74421905Y-18004819D01*
X32924761Y-16600057D02*
X32829523Y-16552438D01*
X32829523Y-16552438D02*
X32734285Y-16457200D01*
X32734285Y-16457200D02*
X32591428Y-16314342D01*
X32591428Y-16314342D02*
X32496190Y-16266723D01*
X32496190Y-16266723D02*
X32400952Y-16266723D01*
X32448571Y-16504819D02*
X32353333Y-16457200D01*
X32353333Y-16457200D02*
X32258095Y-16361961D01*
X32258095Y-16361961D02*
X32210476Y-16171485D01*
X32210476Y-16171485D02*
X32210476Y-15838152D01*
X32210476Y-15838152D02*
X32258095Y-15647676D01*
X32258095Y-15647676D02*
X32353333Y-15552438D01*
X32353333Y-15552438D02*
X32448571Y-15504819D01*
X32448571Y-15504819D02*
X32639047Y-15504819D01*
X32639047Y-15504819D02*
X32734285Y-15552438D01*
X32734285Y-15552438D02*
X32829523Y-15647676D01*
X32829523Y-15647676D02*
X32877142Y-15838152D01*
X32877142Y-15838152D02*
X32877142Y-16171485D01*
X32877142Y-16171485D02*
X32829523Y-16361961D01*
X32829523Y-16361961D02*
X32734285Y-16457200D01*
X32734285Y-16457200D02*
X32639047Y-16504819D01*
X32639047Y-16504819D02*
X32448571Y-16504819D01*
X33829523Y-16504819D02*
X33258095Y-16504819D01*
X33543809Y-16504819D02*
X33543809Y-15504819D01*
X33543809Y-15504819D02*
X33448571Y-15647676D01*
X33448571Y-15647676D02*
X33353333Y-15742914D01*
X33353333Y-15742914D02*
X33258095Y-15790533D01*
X17272381Y-41399819D02*
X17272381Y-40399819D01*
X17272381Y-40399819D02*
X17510476Y-40399819D01*
X17510476Y-40399819D02*
X17653333Y-40447438D01*
X17653333Y-40447438D02*
X17748571Y-40542676D01*
X17748571Y-40542676D02*
X17796190Y-40637914D01*
X17796190Y-40637914D02*
X17843809Y-40828390D01*
X17843809Y-40828390D02*
X17843809Y-40971247D01*
X17843809Y-40971247D02*
X17796190Y-41161723D01*
X17796190Y-41161723D02*
X17748571Y-41256961D01*
X17748571Y-41256961D02*
X17653333Y-41352200D01*
X17653333Y-41352200D02*
X17510476Y-41399819D01*
X17510476Y-41399819D02*
X17272381Y-41399819D01*
X18843809Y-41304580D02*
X18796190Y-41352200D01*
X18796190Y-41352200D02*
X18653333Y-41399819D01*
X18653333Y-41399819D02*
X18558095Y-41399819D01*
X18558095Y-41399819D02*
X18415238Y-41352200D01*
X18415238Y-41352200D02*
X18320000Y-41256961D01*
X18320000Y-41256961D02*
X18272381Y-41161723D01*
X18272381Y-41161723D02*
X18224762Y-40971247D01*
X18224762Y-40971247D02*
X18224762Y-40828390D01*
X18224762Y-40828390D02*
X18272381Y-40637914D01*
X18272381Y-40637914D02*
X18320000Y-40542676D01*
X18320000Y-40542676D02*
X18415238Y-40447438D01*
X18415238Y-40447438D02*
X18558095Y-40399819D01*
X18558095Y-40399819D02*
X18653333Y-40399819D01*
X18653333Y-40399819D02*
X18796190Y-40447438D01*
X18796190Y-40447438D02*
X18843809Y-40495057D01*
X19034286Y-41495057D02*
X19796190Y-41495057D01*
X20224762Y-40399819D02*
X20415238Y-40399819D01*
X20415238Y-40399819D02*
X20510476Y-40447438D01*
X20510476Y-40447438D02*
X20605714Y-40542676D01*
X20605714Y-40542676D02*
X20653333Y-40733152D01*
X20653333Y-40733152D02*
X20653333Y-41066485D01*
X20653333Y-41066485D02*
X20605714Y-41256961D01*
X20605714Y-41256961D02*
X20510476Y-41352200D01*
X20510476Y-41352200D02*
X20415238Y-41399819D01*
X20415238Y-41399819D02*
X20224762Y-41399819D01*
X20224762Y-41399819D02*
X20129524Y-41352200D01*
X20129524Y-41352200D02*
X20034286Y-41256961D01*
X20034286Y-41256961D02*
X19986667Y-41066485D01*
X19986667Y-41066485D02*
X19986667Y-40733152D01*
X19986667Y-40733152D02*
X20034286Y-40542676D01*
X20034286Y-40542676D02*
X20129524Y-40447438D01*
X20129524Y-40447438D02*
X20224762Y-40399819D01*
X21081905Y-40399819D02*
X21081905Y-41209342D01*
X21081905Y-41209342D02*
X21129524Y-41304580D01*
X21129524Y-41304580D02*
X21177143Y-41352200D01*
X21177143Y-41352200D02*
X21272381Y-41399819D01*
X21272381Y-41399819D02*
X21462857Y-41399819D01*
X21462857Y-41399819D02*
X21558095Y-41352200D01*
X21558095Y-41352200D02*
X21605714Y-41304580D01*
X21605714Y-41304580D02*
X21653333Y-41209342D01*
X21653333Y-41209342D02*
X21653333Y-40399819D01*
X21986667Y-40399819D02*
X22558095Y-40399819D01*
X22272381Y-41399819D02*
X22272381Y-40399819D01*
X22843810Y-40495057D02*
X22891429Y-40447438D01*
X22891429Y-40447438D02*
X22986667Y-40399819D01*
X22986667Y-40399819D02*
X23224762Y-40399819D01*
X23224762Y-40399819D02*
X23320000Y-40447438D01*
X23320000Y-40447438D02*
X23367619Y-40495057D01*
X23367619Y-40495057D02*
X23415238Y-40590295D01*
X23415238Y-40590295D02*
X23415238Y-40685533D01*
X23415238Y-40685533D02*
X23367619Y-40828390D01*
X23367619Y-40828390D02*
X22796191Y-41399819D01*
X22796191Y-41399819D02*
X23415238Y-41399819D01*
X50633333Y-17229819D02*
X50300000Y-16753628D01*
X50061905Y-17229819D02*
X50061905Y-16229819D01*
X50061905Y-16229819D02*
X50442857Y-16229819D01*
X50442857Y-16229819D02*
X50538095Y-16277438D01*
X50538095Y-16277438D02*
X50585714Y-16325057D01*
X50585714Y-16325057D02*
X50633333Y-16420295D01*
X50633333Y-16420295D02*
X50633333Y-16563152D01*
X50633333Y-16563152D02*
X50585714Y-16658390D01*
X50585714Y-16658390D02*
X50538095Y-16706009D01*
X50538095Y-16706009D02*
X50442857Y-16753628D01*
X50442857Y-16753628D02*
X50061905Y-16753628D01*
X51585714Y-17229819D02*
X51014286Y-17229819D01*
X51300000Y-17229819D02*
X51300000Y-16229819D01*
X51300000Y-16229819D02*
X51204762Y-16372676D01*
X51204762Y-16372676D02*
X51109524Y-16467914D01*
X51109524Y-16467914D02*
X51014286Y-16515533D01*
X32281905Y-39174819D02*
X32281905Y-38174819D01*
X32281905Y-38174819D02*
X32520000Y-38174819D01*
X32520000Y-38174819D02*
X32662857Y-38222438D01*
X32662857Y-38222438D02*
X32758095Y-38317676D01*
X32758095Y-38317676D02*
X32805714Y-38412914D01*
X32805714Y-38412914D02*
X32853333Y-38603390D01*
X32853333Y-38603390D02*
X32853333Y-38746247D01*
X32853333Y-38746247D02*
X32805714Y-38936723D01*
X32805714Y-38936723D02*
X32758095Y-39031961D01*
X32758095Y-39031961D02*
X32662857Y-39127200D01*
X32662857Y-39127200D02*
X32520000Y-39174819D01*
X32520000Y-39174819D02*
X32281905Y-39174819D01*
X33234286Y-38270057D02*
X33281905Y-38222438D01*
X33281905Y-38222438D02*
X33377143Y-38174819D01*
X33377143Y-38174819D02*
X33615238Y-38174819D01*
X33615238Y-38174819D02*
X33710476Y-38222438D01*
X33710476Y-38222438D02*
X33758095Y-38270057D01*
X33758095Y-38270057D02*
X33805714Y-38365295D01*
X33805714Y-38365295D02*
X33805714Y-38460533D01*
X33805714Y-38460533D02*
X33758095Y-38603390D01*
X33758095Y-38603390D02*
X33186667Y-39174819D01*
X33186667Y-39174819D02*
X33805714Y-39174819D01*
X27678095Y-39344819D02*
X27678095Y-38344819D01*
X28249523Y-39344819D02*
X27820952Y-38773390D01*
X28249523Y-38344819D02*
X27678095Y-38916247D01*
X50157142Y-37549819D02*
X49823809Y-37073628D01*
X49585714Y-37549819D02*
X49585714Y-36549819D01*
X49585714Y-36549819D02*
X49966666Y-36549819D01*
X49966666Y-36549819D02*
X50061904Y-36597438D01*
X50061904Y-36597438D02*
X50109523Y-36645057D01*
X50109523Y-36645057D02*
X50157142Y-36740295D01*
X50157142Y-36740295D02*
X50157142Y-36883152D01*
X50157142Y-36883152D02*
X50109523Y-36978390D01*
X50109523Y-36978390D02*
X50061904Y-37026009D01*
X50061904Y-37026009D02*
X49966666Y-37073628D01*
X49966666Y-37073628D02*
X49585714Y-37073628D01*
X51109523Y-37549819D02*
X50538095Y-37549819D01*
X50823809Y-37549819D02*
X50823809Y-36549819D01*
X50823809Y-36549819D02*
X50728571Y-36692676D01*
X50728571Y-36692676D02*
X50633333Y-36787914D01*
X50633333Y-36787914D02*
X50538095Y-36835533D01*
X51490476Y-36645057D02*
X51538095Y-36597438D01*
X51538095Y-36597438D02*
X51633333Y-36549819D01*
X51633333Y-36549819D02*
X51871428Y-36549819D01*
X51871428Y-36549819D02*
X51966666Y-36597438D01*
X51966666Y-36597438D02*
X52014285Y-36645057D01*
X52014285Y-36645057D02*
X52061904Y-36740295D01*
X52061904Y-36740295D02*
X52061904Y-36835533D01*
X52061904Y-36835533D02*
X52014285Y-36978390D01*
X52014285Y-36978390D02*
X51442857Y-37549819D01*
X51442857Y-37549819D02*
X52061904Y-37549819D01*
X17272381Y-117599819D02*
X17272381Y-116599819D01*
X17272381Y-116599819D02*
X17510476Y-116599819D01*
X17510476Y-116599819D02*
X17653333Y-116647438D01*
X17653333Y-116647438D02*
X17748571Y-116742676D01*
X17748571Y-116742676D02*
X17796190Y-116837914D01*
X17796190Y-116837914D02*
X17843809Y-117028390D01*
X17843809Y-117028390D02*
X17843809Y-117171247D01*
X17843809Y-117171247D02*
X17796190Y-117361723D01*
X17796190Y-117361723D02*
X17748571Y-117456961D01*
X17748571Y-117456961D02*
X17653333Y-117552200D01*
X17653333Y-117552200D02*
X17510476Y-117599819D01*
X17510476Y-117599819D02*
X17272381Y-117599819D01*
X18843809Y-117504580D02*
X18796190Y-117552200D01*
X18796190Y-117552200D02*
X18653333Y-117599819D01*
X18653333Y-117599819D02*
X18558095Y-117599819D01*
X18558095Y-117599819D02*
X18415238Y-117552200D01*
X18415238Y-117552200D02*
X18320000Y-117456961D01*
X18320000Y-117456961D02*
X18272381Y-117361723D01*
X18272381Y-117361723D02*
X18224762Y-117171247D01*
X18224762Y-117171247D02*
X18224762Y-117028390D01*
X18224762Y-117028390D02*
X18272381Y-116837914D01*
X18272381Y-116837914D02*
X18320000Y-116742676D01*
X18320000Y-116742676D02*
X18415238Y-116647438D01*
X18415238Y-116647438D02*
X18558095Y-116599819D01*
X18558095Y-116599819D02*
X18653333Y-116599819D01*
X18653333Y-116599819D02*
X18796190Y-116647438D01*
X18796190Y-116647438D02*
X18843809Y-116695057D01*
X19034286Y-117695057D02*
X19796190Y-117695057D01*
X20224762Y-116599819D02*
X20415238Y-116599819D01*
X20415238Y-116599819D02*
X20510476Y-116647438D01*
X20510476Y-116647438D02*
X20605714Y-116742676D01*
X20605714Y-116742676D02*
X20653333Y-116933152D01*
X20653333Y-116933152D02*
X20653333Y-117266485D01*
X20653333Y-117266485D02*
X20605714Y-117456961D01*
X20605714Y-117456961D02*
X20510476Y-117552200D01*
X20510476Y-117552200D02*
X20415238Y-117599819D01*
X20415238Y-117599819D02*
X20224762Y-117599819D01*
X20224762Y-117599819D02*
X20129524Y-117552200D01*
X20129524Y-117552200D02*
X20034286Y-117456961D01*
X20034286Y-117456961D02*
X19986667Y-117266485D01*
X19986667Y-117266485D02*
X19986667Y-116933152D01*
X19986667Y-116933152D02*
X20034286Y-116742676D01*
X20034286Y-116742676D02*
X20129524Y-116647438D01*
X20129524Y-116647438D02*
X20224762Y-116599819D01*
X21081905Y-116599819D02*
X21081905Y-117409342D01*
X21081905Y-117409342D02*
X21129524Y-117504580D01*
X21129524Y-117504580D02*
X21177143Y-117552200D01*
X21177143Y-117552200D02*
X21272381Y-117599819D01*
X21272381Y-117599819D02*
X21462857Y-117599819D01*
X21462857Y-117599819D02*
X21558095Y-117552200D01*
X21558095Y-117552200D02*
X21605714Y-117504580D01*
X21605714Y-117504580D02*
X21653333Y-117409342D01*
X21653333Y-117409342D02*
X21653333Y-116599819D01*
X21986667Y-116599819D02*
X22558095Y-116599819D01*
X22272381Y-117599819D02*
X22272381Y-116599819D01*
X22796191Y-116599819D02*
X23462857Y-116599819D01*
X23462857Y-116599819D02*
X23034286Y-117599819D01*
X50157142Y-83269819D02*
X49823809Y-82793628D01*
X49585714Y-83269819D02*
X49585714Y-82269819D01*
X49585714Y-82269819D02*
X49966666Y-82269819D01*
X49966666Y-82269819D02*
X50061904Y-82317438D01*
X50061904Y-82317438D02*
X50109523Y-82365057D01*
X50109523Y-82365057D02*
X50157142Y-82460295D01*
X50157142Y-82460295D02*
X50157142Y-82603152D01*
X50157142Y-82603152D02*
X50109523Y-82698390D01*
X50109523Y-82698390D02*
X50061904Y-82746009D01*
X50061904Y-82746009D02*
X49966666Y-82793628D01*
X49966666Y-82793628D02*
X49585714Y-82793628D01*
X51109523Y-83269819D02*
X50538095Y-83269819D01*
X50823809Y-83269819D02*
X50823809Y-82269819D01*
X50823809Y-82269819D02*
X50728571Y-82412676D01*
X50728571Y-82412676D02*
X50633333Y-82507914D01*
X50633333Y-82507914D02*
X50538095Y-82555533D01*
X52014285Y-82269819D02*
X51538095Y-82269819D01*
X51538095Y-82269819D02*
X51490476Y-82746009D01*
X51490476Y-82746009D02*
X51538095Y-82698390D01*
X51538095Y-82698390D02*
X51633333Y-82650771D01*
X51633333Y-82650771D02*
X51871428Y-82650771D01*
X51871428Y-82650771D02*
X51966666Y-82698390D01*
X51966666Y-82698390D02*
X52014285Y-82746009D01*
X52014285Y-82746009D02*
X52061904Y-82841247D01*
X52061904Y-82841247D02*
X52061904Y-83079342D01*
X52061904Y-83079342D02*
X52014285Y-83174580D01*
X52014285Y-83174580D02*
X51966666Y-83222200D01*
X51966666Y-83222200D02*
X51871428Y-83269819D01*
X51871428Y-83269819D02*
X51633333Y-83269819D01*
X51633333Y-83269819D02*
X51538095Y-83222200D01*
X51538095Y-83222200D02*
X51490476Y-83174580D01*
D11*
X76851905Y-73047419D02*
X76851905Y-72047419D01*
X76851905Y-72047419D02*
X77232857Y-72047419D01*
X77232857Y-72047419D02*
X77328095Y-72095038D01*
X77328095Y-72095038D02*
X77375714Y-72142657D01*
X77375714Y-72142657D02*
X77423333Y-72237895D01*
X77423333Y-72237895D02*
X77423333Y-72380752D01*
X77423333Y-72380752D02*
X77375714Y-72475990D01*
X77375714Y-72475990D02*
X77328095Y-72523609D01*
X77328095Y-72523609D02*
X77232857Y-72571228D01*
X77232857Y-72571228D02*
X76851905Y-72571228D01*
X77804286Y-72142657D02*
X77851905Y-72095038D01*
X77851905Y-72095038D02*
X77947143Y-72047419D01*
X77947143Y-72047419D02*
X78185238Y-72047419D01*
X78185238Y-72047419D02*
X78280476Y-72095038D01*
X78280476Y-72095038D02*
X78328095Y-72142657D01*
X78328095Y-72142657D02*
X78375714Y-72237895D01*
X78375714Y-72237895D02*
X78375714Y-72333133D01*
X78375714Y-72333133D02*
X78328095Y-72475990D01*
X78328095Y-72475990D02*
X77756667Y-73047419D01*
X77756667Y-73047419D02*
X78375714Y-73047419D01*
D10*
X50157142Y-52789819D02*
X49823809Y-52313628D01*
X49585714Y-52789819D02*
X49585714Y-51789819D01*
X49585714Y-51789819D02*
X49966666Y-51789819D01*
X49966666Y-51789819D02*
X50061904Y-51837438D01*
X50061904Y-51837438D02*
X50109523Y-51885057D01*
X50109523Y-51885057D02*
X50157142Y-51980295D01*
X50157142Y-51980295D02*
X50157142Y-52123152D01*
X50157142Y-52123152D02*
X50109523Y-52218390D01*
X50109523Y-52218390D02*
X50061904Y-52266009D01*
X50061904Y-52266009D02*
X49966666Y-52313628D01*
X49966666Y-52313628D02*
X49585714Y-52313628D01*
X51109523Y-52789819D02*
X50538095Y-52789819D01*
X50823809Y-52789819D02*
X50823809Y-51789819D01*
X50823809Y-51789819D02*
X50728571Y-51932676D01*
X50728571Y-51932676D02*
X50633333Y-52027914D01*
X50633333Y-52027914D02*
X50538095Y-52075533D01*
X51442857Y-51789819D02*
X52061904Y-51789819D01*
X52061904Y-51789819D02*
X51728571Y-52170771D01*
X51728571Y-52170771D02*
X51871428Y-52170771D01*
X51871428Y-52170771D02*
X51966666Y-52218390D01*
X51966666Y-52218390D02*
X52014285Y-52266009D01*
X52014285Y-52266009D02*
X52061904Y-52361247D01*
X52061904Y-52361247D02*
X52061904Y-52599342D01*
X52061904Y-52599342D02*
X52014285Y-52694580D01*
X52014285Y-52694580D02*
X51966666Y-52742200D01*
X51966666Y-52742200D02*
X51871428Y-52789819D01*
X51871428Y-52789819D02*
X51585714Y-52789819D01*
X51585714Y-52789819D02*
X51490476Y-52742200D01*
X51490476Y-52742200D02*
X51442857Y-52694580D01*
X32281905Y-69654819D02*
X32281905Y-68654819D01*
X32281905Y-68654819D02*
X32520000Y-68654819D01*
X32520000Y-68654819D02*
X32662857Y-68702438D01*
X32662857Y-68702438D02*
X32758095Y-68797676D01*
X32758095Y-68797676D02*
X32805714Y-68892914D01*
X32805714Y-68892914D02*
X32853333Y-69083390D01*
X32853333Y-69083390D02*
X32853333Y-69226247D01*
X32853333Y-69226247D02*
X32805714Y-69416723D01*
X32805714Y-69416723D02*
X32758095Y-69511961D01*
X32758095Y-69511961D02*
X32662857Y-69607200D01*
X32662857Y-69607200D02*
X32520000Y-69654819D01*
X32520000Y-69654819D02*
X32281905Y-69654819D01*
X33710476Y-68988152D02*
X33710476Y-69654819D01*
X33472381Y-68607200D02*
X33234286Y-69321485D01*
X33234286Y-69321485D02*
X33853333Y-69321485D01*
X27678095Y-69824819D02*
X27678095Y-68824819D01*
X28249523Y-69824819D02*
X27820952Y-69253390D01*
X28249523Y-68824819D02*
X27678095Y-69396247D01*
X50633333Y-108669819D02*
X50300000Y-108193628D01*
X50061905Y-108669819D02*
X50061905Y-107669819D01*
X50061905Y-107669819D02*
X50442857Y-107669819D01*
X50442857Y-107669819D02*
X50538095Y-107717438D01*
X50538095Y-107717438D02*
X50585714Y-107765057D01*
X50585714Y-107765057D02*
X50633333Y-107860295D01*
X50633333Y-107860295D02*
X50633333Y-108003152D01*
X50633333Y-108003152D02*
X50585714Y-108098390D01*
X50585714Y-108098390D02*
X50538095Y-108146009D01*
X50538095Y-108146009D02*
X50442857Y-108193628D01*
X50442857Y-108193628D02*
X50061905Y-108193628D01*
X50966667Y-107669819D02*
X51633333Y-107669819D01*
X51633333Y-107669819D02*
X51204762Y-108669819D01*
X50633333Y-123909819D02*
X50300000Y-123433628D01*
X50061905Y-123909819D02*
X50061905Y-122909819D01*
X50061905Y-122909819D02*
X50442857Y-122909819D01*
X50442857Y-122909819D02*
X50538095Y-122957438D01*
X50538095Y-122957438D02*
X50585714Y-123005057D01*
X50585714Y-123005057D02*
X50633333Y-123100295D01*
X50633333Y-123100295D02*
X50633333Y-123243152D01*
X50633333Y-123243152D02*
X50585714Y-123338390D01*
X50585714Y-123338390D02*
X50538095Y-123386009D01*
X50538095Y-123386009D02*
X50442857Y-123433628D01*
X50442857Y-123433628D02*
X50061905Y-123433628D01*
X51204762Y-123338390D02*
X51109524Y-123290771D01*
X51109524Y-123290771D02*
X51061905Y-123243152D01*
X51061905Y-123243152D02*
X51014286Y-123147914D01*
X51014286Y-123147914D02*
X51014286Y-123100295D01*
X51014286Y-123100295D02*
X51061905Y-123005057D01*
X51061905Y-123005057D02*
X51109524Y-122957438D01*
X51109524Y-122957438D02*
X51204762Y-122909819D01*
X51204762Y-122909819D02*
X51395238Y-122909819D01*
X51395238Y-122909819D02*
X51490476Y-122957438D01*
X51490476Y-122957438D02*
X51538095Y-123005057D01*
X51538095Y-123005057D02*
X51585714Y-123100295D01*
X51585714Y-123100295D02*
X51585714Y-123147914D01*
X51585714Y-123147914D02*
X51538095Y-123243152D01*
X51538095Y-123243152D02*
X51490476Y-123290771D01*
X51490476Y-123290771D02*
X51395238Y-123338390D01*
X51395238Y-123338390D02*
X51204762Y-123338390D01*
X51204762Y-123338390D02*
X51109524Y-123386009D01*
X51109524Y-123386009D02*
X51061905Y-123433628D01*
X51061905Y-123433628D02*
X51014286Y-123528866D01*
X51014286Y-123528866D02*
X51014286Y-123719342D01*
X51014286Y-123719342D02*
X51061905Y-123814580D01*
X51061905Y-123814580D02*
X51109524Y-123862200D01*
X51109524Y-123862200D02*
X51204762Y-123909819D01*
X51204762Y-123909819D02*
X51395238Y-123909819D01*
X51395238Y-123909819D02*
X51490476Y-123862200D01*
X51490476Y-123862200D02*
X51538095Y-123814580D01*
X51538095Y-123814580D02*
X51585714Y-123719342D01*
X51585714Y-123719342D02*
X51585714Y-123528866D01*
X51585714Y-123528866D02*
X51538095Y-123433628D01*
X51538095Y-123433628D02*
X51490476Y-123386009D01*
X51490476Y-123386009D02*
X51395238Y-123338390D01*
X50157142Y-159469819D02*
X49823809Y-158993628D01*
X49585714Y-159469819D02*
X49585714Y-158469819D01*
X49585714Y-158469819D02*
X49966666Y-158469819D01*
X49966666Y-158469819D02*
X50061904Y-158517438D01*
X50061904Y-158517438D02*
X50109523Y-158565057D01*
X50109523Y-158565057D02*
X50157142Y-158660295D01*
X50157142Y-158660295D02*
X50157142Y-158803152D01*
X50157142Y-158803152D02*
X50109523Y-158898390D01*
X50109523Y-158898390D02*
X50061904Y-158946009D01*
X50061904Y-158946009D02*
X49966666Y-158993628D01*
X49966666Y-158993628D02*
X49585714Y-158993628D01*
X50538095Y-158565057D02*
X50585714Y-158517438D01*
X50585714Y-158517438D02*
X50680952Y-158469819D01*
X50680952Y-158469819D02*
X50919047Y-158469819D01*
X50919047Y-158469819D02*
X51014285Y-158517438D01*
X51014285Y-158517438D02*
X51061904Y-158565057D01*
X51061904Y-158565057D02*
X51109523Y-158660295D01*
X51109523Y-158660295D02*
X51109523Y-158755533D01*
X51109523Y-158755533D02*
X51061904Y-158898390D01*
X51061904Y-158898390D02*
X50490476Y-159469819D01*
X50490476Y-159469819D02*
X51109523Y-159469819D01*
X51728571Y-158469819D02*
X51823809Y-158469819D01*
X51823809Y-158469819D02*
X51919047Y-158517438D01*
X51919047Y-158517438D02*
X51966666Y-158565057D01*
X51966666Y-158565057D02*
X52014285Y-158660295D01*
X52014285Y-158660295D02*
X52061904Y-158850771D01*
X52061904Y-158850771D02*
X52061904Y-159088866D01*
X52061904Y-159088866D02*
X52014285Y-159279342D01*
X52014285Y-159279342D02*
X51966666Y-159374580D01*
X51966666Y-159374580D02*
X51919047Y-159422200D01*
X51919047Y-159422200D02*
X51823809Y-159469819D01*
X51823809Y-159469819D02*
X51728571Y-159469819D01*
X51728571Y-159469819D02*
X51633333Y-159422200D01*
X51633333Y-159422200D02*
X51585714Y-159374580D01*
X51585714Y-159374580D02*
X51538095Y-159279342D01*
X51538095Y-159279342D02*
X51490476Y-159088866D01*
X51490476Y-159088866D02*
X51490476Y-158850771D01*
X51490476Y-158850771D02*
X51538095Y-158660295D01*
X51538095Y-158660295D02*
X51585714Y-158565057D01*
X51585714Y-158565057D02*
X51633333Y-158517438D01*
X51633333Y-158517438D02*
X51728571Y-158469819D01*
X79200951Y-22791009D02*
X79534284Y-22791009D01*
X79677141Y-23314819D02*
X79200951Y-23314819D01*
X79200951Y-23314819D02*
X79200951Y-22314819D01*
X79200951Y-22314819D02*
X79677141Y-22314819D01*
X80248570Y-23314819D02*
X80153332Y-23267200D01*
X80153332Y-23267200D02*
X80105713Y-23171961D01*
X80105713Y-23171961D02*
X80105713Y-22314819D01*
X81010475Y-23267200D02*
X80915237Y-23314819D01*
X80915237Y-23314819D02*
X80724761Y-23314819D01*
X80724761Y-23314819D02*
X80629523Y-23267200D01*
X80629523Y-23267200D02*
X80581904Y-23171961D01*
X80581904Y-23171961D02*
X80581904Y-22791009D01*
X80581904Y-22791009D02*
X80629523Y-22695771D01*
X80629523Y-22695771D02*
X80724761Y-22648152D01*
X80724761Y-22648152D02*
X80915237Y-22648152D01*
X80915237Y-22648152D02*
X81010475Y-22695771D01*
X81010475Y-22695771D02*
X81058094Y-22791009D01*
X81058094Y-22791009D02*
X81058094Y-22886247D01*
X81058094Y-22886247D02*
X80581904Y-22981485D01*
X81915237Y-23267200D02*
X81819999Y-23314819D01*
X81819999Y-23314819D02*
X81629523Y-23314819D01*
X81629523Y-23314819D02*
X81534285Y-23267200D01*
X81534285Y-23267200D02*
X81486666Y-23219580D01*
X81486666Y-23219580D02*
X81439047Y-23124342D01*
X81439047Y-23124342D02*
X81439047Y-22838628D01*
X81439047Y-22838628D02*
X81486666Y-22743390D01*
X81486666Y-22743390D02*
X81534285Y-22695771D01*
X81534285Y-22695771D02*
X81629523Y-22648152D01*
X81629523Y-22648152D02*
X81819999Y-22648152D01*
X81819999Y-22648152D02*
X81915237Y-22695771D01*
X82200952Y-22648152D02*
X82581904Y-22648152D01*
X82343809Y-22314819D02*
X82343809Y-23171961D01*
X82343809Y-23171961D02*
X82391428Y-23267200D01*
X82391428Y-23267200D02*
X82486666Y-23314819D01*
X82486666Y-23314819D02*
X82581904Y-23314819D01*
X82915238Y-23314819D02*
X82915238Y-22648152D01*
X82915238Y-22838628D02*
X82962857Y-22743390D01*
X82962857Y-22743390D02*
X83010476Y-22695771D01*
X83010476Y-22695771D02*
X83105714Y-22648152D01*
X83105714Y-22648152D02*
X83200952Y-22648152D01*
X83677143Y-23314819D02*
X83581905Y-23267200D01*
X83581905Y-23267200D02*
X83534286Y-23219580D01*
X83534286Y-23219580D02*
X83486667Y-23124342D01*
X83486667Y-23124342D02*
X83486667Y-22838628D01*
X83486667Y-22838628D02*
X83534286Y-22743390D01*
X83534286Y-22743390D02*
X83581905Y-22695771D01*
X83581905Y-22695771D02*
X83677143Y-22648152D01*
X83677143Y-22648152D02*
X83820000Y-22648152D01*
X83820000Y-22648152D02*
X83915238Y-22695771D01*
X83915238Y-22695771D02*
X83962857Y-22743390D01*
X83962857Y-22743390D02*
X84010476Y-22838628D01*
X84010476Y-22838628D02*
X84010476Y-23124342D01*
X84010476Y-23124342D02*
X83962857Y-23219580D01*
X83962857Y-23219580D02*
X83915238Y-23267200D01*
X83915238Y-23267200D02*
X83820000Y-23314819D01*
X83820000Y-23314819D02*
X83677143Y-23314819D01*
X84867619Y-23314819D02*
X84867619Y-22314819D01*
X84867619Y-23267200D02*
X84772381Y-23314819D01*
X84772381Y-23314819D02*
X84581905Y-23314819D01*
X84581905Y-23314819D02*
X84486667Y-23267200D01*
X84486667Y-23267200D02*
X84439048Y-23219580D01*
X84439048Y-23219580D02*
X84391429Y-23124342D01*
X84391429Y-23124342D02*
X84391429Y-22838628D01*
X84391429Y-22838628D02*
X84439048Y-22743390D01*
X84439048Y-22743390D02*
X84486667Y-22695771D01*
X84486667Y-22695771D02*
X84581905Y-22648152D01*
X84581905Y-22648152D02*
X84772381Y-22648152D01*
X84772381Y-22648152D02*
X84867619Y-22695771D01*
X85724762Y-23267200D02*
X85629524Y-23314819D01*
X85629524Y-23314819D02*
X85439048Y-23314819D01*
X85439048Y-23314819D02*
X85343810Y-23267200D01*
X85343810Y-23267200D02*
X85296191Y-23171961D01*
X85296191Y-23171961D02*
X85296191Y-22791009D01*
X85296191Y-22791009D02*
X85343810Y-22695771D01*
X85343810Y-22695771D02*
X85439048Y-22648152D01*
X85439048Y-22648152D02*
X85629524Y-22648152D01*
X85629524Y-22648152D02*
X85724762Y-22695771D01*
X85724762Y-22695771D02*
X85772381Y-22791009D01*
X85772381Y-22791009D02*
X85772381Y-22886247D01*
X85772381Y-22886247D02*
X85296191Y-22981485D01*
X85962858Y-23410057D02*
X86724762Y-23410057D01*
X87296191Y-22791009D02*
X87439048Y-22838628D01*
X87439048Y-22838628D02*
X87486667Y-22886247D01*
X87486667Y-22886247D02*
X87534286Y-22981485D01*
X87534286Y-22981485D02*
X87534286Y-23124342D01*
X87534286Y-23124342D02*
X87486667Y-23219580D01*
X87486667Y-23219580D02*
X87439048Y-23267200D01*
X87439048Y-23267200D02*
X87343810Y-23314819D01*
X87343810Y-23314819D02*
X86962858Y-23314819D01*
X86962858Y-23314819D02*
X86962858Y-22314819D01*
X86962858Y-22314819D02*
X87296191Y-22314819D01*
X87296191Y-22314819D02*
X87391429Y-22362438D01*
X87391429Y-22362438D02*
X87439048Y-22410057D01*
X87439048Y-22410057D02*
X87486667Y-22505295D01*
X87486667Y-22505295D02*
X87486667Y-22600533D01*
X87486667Y-22600533D02*
X87439048Y-22695771D01*
X87439048Y-22695771D02*
X87391429Y-22743390D01*
X87391429Y-22743390D02*
X87296191Y-22791009D01*
X87296191Y-22791009D02*
X86962858Y-22791009D01*
X88486667Y-23314819D02*
X87915239Y-23314819D01*
X88200953Y-23314819D02*
X88200953Y-22314819D01*
X88200953Y-22314819D02*
X88105715Y-22457676D01*
X88105715Y-22457676D02*
X88010477Y-22552914D01*
X88010477Y-22552914D02*
X87915239Y-22600533D01*
X32924761Y-31840057D02*
X32829523Y-31792438D01*
X32829523Y-31792438D02*
X32734285Y-31697200D01*
X32734285Y-31697200D02*
X32591428Y-31554342D01*
X32591428Y-31554342D02*
X32496190Y-31506723D01*
X32496190Y-31506723D02*
X32400952Y-31506723D01*
X32448571Y-31744819D02*
X32353333Y-31697200D01*
X32353333Y-31697200D02*
X32258095Y-31601961D01*
X32258095Y-31601961D02*
X32210476Y-31411485D01*
X32210476Y-31411485D02*
X32210476Y-31078152D01*
X32210476Y-31078152D02*
X32258095Y-30887676D01*
X32258095Y-30887676D02*
X32353333Y-30792438D01*
X32353333Y-30792438D02*
X32448571Y-30744819D01*
X32448571Y-30744819D02*
X32639047Y-30744819D01*
X32639047Y-30744819D02*
X32734285Y-30792438D01*
X32734285Y-30792438D02*
X32829523Y-30887676D01*
X32829523Y-30887676D02*
X32877142Y-31078152D01*
X32877142Y-31078152D02*
X32877142Y-31411485D01*
X32877142Y-31411485D02*
X32829523Y-31601961D01*
X32829523Y-31601961D02*
X32734285Y-31697200D01*
X32734285Y-31697200D02*
X32639047Y-31744819D01*
X32639047Y-31744819D02*
X32448571Y-31744819D01*
X33258095Y-30840057D02*
X33305714Y-30792438D01*
X33305714Y-30792438D02*
X33400952Y-30744819D01*
X33400952Y-30744819D02*
X33639047Y-30744819D01*
X33639047Y-30744819D02*
X33734285Y-30792438D01*
X33734285Y-30792438D02*
X33781904Y-30840057D01*
X33781904Y-30840057D02*
X33829523Y-30935295D01*
X33829523Y-30935295D02*
X33829523Y-31030533D01*
X33829523Y-31030533D02*
X33781904Y-31173390D01*
X33781904Y-31173390D02*
X33210476Y-31744819D01*
X33210476Y-31744819D02*
X33829523Y-31744819D01*
X50633333Y-32469819D02*
X50300000Y-31993628D01*
X50061905Y-32469819D02*
X50061905Y-31469819D01*
X50061905Y-31469819D02*
X50442857Y-31469819D01*
X50442857Y-31469819D02*
X50538095Y-31517438D01*
X50538095Y-31517438D02*
X50585714Y-31565057D01*
X50585714Y-31565057D02*
X50633333Y-31660295D01*
X50633333Y-31660295D02*
X50633333Y-31803152D01*
X50633333Y-31803152D02*
X50585714Y-31898390D01*
X50585714Y-31898390D02*
X50538095Y-31946009D01*
X50538095Y-31946009D02*
X50442857Y-31993628D01*
X50442857Y-31993628D02*
X50061905Y-31993628D01*
X51014286Y-31565057D02*
X51061905Y-31517438D01*
X51061905Y-31517438D02*
X51157143Y-31469819D01*
X51157143Y-31469819D02*
X51395238Y-31469819D01*
X51395238Y-31469819D02*
X51490476Y-31517438D01*
X51490476Y-31517438D02*
X51538095Y-31565057D01*
X51538095Y-31565057D02*
X51585714Y-31660295D01*
X51585714Y-31660295D02*
X51585714Y-31755533D01*
X51585714Y-31755533D02*
X51538095Y-31898390D01*
X51538095Y-31898390D02*
X50966667Y-32469819D01*
X50966667Y-32469819D02*
X51585714Y-32469819D01*
X17272381Y-87119819D02*
X17272381Y-86119819D01*
X17272381Y-86119819D02*
X17510476Y-86119819D01*
X17510476Y-86119819D02*
X17653333Y-86167438D01*
X17653333Y-86167438D02*
X17748571Y-86262676D01*
X17748571Y-86262676D02*
X17796190Y-86357914D01*
X17796190Y-86357914D02*
X17843809Y-86548390D01*
X17843809Y-86548390D02*
X17843809Y-86691247D01*
X17843809Y-86691247D02*
X17796190Y-86881723D01*
X17796190Y-86881723D02*
X17748571Y-86976961D01*
X17748571Y-86976961D02*
X17653333Y-87072200D01*
X17653333Y-87072200D02*
X17510476Y-87119819D01*
X17510476Y-87119819D02*
X17272381Y-87119819D01*
X18843809Y-87024580D02*
X18796190Y-87072200D01*
X18796190Y-87072200D02*
X18653333Y-87119819D01*
X18653333Y-87119819D02*
X18558095Y-87119819D01*
X18558095Y-87119819D02*
X18415238Y-87072200D01*
X18415238Y-87072200D02*
X18320000Y-86976961D01*
X18320000Y-86976961D02*
X18272381Y-86881723D01*
X18272381Y-86881723D02*
X18224762Y-86691247D01*
X18224762Y-86691247D02*
X18224762Y-86548390D01*
X18224762Y-86548390D02*
X18272381Y-86357914D01*
X18272381Y-86357914D02*
X18320000Y-86262676D01*
X18320000Y-86262676D02*
X18415238Y-86167438D01*
X18415238Y-86167438D02*
X18558095Y-86119819D01*
X18558095Y-86119819D02*
X18653333Y-86119819D01*
X18653333Y-86119819D02*
X18796190Y-86167438D01*
X18796190Y-86167438D02*
X18843809Y-86215057D01*
X19034286Y-87215057D02*
X19796190Y-87215057D01*
X20224762Y-86119819D02*
X20415238Y-86119819D01*
X20415238Y-86119819D02*
X20510476Y-86167438D01*
X20510476Y-86167438D02*
X20605714Y-86262676D01*
X20605714Y-86262676D02*
X20653333Y-86453152D01*
X20653333Y-86453152D02*
X20653333Y-86786485D01*
X20653333Y-86786485D02*
X20605714Y-86976961D01*
X20605714Y-86976961D02*
X20510476Y-87072200D01*
X20510476Y-87072200D02*
X20415238Y-87119819D01*
X20415238Y-87119819D02*
X20224762Y-87119819D01*
X20224762Y-87119819D02*
X20129524Y-87072200D01*
X20129524Y-87072200D02*
X20034286Y-86976961D01*
X20034286Y-86976961D02*
X19986667Y-86786485D01*
X19986667Y-86786485D02*
X19986667Y-86453152D01*
X19986667Y-86453152D02*
X20034286Y-86262676D01*
X20034286Y-86262676D02*
X20129524Y-86167438D01*
X20129524Y-86167438D02*
X20224762Y-86119819D01*
X21081905Y-86119819D02*
X21081905Y-86929342D01*
X21081905Y-86929342D02*
X21129524Y-87024580D01*
X21129524Y-87024580D02*
X21177143Y-87072200D01*
X21177143Y-87072200D02*
X21272381Y-87119819D01*
X21272381Y-87119819D02*
X21462857Y-87119819D01*
X21462857Y-87119819D02*
X21558095Y-87072200D01*
X21558095Y-87072200D02*
X21605714Y-87024580D01*
X21605714Y-87024580D02*
X21653333Y-86929342D01*
X21653333Y-86929342D02*
X21653333Y-86119819D01*
X21986667Y-86119819D02*
X22558095Y-86119819D01*
X22272381Y-87119819D02*
X22272381Y-86119819D01*
X23367619Y-86119819D02*
X22891429Y-86119819D01*
X22891429Y-86119819D02*
X22843810Y-86596009D01*
X22843810Y-86596009D02*
X22891429Y-86548390D01*
X22891429Y-86548390D02*
X22986667Y-86500771D01*
X22986667Y-86500771D02*
X23224762Y-86500771D01*
X23224762Y-86500771D02*
X23320000Y-86548390D01*
X23320000Y-86548390D02*
X23367619Y-86596009D01*
X23367619Y-86596009D02*
X23415238Y-86691247D01*
X23415238Y-86691247D02*
X23415238Y-86929342D01*
X23415238Y-86929342D02*
X23367619Y-87024580D01*
X23367619Y-87024580D02*
X23320000Y-87072200D01*
X23320000Y-87072200D02*
X23224762Y-87119819D01*
X23224762Y-87119819D02*
X22986667Y-87119819D01*
X22986667Y-87119819D02*
X22891429Y-87072200D01*
X22891429Y-87072200D02*
X22843810Y-87024580D01*
X76924819Y-112521904D02*
X77734342Y-112521904D01*
X77734342Y-112521904D02*
X77829580Y-112474285D01*
X77829580Y-112474285D02*
X77877200Y-112426666D01*
X77877200Y-112426666D02*
X77924819Y-112331428D01*
X77924819Y-112331428D02*
X77924819Y-112140952D01*
X77924819Y-112140952D02*
X77877200Y-112045714D01*
X77877200Y-112045714D02*
X77829580Y-111998095D01*
X77829580Y-111998095D02*
X77734342Y-111950476D01*
X77734342Y-111950476D02*
X76924819Y-111950476D01*
X77924819Y-110950476D02*
X77924819Y-111521904D01*
X77924819Y-111236190D02*
X76924819Y-111236190D01*
X76924819Y-111236190D02*
X77067676Y-111331428D01*
X77067676Y-111331428D02*
X77162914Y-111426666D01*
X77162914Y-111426666D02*
X77210533Y-111521904D01*
X76924819Y-134611904D02*
X77734342Y-134611904D01*
X77734342Y-134611904D02*
X77829580Y-134564285D01*
X77829580Y-134564285D02*
X77877200Y-134516666D01*
X77877200Y-134516666D02*
X77924819Y-134421428D01*
X77924819Y-134421428D02*
X77924819Y-134230952D01*
X77924819Y-134230952D02*
X77877200Y-134135714D01*
X77877200Y-134135714D02*
X77829580Y-134088095D01*
X77829580Y-134088095D02*
X77734342Y-134040476D01*
X77734342Y-134040476D02*
X76924819Y-134040476D01*
X77877200Y-133611904D02*
X77924819Y-133469047D01*
X77924819Y-133469047D02*
X77924819Y-133230952D01*
X77924819Y-133230952D02*
X77877200Y-133135714D01*
X77877200Y-133135714D02*
X77829580Y-133088095D01*
X77829580Y-133088095D02*
X77734342Y-133040476D01*
X77734342Y-133040476D02*
X77639104Y-133040476D01*
X77639104Y-133040476D02*
X77543866Y-133088095D01*
X77543866Y-133088095D02*
X77496247Y-133135714D01*
X77496247Y-133135714D02*
X77448628Y-133230952D01*
X77448628Y-133230952D02*
X77401009Y-133421428D01*
X77401009Y-133421428D02*
X77353390Y-133516666D01*
X77353390Y-133516666D02*
X77305771Y-133564285D01*
X77305771Y-133564285D02*
X77210533Y-133611904D01*
X77210533Y-133611904D02*
X77115295Y-133611904D01*
X77115295Y-133611904D02*
X77020057Y-133564285D01*
X77020057Y-133564285D02*
X76972438Y-133516666D01*
X76972438Y-133516666D02*
X76924819Y-133421428D01*
X76924819Y-133421428D02*
X76924819Y-133183333D01*
X76924819Y-133183333D02*
X76972438Y-133040476D01*
X77401009Y-132278571D02*
X77448628Y-132135714D01*
X77448628Y-132135714D02*
X77496247Y-132088095D01*
X77496247Y-132088095D02*
X77591485Y-132040476D01*
X77591485Y-132040476D02*
X77734342Y-132040476D01*
X77734342Y-132040476D02*
X77829580Y-132088095D01*
X77829580Y-132088095D02*
X77877200Y-132135714D01*
X77877200Y-132135714D02*
X77924819Y-132230952D01*
X77924819Y-132230952D02*
X77924819Y-132611904D01*
X77924819Y-132611904D02*
X76924819Y-132611904D01*
X76924819Y-132611904D02*
X76924819Y-132278571D01*
X76924819Y-132278571D02*
X76972438Y-132183333D01*
X76972438Y-132183333D02*
X77020057Y-132135714D01*
X77020057Y-132135714D02*
X77115295Y-132088095D01*
X77115295Y-132088095D02*
X77210533Y-132088095D01*
X77210533Y-132088095D02*
X77305771Y-132135714D01*
X77305771Y-132135714D02*
X77353390Y-132183333D01*
X77353390Y-132183333D02*
X77401009Y-132278571D01*
X77401009Y-132278571D02*
X77401009Y-132611904D01*
X50157142Y-154389819D02*
X49823809Y-153913628D01*
X49585714Y-154389819D02*
X49585714Y-153389819D01*
X49585714Y-153389819D02*
X49966666Y-153389819D01*
X49966666Y-153389819D02*
X50061904Y-153437438D01*
X50061904Y-153437438D02*
X50109523Y-153485057D01*
X50109523Y-153485057D02*
X50157142Y-153580295D01*
X50157142Y-153580295D02*
X50157142Y-153723152D01*
X50157142Y-153723152D02*
X50109523Y-153818390D01*
X50109523Y-153818390D02*
X50061904Y-153866009D01*
X50061904Y-153866009D02*
X49966666Y-153913628D01*
X49966666Y-153913628D02*
X49585714Y-153913628D01*
X51109523Y-154389819D02*
X50538095Y-154389819D01*
X50823809Y-154389819D02*
X50823809Y-153389819D01*
X50823809Y-153389819D02*
X50728571Y-153532676D01*
X50728571Y-153532676D02*
X50633333Y-153627914D01*
X50633333Y-153627914D02*
X50538095Y-153675533D01*
X51728571Y-153389819D02*
X51823809Y-153389819D01*
X51823809Y-153389819D02*
X51919047Y-153437438D01*
X51919047Y-153437438D02*
X51966666Y-153485057D01*
X51966666Y-153485057D02*
X52014285Y-153580295D01*
X52014285Y-153580295D02*
X52061904Y-153770771D01*
X52061904Y-153770771D02*
X52061904Y-154008866D01*
X52061904Y-154008866D02*
X52014285Y-154199342D01*
X52014285Y-154199342D02*
X51966666Y-154294580D01*
X51966666Y-154294580D02*
X51919047Y-154342200D01*
X51919047Y-154342200D02*
X51823809Y-154389819D01*
X51823809Y-154389819D02*
X51728571Y-154389819D01*
X51728571Y-154389819D02*
X51633333Y-154342200D01*
X51633333Y-154342200D02*
X51585714Y-154294580D01*
X51585714Y-154294580D02*
X51538095Y-154199342D01*
X51538095Y-154199342D02*
X51490476Y-154008866D01*
X51490476Y-154008866D02*
X51490476Y-153770771D01*
X51490476Y-153770771D02*
X51538095Y-153580295D01*
X51538095Y-153580295D02*
X51585714Y-153485057D01*
X51585714Y-153485057D02*
X51633333Y-153437438D01*
X51633333Y-153437438D02*
X51728571Y-153389819D01*
X32924761Y-62320057D02*
X32829523Y-62272438D01*
X32829523Y-62272438D02*
X32734285Y-62177200D01*
X32734285Y-62177200D02*
X32591428Y-62034342D01*
X32591428Y-62034342D02*
X32496190Y-61986723D01*
X32496190Y-61986723D02*
X32400952Y-61986723D01*
X32448571Y-62224819D02*
X32353333Y-62177200D01*
X32353333Y-62177200D02*
X32258095Y-62081961D01*
X32258095Y-62081961D02*
X32210476Y-61891485D01*
X32210476Y-61891485D02*
X32210476Y-61558152D01*
X32210476Y-61558152D02*
X32258095Y-61367676D01*
X32258095Y-61367676D02*
X32353333Y-61272438D01*
X32353333Y-61272438D02*
X32448571Y-61224819D01*
X32448571Y-61224819D02*
X32639047Y-61224819D01*
X32639047Y-61224819D02*
X32734285Y-61272438D01*
X32734285Y-61272438D02*
X32829523Y-61367676D01*
X32829523Y-61367676D02*
X32877142Y-61558152D01*
X32877142Y-61558152D02*
X32877142Y-61891485D01*
X32877142Y-61891485D02*
X32829523Y-62081961D01*
X32829523Y-62081961D02*
X32734285Y-62177200D01*
X32734285Y-62177200D02*
X32639047Y-62224819D01*
X32639047Y-62224819D02*
X32448571Y-62224819D01*
X33734285Y-61558152D02*
X33734285Y-62224819D01*
X33496190Y-61177200D02*
X33258095Y-61891485D01*
X33258095Y-61891485D02*
X33877142Y-61891485D01*
X31805714Y-161094819D02*
X31805714Y-160094819D01*
X31805714Y-160094819D02*
X32043809Y-160094819D01*
X32043809Y-160094819D02*
X32186666Y-160142438D01*
X32186666Y-160142438D02*
X32281904Y-160237676D01*
X32281904Y-160237676D02*
X32329523Y-160332914D01*
X32329523Y-160332914D02*
X32377142Y-160523390D01*
X32377142Y-160523390D02*
X32377142Y-160666247D01*
X32377142Y-160666247D02*
X32329523Y-160856723D01*
X32329523Y-160856723D02*
X32281904Y-160951961D01*
X32281904Y-160951961D02*
X32186666Y-161047200D01*
X32186666Y-161047200D02*
X32043809Y-161094819D01*
X32043809Y-161094819D02*
X31805714Y-161094819D01*
X33329523Y-161094819D02*
X32758095Y-161094819D01*
X33043809Y-161094819D02*
X33043809Y-160094819D01*
X33043809Y-160094819D02*
X32948571Y-160237676D01*
X32948571Y-160237676D02*
X32853333Y-160332914D01*
X32853333Y-160332914D02*
X32758095Y-160380533D01*
X33948571Y-160094819D02*
X34043809Y-160094819D01*
X34043809Y-160094819D02*
X34139047Y-160142438D01*
X34139047Y-160142438D02*
X34186666Y-160190057D01*
X34186666Y-160190057D02*
X34234285Y-160285295D01*
X34234285Y-160285295D02*
X34281904Y-160475771D01*
X34281904Y-160475771D02*
X34281904Y-160713866D01*
X34281904Y-160713866D02*
X34234285Y-160904342D01*
X34234285Y-160904342D02*
X34186666Y-160999580D01*
X34186666Y-160999580D02*
X34139047Y-161047200D01*
X34139047Y-161047200D02*
X34043809Y-161094819D01*
X34043809Y-161094819D02*
X33948571Y-161094819D01*
X33948571Y-161094819D02*
X33853333Y-161047200D01*
X33853333Y-161047200D02*
X33805714Y-160999580D01*
X33805714Y-160999580D02*
X33758095Y-160904342D01*
X33758095Y-160904342D02*
X33710476Y-160713866D01*
X33710476Y-160713866D02*
X33710476Y-160475771D01*
X33710476Y-160475771D02*
X33758095Y-160285295D01*
X33758095Y-160285295D02*
X33805714Y-160190057D01*
X33805714Y-160190057D02*
X33853333Y-160142438D01*
X33853333Y-160142438D02*
X33948571Y-160094819D01*
X27678095Y-161264819D02*
X27678095Y-160264819D01*
X28249523Y-161264819D02*
X27820952Y-160693390D01*
X28249523Y-160264819D02*
X27678095Y-160836247D01*
X17272381Y-26159819D02*
X17272381Y-25159819D01*
X17272381Y-25159819D02*
X17510476Y-25159819D01*
X17510476Y-25159819D02*
X17653333Y-25207438D01*
X17653333Y-25207438D02*
X17748571Y-25302676D01*
X17748571Y-25302676D02*
X17796190Y-25397914D01*
X17796190Y-25397914D02*
X17843809Y-25588390D01*
X17843809Y-25588390D02*
X17843809Y-25731247D01*
X17843809Y-25731247D02*
X17796190Y-25921723D01*
X17796190Y-25921723D02*
X17748571Y-26016961D01*
X17748571Y-26016961D02*
X17653333Y-26112200D01*
X17653333Y-26112200D02*
X17510476Y-26159819D01*
X17510476Y-26159819D02*
X17272381Y-26159819D01*
X18843809Y-26064580D02*
X18796190Y-26112200D01*
X18796190Y-26112200D02*
X18653333Y-26159819D01*
X18653333Y-26159819D02*
X18558095Y-26159819D01*
X18558095Y-26159819D02*
X18415238Y-26112200D01*
X18415238Y-26112200D02*
X18320000Y-26016961D01*
X18320000Y-26016961D02*
X18272381Y-25921723D01*
X18272381Y-25921723D02*
X18224762Y-25731247D01*
X18224762Y-25731247D02*
X18224762Y-25588390D01*
X18224762Y-25588390D02*
X18272381Y-25397914D01*
X18272381Y-25397914D02*
X18320000Y-25302676D01*
X18320000Y-25302676D02*
X18415238Y-25207438D01*
X18415238Y-25207438D02*
X18558095Y-25159819D01*
X18558095Y-25159819D02*
X18653333Y-25159819D01*
X18653333Y-25159819D02*
X18796190Y-25207438D01*
X18796190Y-25207438D02*
X18843809Y-25255057D01*
X19034286Y-26255057D02*
X19796190Y-26255057D01*
X20224762Y-25159819D02*
X20415238Y-25159819D01*
X20415238Y-25159819D02*
X20510476Y-25207438D01*
X20510476Y-25207438D02*
X20605714Y-25302676D01*
X20605714Y-25302676D02*
X20653333Y-25493152D01*
X20653333Y-25493152D02*
X20653333Y-25826485D01*
X20653333Y-25826485D02*
X20605714Y-26016961D01*
X20605714Y-26016961D02*
X20510476Y-26112200D01*
X20510476Y-26112200D02*
X20415238Y-26159819D01*
X20415238Y-26159819D02*
X20224762Y-26159819D01*
X20224762Y-26159819D02*
X20129524Y-26112200D01*
X20129524Y-26112200D02*
X20034286Y-26016961D01*
X20034286Y-26016961D02*
X19986667Y-25826485D01*
X19986667Y-25826485D02*
X19986667Y-25493152D01*
X19986667Y-25493152D02*
X20034286Y-25302676D01*
X20034286Y-25302676D02*
X20129524Y-25207438D01*
X20129524Y-25207438D02*
X20224762Y-25159819D01*
X21081905Y-25159819D02*
X21081905Y-25969342D01*
X21081905Y-25969342D02*
X21129524Y-26064580D01*
X21129524Y-26064580D02*
X21177143Y-26112200D01*
X21177143Y-26112200D02*
X21272381Y-26159819D01*
X21272381Y-26159819D02*
X21462857Y-26159819D01*
X21462857Y-26159819D02*
X21558095Y-26112200D01*
X21558095Y-26112200D02*
X21605714Y-26064580D01*
X21605714Y-26064580D02*
X21653333Y-25969342D01*
X21653333Y-25969342D02*
X21653333Y-25159819D01*
X21986667Y-25159819D02*
X22558095Y-25159819D01*
X22272381Y-26159819D02*
X22272381Y-25159819D01*
X23415238Y-26159819D02*
X22843810Y-26159819D01*
X23129524Y-26159819D02*
X23129524Y-25159819D01*
X23129524Y-25159819D02*
X23034286Y-25302676D01*
X23034286Y-25302676D02*
X22939048Y-25397914D01*
X22939048Y-25397914D02*
X22843810Y-25445533D01*
X32281905Y-130614819D02*
X32281905Y-129614819D01*
X32281905Y-129614819D02*
X32520000Y-129614819D01*
X32520000Y-129614819D02*
X32662857Y-129662438D01*
X32662857Y-129662438D02*
X32758095Y-129757676D01*
X32758095Y-129757676D02*
X32805714Y-129852914D01*
X32805714Y-129852914D02*
X32853333Y-130043390D01*
X32853333Y-130043390D02*
X32853333Y-130186247D01*
X32853333Y-130186247D02*
X32805714Y-130376723D01*
X32805714Y-130376723D02*
X32758095Y-130471961D01*
X32758095Y-130471961D02*
X32662857Y-130567200D01*
X32662857Y-130567200D02*
X32520000Y-130614819D01*
X32520000Y-130614819D02*
X32281905Y-130614819D01*
X33424762Y-130043390D02*
X33329524Y-129995771D01*
X33329524Y-129995771D02*
X33281905Y-129948152D01*
X33281905Y-129948152D02*
X33234286Y-129852914D01*
X33234286Y-129852914D02*
X33234286Y-129805295D01*
X33234286Y-129805295D02*
X33281905Y-129710057D01*
X33281905Y-129710057D02*
X33329524Y-129662438D01*
X33329524Y-129662438D02*
X33424762Y-129614819D01*
X33424762Y-129614819D02*
X33615238Y-129614819D01*
X33615238Y-129614819D02*
X33710476Y-129662438D01*
X33710476Y-129662438D02*
X33758095Y-129710057D01*
X33758095Y-129710057D02*
X33805714Y-129805295D01*
X33805714Y-129805295D02*
X33805714Y-129852914D01*
X33805714Y-129852914D02*
X33758095Y-129948152D01*
X33758095Y-129948152D02*
X33710476Y-129995771D01*
X33710476Y-129995771D02*
X33615238Y-130043390D01*
X33615238Y-130043390D02*
X33424762Y-130043390D01*
X33424762Y-130043390D02*
X33329524Y-130091009D01*
X33329524Y-130091009D02*
X33281905Y-130138628D01*
X33281905Y-130138628D02*
X33234286Y-130233866D01*
X33234286Y-130233866D02*
X33234286Y-130424342D01*
X33234286Y-130424342D02*
X33281905Y-130519580D01*
X33281905Y-130519580D02*
X33329524Y-130567200D01*
X33329524Y-130567200D02*
X33424762Y-130614819D01*
X33424762Y-130614819D02*
X33615238Y-130614819D01*
X33615238Y-130614819D02*
X33710476Y-130567200D01*
X33710476Y-130567200D02*
X33758095Y-130519580D01*
X33758095Y-130519580D02*
X33805714Y-130424342D01*
X33805714Y-130424342D02*
X33805714Y-130233866D01*
X33805714Y-130233866D02*
X33758095Y-130138628D01*
X33758095Y-130138628D02*
X33710476Y-130091009D01*
X33710476Y-130091009D02*
X33615238Y-130043390D01*
X27678095Y-130784819D02*
X27678095Y-129784819D01*
X28249523Y-130784819D02*
X27820952Y-130213390D01*
X28249523Y-129784819D02*
X27678095Y-130356247D01*
X32924761Y-47080057D02*
X32829523Y-47032438D01*
X32829523Y-47032438D02*
X32734285Y-46937200D01*
X32734285Y-46937200D02*
X32591428Y-46794342D01*
X32591428Y-46794342D02*
X32496190Y-46746723D01*
X32496190Y-46746723D02*
X32400952Y-46746723D01*
X32448571Y-46984819D02*
X32353333Y-46937200D01*
X32353333Y-46937200D02*
X32258095Y-46841961D01*
X32258095Y-46841961D02*
X32210476Y-46651485D01*
X32210476Y-46651485D02*
X32210476Y-46318152D01*
X32210476Y-46318152D02*
X32258095Y-46127676D01*
X32258095Y-46127676D02*
X32353333Y-46032438D01*
X32353333Y-46032438D02*
X32448571Y-45984819D01*
X32448571Y-45984819D02*
X32639047Y-45984819D01*
X32639047Y-45984819D02*
X32734285Y-46032438D01*
X32734285Y-46032438D02*
X32829523Y-46127676D01*
X32829523Y-46127676D02*
X32877142Y-46318152D01*
X32877142Y-46318152D02*
X32877142Y-46651485D01*
X32877142Y-46651485D02*
X32829523Y-46841961D01*
X32829523Y-46841961D02*
X32734285Y-46937200D01*
X32734285Y-46937200D02*
X32639047Y-46984819D01*
X32639047Y-46984819D02*
X32448571Y-46984819D01*
X33210476Y-45984819D02*
X33829523Y-45984819D01*
X33829523Y-45984819D02*
X33496190Y-46365771D01*
X33496190Y-46365771D02*
X33639047Y-46365771D01*
X33639047Y-46365771D02*
X33734285Y-46413390D01*
X33734285Y-46413390D02*
X33781904Y-46461009D01*
X33781904Y-46461009D02*
X33829523Y-46556247D01*
X33829523Y-46556247D02*
X33829523Y-46794342D01*
X33829523Y-46794342D02*
X33781904Y-46889580D01*
X33781904Y-46889580D02*
X33734285Y-46937200D01*
X33734285Y-46937200D02*
X33639047Y-46984819D01*
X33639047Y-46984819D02*
X33353333Y-46984819D01*
X33353333Y-46984819D02*
X33258095Y-46937200D01*
X33258095Y-46937200D02*
X33210476Y-46889580D01*
X50157142Y-22309819D02*
X49823809Y-21833628D01*
X49585714Y-22309819D02*
X49585714Y-21309819D01*
X49585714Y-21309819D02*
X49966666Y-21309819D01*
X49966666Y-21309819D02*
X50061904Y-21357438D01*
X50061904Y-21357438D02*
X50109523Y-21405057D01*
X50109523Y-21405057D02*
X50157142Y-21500295D01*
X50157142Y-21500295D02*
X50157142Y-21643152D01*
X50157142Y-21643152D02*
X50109523Y-21738390D01*
X50109523Y-21738390D02*
X50061904Y-21786009D01*
X50061904Y-21786009D02*
X49966666Y-21833628D01*
X49966666Y-21833628D02*
X49585714Y-21833628D01*
X51109523Y-22309819D02*
X50538095Y-22309819D01*
X50823809Y-22309819D02*
X50823809Y-21309819D01*
X50823809Y-21309819D02*
X50728571Y-21452676D01*
X50728571Y-21452676D02*
X50633333Y-21547914D01*
X50633333Y-21547914D02*
X50538095Y-21595533D01*
X52061904Y-22309819D02*
X51490476Y-22309819D01*
X51776190Y-22309819D02*
X51776190Y-21309819D01*
X51776190Y-21309819D02*
X51680952Y-21452676D01*
X51680952Y-21452676D02*
X51585714Y-21547914D01*
X51585714Y-21547914D02*
X51490476Y-21595533D01*
X32448571Y-153760057D02*
X32353333Y-153712438D01*
X32353333Y-153712438D02*
X32258095Y-153617200D01*
X32258095Y-153617200D02*
X32115238Y-153474342D01*
X32115238Y-153474342D02*
X32020000Y-153426723D01*
X32020000Y-153426723D02*
X31924762Y-153426723D01*
X31972381Y-153664819D02*
X31877143Y-153617200D01*
X31877143Y-153617200D02*
X31781905Y-153521961D01*
X31781905Y-153521961D02*
X31734286Y-153331485D01*
X31734286Y-153331485D02*
X31734286Y-152998152D01*
X31734286Y-152998152D02*
X31781905Y-152807676D01*
X31781905Y-152807676D02*
X31877143Y-152712438D01*
X31877143Y-152712438D02*
X31972381Y-152664819D01*
X31972381Y-152664819D02*
X32162857Y-152664819D01*
X32162857Y-152664819D02*
X32258095Y-152712438D01*
X32258095Y-152712438D02*
X32353333Y-152807676D01*
X32353333Y-152807676D02*
X32400952Y-152998152D01*
X32400952Y-152998152D02*
X32400952Y-153331485D01*
X32400952Y-153331485D02*
X32353333Y-153521961D01*
X32353333Y-153521961D02*
X32258095Y-153617200D01*
X32258095Y-153617200D02*
X32162857Y-153664819D01*
X32162857Y-153664819D02*
X31972381Y-153664819D01*
X33353333Y-153664819D02*
X32781905Y-153664819D01*
X33067619Y-153664819D02*
X33067619Y-152664819D01*
X33067619Y-152664819D02*
X32972381Y-152807676D01*
X32972381Y-152807676D02*
X32877143Y-152902914D01*
X32877143Y-152902914D02*
X32781905Y-152950533D01*
X33972381Y-152664819D02*
X34067619Y-152664819D01*
X34067619Y-152664819D02*
X34162857Y-152712438D01*
X34162857Y-152712438D02*
X34210476Y-152760057D01*
X34210476Y-152760057D02*
X34258095Y-152855295D01*
X34258095Y-152855295D02*
X34305714Y-153045771D01*
X34305714Y-153045771D02*
X34305714Y-153283866D01*
X34305714Y-153283866D02*
X34258095Y-153474342D01*
X34258095Y-153474342D02*
X34210476Y-153569580D01*
X34210476Y-153569580D02*
X34162857Y-153617200D01*
X34162857Y-153617200D02*
X34067619Y-153664819D01*
X34067619Y-153664819D02*
X33972381Y-153664819D01*
X33972381Y-153664819D02*
X33877143Y-153617200D01*
X33877143Y-153617200D02*
X33829524Y-153569580D01*
X33829524Y-153569580D02*
X33781905Y-153474342D01*
X33781905Y-153474342D02*
X33734286Y-153283866D01*
X33734286Y-153283866D02*
X33734286Y-153045771D01*
X33734286Y-153045771D02*
X33781905Y-152855295D01*
X33781905Y-152855295D02*
X33829524Y-152760057D01*
X33829524Y-152760057D02*
X33877143Y-152712438D01*
X33877143Y-152712438D02*
X33972381Y-152664819D01*
D11*
X76851905Y-39167419D02*
X76851905Y-38167419D01*
X76851905Y-38167419D02*
X77232857Y-38167419D01*
X77232857Y-38167419D02*
X77328095Y-38215038D01*
X77328095Y-38215038D02*
X77375714Y-38262657D01*
X77375714Y-38262657D02*
X77423333Y-38357895D01*
X77423333Y-38357895D02*
X77423333Y-38500752D01*
X77423333Y-38500752D02*
X77375714Y-38595990D01*
X77375714Y-38595990D02*
X77328095Y-38643609D01*
X77328095Y-38643609D02*
X77232857Y-38691228D01*
X77232857Y-38691228D02*
X76851905Y-38691228D01*
X78375714Y-39167419D02*
X77804286Y-39167419D01*
X78090000Y-39167419D02*
X78090000Y-38167419D01*
X78090000Y-38167419D02*
X77994762Y-38310276D01*
X77994762Y-38310276D02*
X77899524Y-38405514D01*
X77899524Y-38405514D02*
X77804286Y-38453133D01*
D10*
X17272381Y-148079819D02*
X17272381Y-147079819D01*
X17272381Y-147079819D02*
X17510476Y-147079819D01*
X17510476Y-147079819D02*
X17653333Y-147127438D01*
X17653333Y-147127438D02*
X17748571Y-147222676D01*
X17748571Y-147222676D02*
X17796190Y-147317914D01*
X17796190Y-147317914D02*
X17843809Y-147508390D01*
X17843809Y-147508390D02*
X17843809Y-147651247D01*
X17843809Y-147651247D02*
X17796190Y-147841723D01*
X17796190Y-147841723D02*
X17748571Y-147936961D01*
X17748571Y-147936961D02*
X17653333Y-148032200D01*
X17653333Y-148032200D02*
X17510476Y-148079819D01*
X17510476Y-148079819D02*
X17272381Y-148079819D01*
X18843809Y-147984580D02*
X18796190Y-148032200D01*
X18796190Y-148032200D02*
X18653333Y-148079819D01*
X18653333Y-148079819D02*
X18558095Y-148079819D01*
X18558095Y-148079819D02*
X18415238Y-148032200D01*
X18415238Y-148032200D02*
X18320000Y-147936961D01*
X18320000Y-147936961D02*
X18272381Y-147841723D01*
X18272381Y-147841723D02*
X18224762Y-147651247D01*
X18224762Y-147651247D02*
X18224762Y-147508390D01*
X18224762Y-147508390D02*
X18272381Y-147317914D01*
X18272381Y-147317914D02*
X18320000Y-147222676D01*
X18320000Y-147222676D02*
X18415238Y-147127438D01*
X18415238Y-147127438D02*
X18558095Y-147079819D01*
X18558095Y-147079819D02*
X18653333Y-147079819D01*
X18653333Y-147079819D02*
X18796190Y-147127438D01*
X18796190Y-147127438D02*
X18843809Y-147175057D01*
X19034286Y-148175057D02*
X19796190Y-148175057D01*
X20224762Y-147079819D02*
X20415238Y-147079819D01*
X20415238Y-147079819D02*
X20510476Y-147127438D01*
X20510476Y-147127438D02*
X20605714Y-147222676D01*
X20605714Y-147222676D02*
X20653333Y-147413152D01*
X20653333Y-147413152D02*
X20653333Y-147746485D01*
X20653333Y-147746485D02*
X20605714Y-147936961D01*
X20605714Y-147936961D02*
X20510476Y-148032200D01*
X20510476Y-148032200D02*
X20415238Y-148079819D01*
X20415238Y-148079819D02*
X20224762Y-148079819D01*
X20224762Y-148079819D02*
X20129524Y-148032200D01*
X20129524Y-148032200D02*
X20034286Y-147936961D01*
X20034286Y-147936961D02*
X19986667Y-147746485D01*
X19986667Y-147746485D02*
X19986667Y-147413152D01*
X19986667Y-147413152D02*
X20034286Y-147222676D01*
X20034286Y-147222676D02*
X20129524Y-147127438D01*
X20129524Y-147127438D02*
X20224762Y-147079819D01*
X21081905Y-147079819D02*
X21081905Y-147889342D01*
X21081905Y-147889342D02*
X21129524Y-147984580D01*
X21129524Y-147984580D02*
X21177143Y-148032200D01*
X21177143Y-148032200D02*
X21272381Y-148079819D01*
X21272381Y-148079819D02*
X21462857Y-148079819D01*
X21462857Y-148079819D02*
X21558095Y-148032200D01*
X21558095Y-148032200D02*
X21605714Y-147984580D01*
X21605714Y-147984580D02*
X21653333Y-147889342D01*
X21653333Y-147889342D02*
X21653333Y-147079819D01*
X21986667Y-147079819D02*
X22558095Y-147079819D01*
X22272381Y-148079819D02*
X22272381Y-147079819D01*
X22939048Y-148079819D02*
X23129524Y-148079819D01*
X23129524Y-148079819D02*
X23224762Y-148032200D01*
X23224762Y-148032200D02*
X23272381Y-147984580D01*
X23272381Y-147984580D02*
X23367619Y-147841723D01*
X23367619Y-147841723D02*
X23415238Y-147651247D01*
X23415238Y-147651247D02*
X23415238Y-147270295D01*
X23415238Y-147270295D02*
X23367619Y-147175057D01*
X23367619Y-147175057D02*
X23320000Y-147127438D01*
X23320000Y-147127438D02*
X23224762Y-147079819D01*
X23224762Y-147079819D02*
X23034286Y-147079819D01*
X23034286Y-147079819D02*
X22939048Y-147127438D01*
X22939048Y-147127438D02*
X22891429Y-147175057D01*
X22891429Y-147175057D02*
X22843810Y-147270295D01*
X22843810Y-147270295D02*
X22843810Y-147508390D01*
X22843810Y-147508390D02*
X22891429Y-147603628D01*
X22891429Y-147603628D02*
X22939048Y-147651247D01*
X22939048Y-147651247D02*
X23034286Y-147698866D01*
X23034286Y-147698866D02*
X23224762Y-147698866D01*
X23224762Y-147698866D02*
X23320000Y-147651247D01*
X23320000Y-147651247D02*
X23367619Y-147603628D01*
X23367619Y-147603628D02*
X23415238Y-147508390D01*
X32924761Y-77560057D02*
X32829523Y-77512438D01*
X32829523Y-77512438D02*
X32734285Y-77417200D01*
X32734285Y-77417200D02*
X32591428Y-77274342D01*
X32591428Y-77274342D02*
X32496190Y-77226723D01*
X32496190Y-77226723D02*
X32400952Y-77226723D01*
X32448571Y-77464819D02*
X32353333Y-77417200D01*
X32353333Y-77417200D02*
X32258095Y-77321961D01*
X32258095Y-77321961D02*
X32210476Y-77131485D01*
X32210476Y-77131485D02*
X32210476Y-76798152D01*
X32210476Y-76798152D02*
X32258095Y-76607676D01*
X32258095Y-76607676D02*
X32353333Y-76512438D01*
X32353333Y-76512438D02*
X32448571Y-76464819D01*
X32448571Y-76464819D02*
X32639047Y-76464819D01*
X32639047Y-76464819D02*
X32734285Y-76512438D01*
X32734285Y-76512438D02*
X32829523Y-76607676D01*
X32829523Y-76607676D02*
X32877142Y-76798152D01*
X32877142Y-76798152D02*
X32877142Y-77131485D01*
X32877142Y-77131485D02*
X32829523Y-77321961D01*
X32829523Y-77321961D02*
X32734285Y-77417200D01*
X32734285Y-77417200D02*
X32639047Y-77464819D01*
X32639047Y-77464819D02*
X32448571Y-77464819D01*
X33781904Y-76464819D02*
X33305714Y-76464819D01*
X33305714Y-76464819D02*
X33258095Y-76941009D01*
X33258095Y-76941009D02*
X33305714Y-76893390D01*
X33305714Y-76893390D02*
X33400952Y-76845771D01*
X33400952Y-76845771D02*
X33639047Y-76845771D01*
X33639047Y-76845771D02*
X33734285Y-76893390D01*
X33734285Y-76893390D02*
X33781904Y-76941009D01*
X33781904Y-76941009D02*
X33829523Y-77036247D01*
X33829523Y-77036247D02*
X33829523Y-77274342D01*
X33829523Y-77274342D02*
X33781904Y-77369580D01*
X33781904Y-77369580D02*
X33734285Y-77417200D01*
X33734285Y-77417200D02*
X33639047Y-77464819D01*
X33639047Y-77464819D02*
X33400952Y-77464819D01*
X33400952Y-77464819D02*
X33305714Y-77417200D01*
X33305714Y-77417200D02*
X33258095Y-77369580D01*
X32281905Y-100134819D02*
X32281905Y-99134819D01*
X32281905Y-99134819D02*
X32520000Y-99134819D01*
X32520000Y-99134819D02*
X32662857Y-99182438D01*
X32662857Y-99182438D02*
X32758095Y-99277676D01*
X32758095Y-99277676D02*
X32805714Y-99372914D01*
X32805714Y-99372914D02*
X32853333Y-99563390D01*
X32853333Y-99563390D02*
X32853333Y-99706247D01*
X32853333Y-99706247D02*
X32805714Y-99896723D01*
X32805714Y-99896723D02*
X32758095Y-99991961D01*
X32758095Y-99991961D02*
X32662857Y-100087200D01*
X32662857Y-100087200D02*
X32520000Y-100134819D01*
X32520000Y-100134819D02*
X32281905Y-100134819D01*
X33710476Y-99134819D02*
X33520000Y-99134819D01*
X33520000Y-99134819D02*
X33424762Y-99182438D01*
X33424762Y-99182438D02*
X33377143Y-99230057D01*
X33377143Y-99230057D02*
X33281905Y-99372914D01*
X33281905Y-99372914D02*
X33234286Y-99563390D01*
X33234286Y-99563390D02*
X33234286Y-99944342D01*
X33234286Y-99944342D02*
X33281905Y-100039580D01*
X33281905Y-100039580D02*
X33329524Y-100087200D01*
X33329524Y-100087200D02*
X33424762Y-100134819D01*
X33424762Y-100134819D02*
X33615238Y-100134819D01*
X33615238Y-100134819D02*
X33710476Y-100087200D01*
X33710476Y-100087200D02*
X33758095Y-100039580D01*
X33758095Y-100039580D02*
X33805714Y-99944342D01*
X33805714Y-99944342D02*
X33805714Y-99706247D01*
X33805714Y-99706247D02*
X33758095Y-99611009D01*
X33758095Y-99611009D02*
X33710476Y-99563390D01*
X33710476Y-99563390D02*
X33615238Y-99515771D01*
X33615238Y-99515771D02*
X33424762Y-99515771D01*
X33424762Y-99515771D02*
X33329524Y-99563390D01*
X33329524Y-99563390D02*
X33281905Y-99611009D01*
X33281905Y-99611009D02*
X33234286Y-99706247D01*
X27678095Y-100304819D02*
X27678095Y-99304819D01*
X28249523Y-100304819D02*
X27820952Y-99733390D01*
X28249523Y-99304819D02*
X27678095Y-99876247D01*
X50157142Y-68029819D02*
X49823809Y-67553628D01*
X49585714Y-68029819D02*
X49585714Y-67029819D01*
X49585714Y-67029819D02*
X49966666Y-67029819D01*
X49966666Y-67029819D02*
X50061904Y-67077438D01*
X50061904Y-67077438D02*
X50109523Y-67125057D01*
X50109523Y-67125057D02*
X50157142Y-67220295D01*
X50157142Y-67220295D02*
X50157142Y-67363152D01*
X50157142Y-67363152D02*
X50109523Y-67458390D01*
X50109523Y-67458390D02*
X50061904Y-67506009D01*
X50061904Y-67506009D02*
X49966666Y-67553628D01*
X49966666Y-67553628D02*
X49585714Y-67553628D01*
X51109523Y-68029819D02*
X50538095Y-68029819D01*
X50823809Y-68029819D02*
X50823809Y-67029819D01*
X50823809Y-67029819D02*
X50728571Y-67172676D01*
X50728571Y-67172676D02*
X50633333Y-67267914D01*
X50633333Y-67267914D02*
X50538095Y-67315533D01*
X51966666Y-67363152D02*
X51966666Y-68029819D01*
X51728571Y-66982200D02*
X51490476Y-67696485D01*
X51490476Y-67696485D02*
X52109523Y-67696485D01*
X50157142Y-113749819D02*
X49823809Y-113273628D01*
X49585714Y-113749819D02*
X49585714Y-112749819D01*
X49585714Y-112749819D02*
X49966666Y-112749819D01*
X49966666Y-112749819D02*
X50061904Y-112797438D01*
X50061904Y-112797438D02*
X50109523Y-112845057D01*
X50109523Y-112845057D02*
X50157142Y-112940295D01*
X50157142Y-112940295D02*
X50157142Y-113083152D01*
X50157142Y-113083152D02*
X50109523Y-113178390D01*
X50109523Y-113178390D02*
X50061904Y-113226009D01*
X50061904Y-113226009D02*
X49966666Y-113273628D01*
X49966666Y-113273628D02*
X49585714Y-113273628D01*
X51109523Y-113749819D02*
X50538095Y-113749819D01*
X50823809Y-113749819D02*
X50823809Y-112749819D01*
X50823809Y-112749819D02*
X50728571Y-112892676D01*
X50728571Y-112892676D02*
X50633333Y-112987914D01*
X50633333Y-112987914D02*
X50538095Y-113035533D01*
X51442857Y-112749819D02*
X52109523Y-112749819D01*
X52109523Y-112749819D02*
X51680952Y-113749819D01*
X17272381Y-132839819D02*
X17272381Y-131839819D01*
X17272381Y-131839819D02*
X17510476Y-131839819D01*
X17510476Y-131839819D02*
X17653333Y-131887438D01*
X17653333Y-131887438D02*
X17748571Y-131982676D01*
X17748571Y-131982676D02*
X17796190Y-132077914D01*
X17796190Y-132077914D02*
X17843809Y-132268390D01*
X17843809Y-132268390D02*
X17843809Y-132411247D01*
X17843809Y-132411247D02*
X17796190Y-132601723D01*
X17796190Y-132601723D02*
X17748571Y-132696961D01*
X17748571Y-132696961D02*
X17653333Y-132792200D01*
X17653333Y-132792200D02*
X17510476Y-132839819D01*
X17510476Y-132839819D02*
X17272381Y-132839819D01*
X18843809Y-132744580D02*
X18796190Y-132792200D01*
X18796190Y-132792200D02*
X18653333Y-132839819D01*
X18653333Y-132839819D02*
X18558095Y-132839819D01*
X18558095Y-132839819D02*
X18415238Y-132792200D01*
X18415238Y-132792200D02*
X18320000Y-132696961D01*
X18320000Y-132696961D02*
X18272381Y-132601723D01*
X18272381Y-132601723D02*
X18224762Y-132411247D01*
X18224762Y-132411247D02*
X18224762Y-132268390D01*
X18224762Y-132268390D02*
X18272381Y-132077914D01*
X18272381Y-132077914D02*
X18320000Y-131982676D01*
X18320000Y-131982676D02*
X18415238Y-131887438D01*
X18415238Y-131887438D02*
X18558095Y-131839819D01*
X18558095Y-131839819D02*
X18653333Y-131839819D01*
X18653333Y-131839819D02*
X18796190Y-131887438D01*
X18796190Y-131887438D02*
X18843809Y-131935057D01*
X19034286Y-132935057D02*
X19796190Y-132935057D01*
X20224762Y-131839819D02*
X20415238Y-131839819D01*
X20415238Y-131839819D02*
X20510476Y-131887438D01*
X20510476Y-131887438D02*
X20605714Y-131982676D01*
X20605714Y-131982676D02*
X20653333Y-132173152D01*
X20653333Y-132173152D02*
X20653333Y-132506485D01*
X20653333Y-132506485D02*
X20605714Y-132696961D01*
X20605714Y-132696961D02*
X20510476Y-132792200D01*
X20510476Y-132792200D02*
X20415238Y-132839819D01*
X20415238Y-132839819D02*
X20224762Y-132839819D01*
X20224762Y-132839819D02*
X20129524Y-132792200D01*
X20129524Y-132792200D02*
X20034286Y-132696961D01*
X20034286Y-132696961D02*
X19986667Y-132506485D01*
X19986667Y-132506485D02*
X19986667Y-132173152D01*
X19986667Y-132173152D02*
X20034286Y-131982676D01*
X20034286Y-131982676D02*
X20129524Y-131887438D01*
X20129524Y-131887438D02*
X20224762Y-131839819D01*
X21081905Y-131839819D02*
X21081905Y-132649342D01*
X21081905Y-132649342D02*
X21129524Y-132744580D01*
X21129524Y-132744580D02*
X21177143Y-132792200D01*
X21177143Y-132792200D02*
X21272381Y-132839819D01*
X21272381Y-132839819D02*
X21462857Y-132839819D01*
X21462857Y-132839819D02*
X21558095Y-132792200D01*
X21558095Y-132792200D02*
X21605714Y-132744580D01*
X21605714Y-132744580D02*
X21653333Y-132649342D01*
X21653333Y-132649342D02*
X21653333Y-131839819D01*
X21986667Y-131839819D02*
X22558095Y-131839819D01*
X22272381Y-132839819D02*
X22272381Y-131839819D01*
X23034286Y-132268390D02*
X22939048Y-132220771D01*
X22939048Y-132220771D02*
X22891429Y-132173152D01*
X22891429Y-132173152D02*
X22843810Y-132077914D01*
X22843810Y-132077914D02*
X22843810Y-132030295D01*
X22843810Y-132030295D02*
X22891429Y-131935057D01*
X22891429Y-131935057D02*
X22939048Y-131887438D01*
X22939048Y-131887438D02*
X23034286Y-131839819D01*
X23034286Y-131839819D02*
X23224762Y-131839819D01*
X23224762Y-131839819D02*
X23320000Y-131887438D01*
X23320000Y-131887438D02*
X23367619Y-131935057D01*
X23367619Y-131935057D02*
X23415238Y-132030295D01*
X23415238Y-132030295D02*
X23415238Y-132077914D01*
X23415238Y-132077914D02*
X23367619Y-132173152D01*
X23367619Y-132173152D02*
X23320000Y-132220771D01*
X23320000Y-132220771D02*
X23224762Y-132268390D01*
X23224762Y-132268390D02*
X23034286Y-132268390D01*
X23034286Y-132268390D02*
X22939048Y-132316009D01*
X22939048Y-132316009D02*
X22891429Y-132363628D01*
X22891429Y-132363628D02*
X22843810Y-132458866D01*
X22843810Y-132458866D02*
X22843810Y-132649342D01*
X22843810Y-132649342D02*
X22891429Y-132744580D01*
X22891429Y-132744580D02*
X22939048Y-132792200D01*
X22939048Y-132792200D02*
X23034286Y-132839819D01*
X23034286Y-132839819D02*
X23224762Y-132839819D01*
X23224762Y-132839819D02*
X23320000Y-132792200D01*
X23320000Y-132792200D02*
X23367619Y-132744580D01*
X23367619Y-132744580D02*
X23415238Y-132649342D01*
X23415238Y-132649342D02*
X23415238Y-132458866D01*
X23415238Y-132458866D02*
X23367619Y-132363628D01*
X23367619Y-132363628D02*
X23320000Y-132316009D01*
X23320000Y-132316009D02*
X23224762Y-132268390D01*
X16796190Y-163319819D02*
X16796190Y-162319819D01*
X16796190Y-162319819D02*
X17034285Y-162319819D01*
X17034285Y-162319819D02*
X17177142Y-162367438D01*
X17177142Y-162367438D02*
X17272380Y-162462676D01*
X17272380Y-162462676D02*
X17319999Y-162557914D01*
X17319999Y-162557914D02*
X17367618Y-162748390D01*
X17367618Y-162748390D02*
X17367618Y-162891247D01*
X17367618Y-162891247D02*
X17319999Y-163081723D01*
X17319999Y-163081723D02*
X17272380Y-163176961D01*
X17272380Y-163176961D02*
X17177142Y-163272200D01*
X17177142Y-163272200D02*
X17034285Y-163319819D01*
X17034285Y-163319819D02*
X16796190Y-163319819D01*
X18367618Y-163224580D02*
X18319999Y-163272200D01*
X18319999Y-163272200D02*
X18177142Y-163319819D01*
X18177142Y-163319819D02*
X18081904Y-163319819D01*
X18081904Y-163319819D02*
X17939047Y-163272200D01*
X17939047Y-163272200D02*
X17843809Y-163176961D01*
X17843809Y-163176961D02*
X17796190Y-163081723D01*
X17796190Y-163081723D02*
X17748571Y-162891247D01*
X17748571Y-162891247D02*
X17748571Y-162748390D01*
X17748571Y-162748390D02*
X17796190Y-162557914D01*
X17796190Y-162557914D02*
X17843809Y-162462676D01*
X17843809Y-162462676D02*
X17939047Y-162367438D01*
X17939047Y-162367438D02*
X18081904Y-162319819D01*
X18081904Y-162319819D02*
X18177142Y-162319819D01*
X18177142Y-162319819D02*
X18319999Y-162367438D01*
X18319999Y-162367438D02*
X18367618Y-162415057D01*
X18558095Y-163415057D02*
X19319999Y-163415057D01*
X19748571Y-162319819D02*
X19939047Y-162319819D01*
X19939047Y-162319819D02*
X20034285Y-162367438D01*
X20034285Y-162367438D02*
X20129523Y-162462676D01*
X20129523Y-162462676D02*
X20177142Y-162653152D01*
X20177142Y-162653152D02*
X20177142Y-162986485D01*
X20177142Y-162986485D02*
X20129523Y-163176961D01*
X20129523Y-163176961D02*
X20034285Y-163272200D01*
X20034285Y-163272200D02*
X19939047Y-163319819D01*
X19939047Y-163319819D02*
X19748571Y-163319819D01*
X19748571Y-163319819D02*
X19653333Y-163272200D01*
X19653333Y-163272200D02*
X19558095Y-163176961D01*
X19558095Y-163176961D02*
X19510476Y-162986485D01*
X19510476Y-162986485D02*
X19510476Y-162653152D01*
X19510476Y-162653152D02*
X19558095Y-162462676D01*
X19558095Y-162462676D02*
X19653333Y-162367438D01*
X19653333Y-162367438D02*
X19748571Y-162319819D01*
X20605714Y-162319819D02*
X20605714Y-163129342D01*
X20605714Y-163129342D02*
X20653333Y-163224580D01*
X20653333Y-163224580D02*
X20700952Y-163272200D01*
X20700952Y-163272200D02*
X20796190Y-163319819D01*
X20796190Y-163319819D02*
X20986666Y-163319819D01*
X20986666Y-163319819D02*
X21081904Y-163272200D01*
X21081904Y-163272200D02*
X21129523Y-163224580D01*
X21129523Y-163224580D02*
X21177142Y-163129342D01*
X21177142Y-163129342D02*
X21177142Y-162319819D01*
X21510476Y-162319819D02*
X22081904Y-162319819D01*
X21796190Y-163319819D02*
X21796190Y-162319819D01*
X22939047Y-163319819D02*
X22367619Y-163319819D01*
X22653333Y-163319819D02*
X22653333Y-162319819D01*
X22653333Y-162319819D02*
X22558095Y-162462676D01*
X22558095Y-162462676D02*
X22462857Y-162557914D01*
X22462857Y-162557914D02*
X22367619Y-162605533D01*
X23558095Y-162319819D02*
X23653333Y-162319819D01*
X23653333Y-162319819D02*
X23748571Y-162367438D01*
X23748571Y-162367438D02*
X23796190Y-162415057D01*
X23796190Y-162415057D02*
X23843809Y-162510295D01*
X23843809Y-162510295D02*
X23891428Y-162700771D01*
X23891428Y-162700771D02*
X23891428Y-162938866D01*
X23891428Y-162938866D02*
X23843809Y-163129342D01*
X23843809Y-163129342D02*
X23796190Y-163224580D01*
X23796190Y-163224580D02*
X23748571Y-163272200D01*
X23748571Y-163272200D02*
X23653333Y-163319819D01*
X23653333Y-163319819D02*
X23558095Y-163319819D01*
X23558095Y-163319819D02*
X23462857Y-163272200D01*
X23462857Y-163272200D02*
X23415238Y-163224580D01*
X23415238Y-163224580D02*
X23367619Y-163129342D01*
X23367619Y-163129342D02*
X23320000Y-162938866D01*
X23320000Y-162938866D02*
X23320000Y-162700771D01*
X23320000Y-162700771D02*
X23367619Y-162510295D01*
X23367619Y-162510295D02*
X23415238Y-162415057D01*
X23415238Y-162415057D02*
X23462857Y-162367438D01*
X23462857Y-162367438D02*
X23558095Y-162319819D01*
X50157142Y-98509819D02*
X49823809Y-98033628D01*
X49585714Y-98509819D02*
X49585714Y-97509819D01*
X49585714Y-97509819D02*
X49966666Y-97509819D01*
X49966666Y-97509819D02*
X50061904Y-97557438D01*
X50061904Y-97557438D02*
X50109523Y-97605057D01*
X50109523Y-97605057D02*
X50157142Y-97700295D01*
X50157142Y-97700295D02*
X50157142Y-97843152D01*
X50157142Y-97843152D02*
X50109523Y-97938390D01*
X50109523Y-97938390D02*
X50061904Y-97986009D01*
X50061904Y-97986009D02*
X49966666Y-98033628D01*
X49966666Y-98033628D02*
X49585714Y-98033628D01*
X51109523Y-98509819D02*
X50538095Y-98509819D01*
X50823809Y-98509819D02*
X50823809Y-97509819D01*
X50823809Y-97509819D02*
X50728571Y-97652676D01*
X50728571Y-97652676D02*
X50633333Y-97747914D01*
X50633333Y-97747914D02*
X50538095Y-97795533D01*
X51966666Y-97509819D02*
X51776190Y-97509819D01*
X51776190Y-97509819D02*
X51680952Y-97557438D01*
X51680952Y-97557438D02*
X51633333Y-97605057D01*
X51633333Y-97605057D02*
X51538095Y-97747914D01*
X51538095Y-97747914D02*
X51490476Y-97938390D01*
X51490476Y-97938390D02*
X51490476Y-98319342D01*
X51490476Y-98319342D02*
X51538095Y-98414580D01*
X51538095Y-98414580D02*
X51585714Y-98462200D01*
X51585714Y-98462200D02*
X51680952Y-98509819D01*
X51680952Y-98509819D02*
X51871428Y-98509819D01*
X51871428Y-98509819D02*
X51966666Y-98462200D01*
X51966666Y-98462200D02*
X52014285Y-98414580D01*
X52014285Y-98414580D02*
X52061904Y-98319342D01*
X52061904Y-98319342D02*
X52061904Y-98081247D01*
X52061904Y-98081247D02*
X52014285Y-97986009D01*
X52014285Y-97986009D02*
X51966666Y-97938390D01*
X51966666Y-97938390D02*
X51871428Y-97890771D01*
X51871428Y-97890771D02*
X51680952Y-97890771D01*
X51680952Y-97890771D02*
X51585714Y-97938390D01*
X51585714Y-97938390D02*
X51538095Y-97986009D01*
X51538095Y-97986009D02*
X51490476Y-98081247D01*
X32281905Y-115374819D02*
X32281905Y-114374819D01*
X32281905Y-114374819D02*
X32520000Y-114374819D01*
X32520000Y-114374819D02*
X32662857Y-114422438D01*
X32662857Y-114422438D02*
X32758095Y-114517676D01*
X32758095Y-114517676D02*
X32805714Y-114612914D01*
X32805714Y-114612914D02*
X32853333Y-114803390D01*
X32853333Y-114803390D02*
X32853333Y-114946247D01*
X32853333Y-114946247D02*
X32805714Y-115136723D01*
X32805714Y-115136723D02*
X32758095Y-115231961D01*
X32758095Y-115231961D02*
X32662857Y-115327200D01*
X32662857Y-115327200D02*
X32520000Y-115374819D01*
X32520000Y-115374819D02*
X32281905Y-115374819D01*
X33186667Y-114374819D02*
X33853333Y-114374819D01*
X33853333Y-114374819D02*
X33424762Y-115374819D01*
X27678095Y-115544819D02*
X27678095Y-114544819D01*
X28249523Y-115544819D02*
X27820952Y-114973390D01*
X28249523Y-114544819D02*
X27678095Y-115116247D01*
X50633333Y-93429819D02*
X50300000Y-92953628D01*
X50061905Y-93429819D02*
X50061905Y-92429819D01*
X50061905Y-92429819D02*
X50442857Y-92429819D01*
X50442857Y-92429819D02*
X50538095Y-92477438D01*
X50538095Y-92477438D02*
X50585714Y-92525057D01*
X50585714Y-92525057D02*
X50633333Y-92620295D01*
X50633333Y-92620295D02*
X50633333Y-92763152D01*
X50633333Y-92763152D02*
X50585714Y-92858390D01*
X50585714Y-92858390D02*
X50538095Y-92906009D01*
X50538095Y-92906009D02*
X50442857Y-92953628D01*
X50442857Y-92953628D02*
X50061905Y-92953628D01*
X51490476Y-92429819D02*
X51300000Y-92429819D01*
X51300000Y-92429819D02*
X51204762Y-92477438D01*
X51204762Y-92477438D02*
X51157143Y-92525057D01*
X51157143Y-92525057D02*
X51061905Y-92667914D01*
X51061905Y-92667914D02*
X51014286Y-92858390D01*
X51014286Y-92858390D02*
X51014286Y-93239342D01*
X51014286Y-93239342D02*
X51061905Y-93334580D01*
X51061905Y-93334580D02*
X51109524Y-93382200D01*
X51109524Y-93382200D02*
X51204762Y-93429819D01*
X51204762Y-93429819D02*
X51395238Y-93429819D01*
X51395238Y-93429819D02*
X51490476Y-93382200D01*
X51490476Y-93382200D02*
X51538095Y-93334580D01*
X51538095Y-93334580D02*
X51585714Y-93239342D01*
X51585714Y-93239342D02*
X51585714Y-93001247D01*
X51585714Y-93001247D02*
X51538095Y-92906009D01*
X51538095Y-92906009D02*
X51490476Y-92858390D01*
X51490476Y-92858390D02*
X51395238Y-92810771D01*
X51395238Y-92810771D02*
X51204762Y-92810771D01*
X51204762Y-92810771D02*
X51109524Y-92858390D01*
X51109524Y-92858390D02*
X51061905Y-92906009D01*
X51061905Y-92906009D02*
X51014286Y-93001247D01*
X32924761Y-123280057D02*
X32829523Y-123232438D01*
X32829523Y-123232438D02*
X32734285Y-123137200D01*
X32734285Y-123137200D02*
X32591428Y-122994342D01*
X32591428Y-122994342D02*
X32496190Y-122946723D01*
X32496190Y-122946723D02*
X32400952Y-122946723D01*
X32448571Y-123184819D02*
X32353333Y-123137200D01*
X32353333Y-123137200D02*
X32258095Y-123041961D01*
X32258095Y-123041961D02*
X32210476Y-122851485D01*
X32210476Y-122851485D02*
X32210476Y-122518152D01*
X32210476Y-122518152D02*
X32258095Y-122327676D01*
X32258095Y-122327676D02*
X32353333Y-122232438D01*
X32353333Y-122232438D02*
X32448571Y-122184819D01*
X32448571Y-122184819D02*
X32639047Y-122184819D01*
X32639047Y-122184819D02*
X32734285Y-122232438D01*
X32734285Y-122232438D02*
X32829523Y-122327676D01*
X32829523Y-122327676D02*
X32877142Y-122518152D01*
X32877142Y-122518152D02*
X32877142Y-122851485D01*
X32877142Y-122851485D02*
X32829523Y-123041961D01*
X32829523Y-123041961D02*
X32734285Y-123137200D01*
X32734285Y-123137200D02*
X32639047Y-123184819D01*
X32639047Y-123184819D02*
X32448571Y-123184819D01*
X33448571Y-122613390D02*
X33353333Y-122565771D01*
X33353333Y-122565771D02*
X33305714Y-122518152D01*
X33305714Y-122518152D02*
X33258095Y-122422914D01*
X33258095Y-122422914D02*
X33258095Y-122375295D01*
X33258095Y-122375295D02*
X33305714Y-122280057D01*
X33305714Y-122280057D02*
X33353333Y-122232438D01*
X33353333Y-122232438D02*
X33448571Y-122184819D01*
X33448571Y-122184819D02*
X33639047Y-122184819D01*
X33639047Y-122184819D02*
X33734285Y-122232438D01*
X33734285Y-122232438D02*
X33781904Y-122280057D01*
X33781904Y-122280057D02*
X33829523Y-122375295D01*
X33829523Y-122375295D02*
X33829523Y-122422914D01*
X33829523Y-122422914D02*
X33781904Y-122518152D01*
X33781904Y-122518152D02*
X33734285Y-122565771D01*
X33734285Y-122565771D02*
X33639047Y-122613390D01*
X33639047Y-122613390D02*
X33448571Y-122613390D01*
X33448571Y-122613390D02*
X33353333Y-122661009D01*
X33353333Y-122661009D02*
X33305714Y-122708628D01*
X33305714Y-122708628D02*
X33258095Y-122803866D01*
X33258095Y-122803866D02*
X33258095Y-122994342D01*
X33258095Y-122994342D02*
X33305714Y-123089580D01*
X33305714Y-123089580D02*
X33353333Y-123137200D01*
X33353333Y-123137200D02*
X33448571Y-123184819D01*
X33448571Y-123184819D02*
X33639047Y-123184819D01*
X33639047Y-123184819D02*
X33734285Y-123137200D01*
X33734285Y-123137200D02*
X33781904Y-123089580D01*
X33781904Y-123089580D02*
X33829523Y-122994342D01*
X33829523Y-122994342D02*
X33829523Y-122803866D01*
X33829523Y-122803866D02*
X33781904Y-122708628D01*
X33781904Y-122708628D02*
X33734285Y-122661009D01*
X33734285Y-122661009D02*
X33639047Y-122613390D01*
X17272381Y-56639819D02*
X17272381Y-55639819D01*
X17272381Y-55639819D02*
X17510476Y-55639819D01*
X17510476Y-55639819D02*
X17653333Y-55687438D01*
X17653333Y-55687438D02*
X17748571Y-55782676D01*
X17748571Y-55782676D02*
X17796190Y-55877914D01*
X17796190Y-55877914D02*
X17843809Y-56068390D01*
X17843809Y-56068390D02*
X17843809Y-56211247D01*
X17843809Y-56211247D02*
X17796190Y-56401723D01*
X17796190Y-56401723D02*
X17748571Y-56496961D01*
X17748571Y-56496961D02*
X17653333Y-56592200D01*
X17653333Y-56592200D02*
X17510476Y-56639819D01*
X17510476Y-56639819D02*
X17272381Y-56639819D01*
X18843809Y-56544580D02*
X18796190Y-56592200D01*
X18796190Y-56592200D02*
X18653333Y-56639819D01*
X18653333Y-56639819D02*
X18558095Y-56639819D01*
X18558095Y-56639819D02*
X18415238Y-56592200D01*
X18415238Y-56592200D02*
X18320000Y-56496961D01*
X18320000Y-56496961D02*
X18272381Y-56401723D01*
X18272381Y-56401723D02*
X18224762Y-56211247D01*
X18224762Y-56211247D02*
X18224762Y-56068390D01*
X18224762Y-56068390D02*
X18272381Y-55877914D01*
X18272381Y-55877914D02*
X18320000Y-55782676D01*
X18320000Y-55782676D02*
X18415238Y-55687438D01*
X18415238Y-55687438D02*
X18558095Y-55639819D01*
X18558095Y-55639819D02*
X18653333Y-55639819D01*
X18653333Y-55639819D02*
X18796190Y-55687438D01*
X18796190Y-55687438D02*
X18843809Y-55735057D01*
X19034286Y-56735057D02*
X19796190Y-56735057D01*
X20224762Y-55639819D02*
X20415238Y-55639819D01*
X20415238Y-55639819D02*
X20510476Y-55687438D01*
X20510476Y-55687438D02*
X20605714Y-55782676D01*
X20605714Y-55782676D02*
X20653333Y-55973152D01*
X20653333Y-55973152D02*
X20653333Y-56306485D01*
X20653333Y-56306485D02*
X20605714Y-56496961D01*
X20605714Y-56496961D02*
X20510476Y-56592200D01*
X20510476Y-56592200D02*
X20415238Y-56639819D01*
X20415238Y-56639819D02*
X20224762Y-56639819D01*
X20224762Y-56639819D02*
X20129524Y-56592200D01*
X20129524Y-56592200D02*
X20034286Y-56496961D01*
X20034286Y-56496961D02*
X19986667Y-56306485D01*
X19986667Y-56306485D02*
X19986667Y-55973152D01*
X19986667Y-55973152D02*
X20034286Y-55782676D01*
X20034286Y-55782676D02*
X20129524Y-55687438D01*
X20129524Y-55687438D02*
X20224762Y-55639819D01*
X21081905Y-55639819D02*
X21081905Y-56449342D01*
X21081905Y-56449342D02*
X21129524Y-56544580D01*
X21129524Y-56544580D02*
X21177143Y-56592200D01*
X21177143Y-56592200D02*
X21272381Y-56639819D01*
X21272381Y-56639819D02*
X21462857Y-56639819D01*
X21462857Y-56639819D02*
X21558095Y-56592200D01*
X21558095Y-56592200D02*
X21605714Y-56544580D01*
X21605714Y-56544580D02*
X21653333Y-56449342D01*
X21653333Y-56449342D02*
X21653333Y-55639819D01*
X21986667Y-55639819D02*
X22558095Y-55639819D01*
X22272381Y-56639819D02*
X22272381Y-55639819D01*
X22796191Y-55639819D02*
X23415238Y-55639819D01*
X23415238Y-55639819D02*
X23081905Y-56020771D01*
X23081905Y-56020771D02*
X23224762Y-56020771D01*
X23224762Y-56020771D02*
X23320000Y-56068390D01*
X23320000Y-56068390D02*
X23367619Y-56116009D01*
X23367619Y-56116009D02*
X23415238Y-56211247D01*
X23415238Y-56211247D02*
X23415238Y-56449342D01*
X23415238Y-56449342D02*
X23367619Y-56544580D01*
X23367619Y-56544580D02*
X23320000Y-56592200D01*
X23320000Y-56592200D02*
X23224762Y-56639819D01*
X23224762Y-56639819D02*
X22939048Y-56639819D01*
X22939048Y-56639819D02*
X22843810Y-56592200D01*
X22843810Y-56592200D02*
X22796191Y-56544580D01*
X50157142Y-128989819D02*
X49823809Y-128513628D01*
X49585714Y-128989819D02*
X49585714Y-127989819D01*
X49585714Y-127989819D02*
X49966666Y-127989819D01*
X49966666Y-127989819D02*
X50061904Y-128037438D01*
X50061904Y-128037438D02*
X50109523Y-128085057D01*
X50109523Y-128085057D02*
X50157142Y-128180295D01*
X50157142Y-128180295D02*
X50157142Y-128323152D01*
X50157142Y-128323152D02*
X50109523Y-128418390D01*
X50109523Y-128418390D02*
X50061904Y-128466009D01*
X50061904Y-128466009D02*
X49966666Y-128513628D01*
X49966666Y-128513628D02*
X49585714Y-128513628D01*
X51109523Y-128989819D02*
X50538095Y-128989819D01*
X50823809Y-128989819D02*
X50823809Y-127989819D01*
X50823809Y-127989819D02*
X50728571Y-128132676D01*
X50728571Y-128132676D02*
X50633333Y-128227914D01*
X50633333Y-128227914D02*
X50538095Y-128275533D01*
X51680952Y-128418390D02*
X51585714Y-128370771D01*
X51585714Y-128370771D02*
X51538095Y-128323152D01*
X51538095Y-128323152D02*
X51490476Y-128227914D01*
X51490476Y-128227914D02*
X51490476Y-128180295D01*
X51490476Y-128180295D02*
X51538095Y-128085057D01*
X51538095Y-128085057D02*
X51585714Y-128037438D01*
X51585714Y-128037438D02*
X51680952Y-127989819D01*
X51680952Y-127989819D02*
X51871428Y-127989819D01*
X51871428Y-127989819D02*
X51966666Y-128037438D01*
X51966666Y-128037438D02*
X52014285Y-128085057D01*
X52014285Y-128085057D02*
X52061904Y-128180295D01*
X52061904Y-128180295D02*
X52061904Y-128227914D01*
X52061904Y-128227914D02*
X52014285Y-128323152D01*
X52014285Y-128323152D02*
X51966666Y-128370771D01*
X51966666Y-128370771D02*
X51871428Y-128418390D01*
X51871428Y-128418390D02*
X51680952Y-128418390D01*
X51680952Y-128418390D02*
X51585714Y-128466009D01*
X51585714Y-128466009D02*
X51538095Y-128513628D01*
X51538095Y-128513628D02*
X51490476Y-128608866D01*
X51490476Y-128608866D02*
X51490476Y-128799342D01*
X51490476Y-128799342D02*
X51538095Y-128894580D01*
X51538095Y-128894580D02*
X51585714Y-128942200D01*
X51585714Y-128942200D02*
X51680952Y-128989819D01*
X51680952Y-128989819D02*
X51871428Y-128989819D01*
X51871428Y-128989819D02*
X51966666Y-128942200D01*
X51966666Y-128942200D02*
X52014285Y-128894580D01*
X52014285Y-128894580D02*
X52061904Y-128799342D01*
X52061904Y-128799342D02*
X52061904Y-128608866D01*
X52061904Y-128608866D02*
X52014285Y-128513628D01*
X52014285Y-128513628D02*
X51966666Y-128466009D01*
X51966666Y-128466009D02*
X51871428Y-128418390D01*
X50633333Y-62949819D02*
X50300000Y-62473628D01*
X50061905Y-62949819D02*
X50061905Y-61949819D01*
X50061905Y-61949819D02*
X50442857Y-61949819D01*
X50442857Y-61949819D02*
X50538095Y-61997438D01*
X50538095Y-61997438D02*
X50585714Y-62045057D01*
X50585714Y-62045057D02*
X50633333Y-62140295D01*
X50633333Y-62140295D02*
X50633333Y-62283152D01*
X50633333Y-62283152D02*
X50585714Y-62378390D01*
X50585714Y-62378390D02*
X50538095Y-62426009D01*
X50538095Y-62426009D02*
X50442857Y-62473628D01*
X50442857Y-62473628D02*
X50061905Y-62473628D01*
X51490476Y-62283152D02*
X51490476Y-62949819D01*
X51252381Y-61902200D02*
X51014286Y-62616485D01*
X51014286Y-62616485D02*
X51633333Y-62616485D01*
X66818095Y-17623866D02*
X67580000Y-17623866D01*
X67199047Y-18004819D02*
X67199047Y-17242914D01*
X68579999Y-18004819D02*
X68008571Y-18004819D01*
X68294285Y-18004819D02*
X68294285Y-17004819D01*
X68294285Y-17004819D02*
X68199047Y-17147676D01*
X68199047Y-17147676D02*
X68103809Y-17242914D01*
X68103809Y-17242914D02*
X68008571Y-17290533D01*
X69484761Y-17004819D02*
X69008571Y-17004819D01*
X69008571Y-17004819D02*
X68960952Y-17481009D01*
X68960952Y-17481009D02*
X69008571Y-17433390D01*
X69008571Y-17433390D02*
X69103809Y-17385771D01*
X69103809Y-17385771D02*
X69341904Y-17385771D01*
X69341904Y-17385771D02*
X69437142Y-17433390D01*
X69437142Y-17433390D02*
X69484761Y-17481009D01*
X69484761Y-17481009D02*
X69532380Y-17576247D01*
X69532380Y-17576247D02*
X69532380Y-17814342D01*
X69532380Y-17814342D02*
X69484761Y-17909580D01*
X69484761Y-17909580D02*
X69437142Y-17957200D01*
X69437142Y-17957200D02*
X69341904Y-18004819D01*
X69341904Y-18004819D02*
X69103809Y-18004819D01*
X69103809Y-18004819D02*
X69008571Y-17957200D01*
X69008571Y-17957200D02*
X68960952Y-17909580D01*
X69818095Y-17004819D02*
X70151428Y-18004819D01*
X70151428Y-18004819D02*
X70484761Y-17004819D01*
X32281905Y-84894819D02*
X32281905Y-83894819D01*
X32281905Y-83894819D02*
X32520000Y-83894819D01*
X32520000Y-83894819D02*
X32662857Y-83942438D01*
X32662857Y-83942438D02*
X32758095Y-84037676D01*
X32758095Y-84037676D02*
X32805714Y-84132914D01*
X32805714Y-84132914D02*
X32853333Y-84323390D01*
X32853333Y-84323390D02*
X32853333Y-84466247D01*
X32853333Y-84466247D02*
X32805714Y-84656723D01*
X32805714Y-84656723D02*
X32758095Y-84751961D01*
X32758095Y-84751961D02*
X32662857Y-84847200D01*
X32662857Y-84847200D02*
X32520000Y-84894819D01*
X32520000Y-84894819D02*
X32281905Y-84894819D01*
X33758095Y-83894819D02*
X33281905Y-83894819D01*
X33281905Y-83894819D02*
X33234286Y-84371009D01*
X33234286Y-84371009D02*
X33281905Y-84323390D01*
X33281905Y-84323390D02*
X33377143Y-84275771D01*
X33377143Y-84275771D02*
X33615238Y-84275771D01*
X33615238Y-84275771D02*
X33710476Y-84323390D01*
X33710476Y-84323390D02*
X33758095Y-84371009D01*
X33758095Y-84371009D02*
X33805714Y-84466247D01*
X33805714Y-84466247D02*
X33805714Y-84704342D01*
X33805714Y-84704342D02*
X33758095Y-84799580D01*
X33758095Y-84799580D02*
X33710476Y-84847200D01*
X33710476Y-84847200D02*
X33615238Y-84894819D01*
X33615238Y-84894819D02*
X33377143Y-84894819D01*
X33377143Y-84894819D02*
X33281905Y-84847200D01*
X33281905Y-84847200D02*
X33234286Y-84799580D01*
X27678095Y-85064819D02*
X27678095Y-84064819D01*
X28249523Y-85064819D02*
X27820952Y-84493390D01*
X28249523Y-84064819D02*
X27678095Y-84636247D01*
X32924761Y-108040057D02*
X32829523Y-107992438D01*
X32829523Y-107992438D02*
X32734285Y-107897200D01*
X32734285Y-107897200D02*
X32591428Y-107754342D01*
X32591428Y-107754342D02*
X32496190Y-107706723D01*
X32496190Y-107706723D02*
X32400952Y-107706723D01*
X32448571Y-107944819D02*
X32353333Y-107897200D01*
X32353333Y-107897200D02*
X32258095Y-107801961D01*
X32258095Y-107801961D02*
X32210476Y-107611485D01*
X32210476Y-107611485D02*
X32210476Y-107278152D01*
X32210476Y-107278152D02*
X32258095Y-107087676D01*
X32258095Y-107087676D02*
X32353333Y-106992438D01*
X32353333Y-106992438D02*
X32448571Y-106944819D01*
X32448571Y-106944819D02*
X32639047Y-106944819D01*
X32639047Y-106944819D02*
X32734285Y-106992438D01*
X32734285Y-106992438D02*
X32829523Y-107087676D01*
X32829523Y-107087676D02*
X32877142Y-107278152D01*
X32877142Y-107278152D02*
X32877142Y-107611485D01*
X32877142Y-107611485D02*
X32829523Y-107801961D01*
X32829523Y-107801961D02*
X32734285Y-107897200D01*
X32734285Y-107897200D02*
X32639047Y-107944819D01*
X32639047Y-107944819D02*
X32448571Y-107944819D01*
X33210476Y-106944819D02*
X33877142Y-106944819D01*
X33877142Y-106944819D02*
X33448571Y-107944819D01*
X70794819Y-58601904D02*
X71604342Y-58601904D01*
X71604342Y-58601904D02*
X71699580Y-58554285D01*
X71699580Y-58554285D02*
X71747200Y-58506666D01*
X71747200Y-58506666D02*
X71794819Y-58411428D01*
X71794819Y-58411428D02*
X71794819Y-58220952D01*
X71794819Y-58220952D02*
X71747200Y-58125714D01*
X71747200Y-58125714D02*
X71699580Y-58078095D01*
X71699580Y-58078095D02*
X71604342Y-58030476D01*
X71604342Y-58030476D02*
X70794819Y-58030476D01*
X70890057Y-57601904D02*
X70842438Y-57554285D01*
X70842438Y-57554285D02*
X70794819Y-57459047D01*
X70794819Y-57459047D02*
X70794819Y-57220952D01*
X70794819Y-57220952D02*
X70842438Y-57125714D01*
X70842438Y-57125714D02*
X70890057Y-57078095D01*
X70890057Y-57078095D02*
X70985295Y-57030476D01*
X70985295Y-57030476D02*
X71080533Y-57030476D01*
X71080533Y-57030476D02*
X71223390Y-57078095D01*
X71223390Y-57078095D02*
X71794819Y-57649523D01*
X71794819Y-57649523D02*
X71794819Y-57030476D01*
X17272381Y-102359819D02*
X17272381Y-101359819D01*
X17272381Y-101359819D02*
X17510476Y-101359819D01*
X17510476Y-101359819D02*
X17653333Y-101407438D01*
X17653333Y-101407438D02*
X17748571Y-101502676D01*
X17748571Y-101502676D02*
X17796190Y-101597914D01*
X17796190Y-101597914D02*
X17843809Y-101788390D01*
X17843809Y-101788390D02*
X17843809Y-101931247D01*
X17843809Y-101931247D02*
X17796190Y-102121723D01*
X17796190Y-102121723D02*
X17748571Y-102216961D01*
X17748571Y-102216961D02*
X17653333Y-102312200D01*
X17653333Y-102312200D02*
X17510476Y-102359819D01*
X17510476Y-102359819D02*
X17272381Y-102359819D01*
X18843809Y-102264580D02*
X18796190Y-102312200D01*
X18796190Y-102312200D02*
X18653333Y-102359819D01*
X18653333Y-102359819D02*
X18558095Y-102359819D01*
X18558095Y-102359819D02*
X18415238Y-102312200D01*
X18415238Y-102312200D02*
X18320000Y-102216961D01*
X18320000Y-102216961D02*
X18272381Y-102121723D01*
X18272381Y-102121723D02*
X18224762Y-101931247D01*
X18224762Y-101931247D02*
X18224762Y-101788390D01*
X18224762Y-101788390D02*
X18272381Y-101597914D01*
X18272381Y-101597914D02*
X18320000Y-101502676D01*
X18320000Y-101502676D02*
X18415238Y-101407438D01*
X18415238Y-101407438D02*
X18558095Y-101359819D01*
X18558095Y-101359819D02*
X18653333Y-101359819D01*
X18653333Y-101359819D02*
X18796190Y-101407438D01*
X18796190Y-101407438D02*
X18843809Y-101455057D01*
X19034286Y-102455057D02*
X19796190Y-102455057D01*
X20224762Y-101359819D02*
X20415238Y-101359819D01*
X20415238Y-101359819D02*
X20510476Y-101407438D01*
X20510476Y-101407438D02*
X20605714Y-101502676D01*
X20605714Y-101502676D02*
X20653333Y-101693152D01*
X20653333Y-101693152D02*
X20653333Y-102026485D01*
X20653333Y-102026485D02*
X20605714Y-102216961D01*
X20605714Y-102216961D02*
X20510476Y-102312200D01*
X20510476Y-102312200D02*
X20415238Y-102359819D01*
X20415238Y-102359819D02*
X20224762Y-102359819D01*
X20224762Y-102359819D02*
X20129524Y-102312200D01*
X20129524Y-102312200D02*
X20034286Y-102216961D01*
X20034286Y-102216961D02*
X19986667Y-102026485D01*
X19986667Y-102026485D02*
X19986667Y-101693152D01*
X19986667Y-101693152D02*
X20034286Y-101502676D01*
X20034286Y-101502676D02*
X20129524Y-101407438D01*
X20129524Y-101407438D02*
X20224762Y-101359819D01*
X21081905Y-101359819D02*
X21081905Y-102169342D01*
X21081905Y-102169342D02*
X21129524Y-102264580D01*
X21129524Y-102264580D02*
X21177143Y-102312200D01*
X21177143Y-102312200D02*
X21272381Y-102359819D01*
X21272381Y-102359819D02*
X21462857Y-102359819D01*
X21462857Y-102359819D02*
X21558095Y-102312200D01*
X21558095Y-102312200D02*
X21605714Y-102264580D01*
X21605714Y-102264580D02*
X21653333Y-102169342D01*
X21653333Y-102169342D02*
X21653333Y-101359819D01*
X21986667Y-101359819D02*
X22558095Y-101359819D01*
X22272381Y-102359819D02*
X22272381Y-101359819D01*
X23320000Y-101359819D02*
X23129524Y-101359819D01*
X23129524Y-101359819D02*
X23034286Y-101407438D01*
X23034286Y-101407438D02*
X22986667Y-101455057D01*
X22986667Y-101455057D02*
X22891429Y-101597914D01*
X22891429Y-101597914D02*
X22843810Y-101788390D01*
X22843810Y-101788390D02*
X22843810Y-102169342D01*
X22843810Y-102169342D02*
X22891429Y-102264580D01*
X22891429Y-102264580D02*
X22939048Y-102312200D01*
X22939048Y-102312200D02*
X23034286Y-102359819D01*
X23034286Y-102359819D02*
X23224762Y-102359819D01*
X23224762Y-102359819D02*
X23320000Y-102312200D01*
X23320000Y-102312200D02*
X23367619Y-102264580D01*
X23367619Y-102264580D02*
X23415238Y-102169342D01*
X23415238Y-102169342D02*
X23415238Y-101931247D01*
X23415238Y-101931247D02*
X23367619Y-101836009D01*
X23367619Y-101836009D02*
X23320000Y-101788390D01*
X23320000Y-101788390D02*
X23224762Y-101740771D01*
X23224762Y-101740771D02*
X23034286Y-101740771D01*
X23034286Y-101740771D02*
X22939048Y-101788390D01*
X22939048Y-101788390D02*
X22891429Y-101836009D01*
X22891429Y-101836009D02*
X22843810Y-101931247D01*
X17272381Y-71879819D02*
X17272381Y-70879819D01*
X17272381Y-70879819D02*
X17510476Y-70879819D01*
X17510476Y-70879819D02*
X17653333Y-70927438D01*
X17653333Y-70927438D02*
X17748571Y-71022676D01*
X17748571Y-71022676D02*
X17796190Y-71117914D01*
X17796190Y-71117914D02*
X17843809Y-71308390D01*
X17843809Y-71308390D02*
X17843809Y-71451247D01*
X17843809Y-71451247D02*
X17796190Y-71641723D01*
X17796190Y-71641723D02*
X17748571Y-71736961D01*
X17748571Y-71736961D02*
X17653333Y-71832200D01*
X17653333Y-71832200D02*
X17510476Y-71879819D01*
X17510476Y-71879819D02*
X17272381Y-71879819D01*
X18843809Y-71784580D02*
X18796190Y-71832200D01*
X18796190Y-71832200D02*
X18653333Y-71879819D01*
X18653333Y-71879819D02*
X18558095Y-71879819D01*
X18558095Y-71879819D02*
X18415238Y-71832200D01*
X18415238Y-71832200D02*
X18320000Y-71736961D01*
X18320000Y-71736961D02*
X18272381Y-71641723D01*
X18272381Y-71641723D02*
X18224762Y-71451247D01*
X18224762Y-71451247D02*
X18224762Y-71308390D01*
X18224762Y-71308390D02*
X18272381Y-71117914D01*
X18272381Y-71117914D02*
X18320000Y-71022676D01*
X18320000Y-71022676D02*
X18415238Y-70927438D01*
X18415238Y-70927438D02*
X18558095Y-70879819D01*
X18558095Y-70879819D02*
X18653333Y-70879819D01*
X18653333Y-70879819D02*
X18796190Y-70927438D01*
X18796190Y-70927438D02*
X18843809Y-70975057D01*
X19034286Y-71975057D02*
X19796190Y-71975057D01*
X20224762Y-70879819D02*
X20415238Y-70879819D01*
X20415238Y-70879819D02*
X20510476Y-70927438D01*
X20510476Y-70927438D02*
X20605714Y-71022676D01*
X20605714Y-71022676D02*
X20653333Y-71213152D01*
X20653333Y-71213152D02*
X20653333Y-71546485D01*
X20653333Y-71546485D02*
X20605714Y-71736961D01*
X20605714Y-71736961D02*
X20510476Y-71832200D01*
X20510476Y-71832200D02*
X20415238Y-71879819D01*
X20415238Y-71879819D02*
X20224762Y-71879819D01*
X20224762Y-71879819D02*
X20129524Y-71832200D01*
X20129524Y-71832200D02*
X20034286Y-71736961D01*
X20034286Y-71736961D02*
X19986667Y-71546485D01*
X19986667Y-71546485D02*
X19986667Y-71213152D01*
X19986667Y-71213152D02*
X20034286Y-71022676D01*
X20034286Y-71022676D02*
X20129524Y-70927438D01*
X20129524Y-70927438D02*
X20224762Y-70879819D01*
X21081905Y-70879819D02*
X21081905Y-71689342D01*
X21081905Y-71689342D02*
X21129524Y-71784580D01*
X21129524Y-71784580D02*
X21177143Y-71832200D01*
X21177143Y-71832200D02*
X21272381Y-71879819D01*
X21272381Y-71879819D02*
X21462857Y-71879819D01*
X21462857Y-71879819D02*
X21558095Y-71832200D01*
X21558095Y-71832200D02*
X21605714Y-71784580D01*
X21605714Y-71784580D02*
X21653333Y-71689342D01*
X21653333Y-71689342D02*
X21653333Y-70879819D01*
X21986667Y-70879819D02*
X22558095Y-70879819D01*
X22272381Y-71879819D02*
X22272381Y-70879819D01*
X23320000Y-71213152D02*
X23320000Y-71879819D01*
X23081905Y-70832200D02*
X22843810Y-71546485D01*
X22843810Y-71546485D02*
X23462857Y-71546485D01*
X50633333Y-47709819D02*
X50300000Y-47233628D01*
X50061905Y-47709819D02*
X50061905Y-46709819D01*
X50061905Y-46709819D02*
X50442857Y-46709819D01*
X50442857Y-46709819D02*
X50538095Y-46757438D01*
X50538095Y-46757438D02*
X50585714Y-46805057D01*
X50585714Y-46805057D02*
X50633333Y-46900295D01*
X50633333Y-46900295D02*
X50633333Y-47043152D01*
X50633333Y-47043152D02*
X50585714Y-47138390D01*
X50585714Y-47138390D02*
X50538095Y-47186009D01*
X50538095Y-47186009D02*
X50442857Y-47233628D01*
X50442857Y-47233628D02*
X50061905Y-47233628D01*
X50966667Y-46709819D02*
X51585714Y-46709819D01*
X51585714Y-46709819D02*
X51252381Y-47090771D01*
X51252381Y-47090771D02*
X51395238Y-47090771D01*
X51395238Y-47090771D02*
X51490476Y-47138390D01*
X51490476Y-47138390D02*
X51538095Y-47186009D01*
X51538095Y-47186009D02*
X51585714Y-47281247D01*
X51585714Y-47281247D02*
X51585714Y-47519342D01*
X51585714Y-47519342D02*
X51538095Y-47614580D01*
X51538095Y-47614580D02*
X51490476Y-47662200D01*
X51490476Y-47662200D02*
X51395238Y-47709819D01*
X51395238Y-47709819D02*
X51109524Y-47709819D01*
X51109524Y-47709819D02*
X51014286Y-47662200D01*
X51014286Y-47662200D02*
X50966667Y-47614580D01*
X50633333Y-78189819D02*
X50300000Y-77713628D01*
X50061905Y-78189819D02*
X50061905Y-77189819D01*
X50061905Y-77189819D02*
X50442857Y-77189819D01*
X50442857Y-77189819D02*
X50538095Y-77237438D01*
X50538095Y-77237438D02*
X50585714Y-77285057D01*
X50585714Y-77285057D02*
X50633333Y-77380295D01*
X50633333Y-77380295D02*
X50633333Y-77523152D01*
X50633333Y-77523152D02*
X50585714Y-77618390D01*
X50585714Y-77618390D02*
X50538095Y-77666009D01*
X50538095Y-77666009D02*
X50442857Y-77713628D01*
X50442857Y-77713628D02*
X50061905Y-77713628D01*
X51538095Y-77189819D02*
X51061905Y-77189819D01*
X51061905Y-77189819D02*
X51014286Y-77666009D01*
X51014286Y-77666009D02*
X51061905Y-77618390D01*
X51061905Y-77618390D02*
X51157143Y-77570771D01*
X51157143Y-77570771D02*
X51395238Y-77570771D01*
X51395238Y-77570771D02*
X51490476Y-77618390D01*
X51490476Y-77618390D02*
X51538095Y-77666009D01*
X51538095Y-77666009D02*
X51585714Y-77761247D01*
X51585714Y-77761247D02*
X51585714Y-77999342D01*
X51585714Y-77999342D02*
X51538095Y-78094580D01*
X51538095Y-78094580D02*
X51490476Y-78142200D01*
X51490476Y-78142200D02*
X51395238Y-78189819D01*
X51395238Y-78189819D02*
X51157143Y-78189819D01*
X51157143Y-78189819D02*
X51061905Y-78142200D01*
X51061905Y-78142200D02*
X51014286Y-78094580D01*
X50633333Y-139149819D02*
X50300000Y-138673628D01*
X50061905Y-139149819D02*
X50061905Y-138149819D01*
X50061905Y-138149819D02*
X50442857Y-138149819D01*
X50442857Y-138149819D02*
X50538095Y-138197438D01*
X50538095Y-138197438D02*
X50585714Y-138245057D01*
X50585714Y-138245057D02*
X50633333Y-138340295D01*
X50633333Y-138340295D02*
X50633333Y-138483152D01*
X50633333Y-138483152D02*
X50585714Y-138578390D01*
X50585714Y-138578390D02*
X50538095Y-138626009D01*
X50538095Y-138626009D02*
X50442857Y-138673628D01*
X50442857Y-138673628D02*
X50061905Y-138673628D01*
X51109524Y-139149819D02*
X51300000Y-139149819D01*
X51300000Y-139149819D02*
X51395238Y-139102200D01*
X51395238Y-139102200D02*
X51442857Y-139054580D01*
X51442857Y-139054580D02*
X51538095Y-138911723D01*
X51538095Y-138911723D02*
X51585714Y-138721247D01*
X51585714Y-138721247D02*
X51585714Y-138340295D01*
X51585714Y-138340295D02*
X51538095Y-138245057D01*
X51538095Y-138245057D02*
X51490476Y-138197438D01*
X51490476Y-138197438D02*
X51395238Y-138149819D01*
X51395238Y-138149819D02*
X51204762Y-138149819D01*
X51204762Y-138149819D02*
X51109524Y-138197438D01*
X51109524Y-138197438D02*
X51061905Y-138245057D01*
X51061905Y-138245057D02*
X51014286Y-138340295D01*
X51014286Y-138340295D02*
X51014286Y-138578390D01*
X51014286Y-138578390D02*
X51061905Y-138673628D01*
X51061905Y-138673628D02*
X51109524Y-138721247D01*
X51109524Y-138721247D02*
X51204762Y-138768866D01*
X51204762Y-138768866D02*
X51395238Y-138768866D01*
X51395238Y-138768866D02*
X51490476Y-138721247D01*
X51490476Y-138721247D02*
X51538095Y-138673628D01*
X51538095Y-138673628D02*
X51585714Y-138578390D01*
X32924761Y-138520057D02*
X32829523Y-138472438D01*
X32829523Y-138472438D02*
X32734285Y-138377200D01*
X32734285Y-138377200D02*
X32591428Y-138234342D01*
X32591428Y-138234342D02*
X32496190Y-138186723D01*
X32496190Y-138186723D02*
X32400952Y-138186723D01*
X32448571Y-138424819D02*
X32353333Y-138377200D01*
X32353333Y-138377200D02*
X32258095Y-138281961D01*
X32258095Y-138281961D02*
X32210476Y-138091485D01*
X32210476Y-138091485D02*
X32210476Y-137758152D01*
X32210476Y-137758152D02*
X32258095Y-137567676D01*
X32258095Y-137567676D02*
X32353333Y-137472438D01*
X32353333Y-137472438D02*
X32448571Y-137424819D01*
X32448571Y-137424819D02*
X32639047Y-137424819D01*
X32639047Y-137424819D02*
X32734285Y-137472438D01*
X32734285Y-137472438D02*
X32829523Y-137567676D01*
X32829523Y-137567676D02*
X32877142Y-137758152D01*
X32877142Y-137758152D02*
X32877142Y-138091485D01*
X32877142Y-138091485D02*
X32829523Y-138281961D01*
X32829523Y-138281961D02*
X32734285Y-138377200D01*
X32734285Y-138377200D02*
X32639047Y-138424819D01*
X32639047Y-138424819D02*
X32448571Y-138424819D01*
X33353333Y-138424819D02*
X33543809Y-138424819D01*
X33543809Y-138424819D02*
X33639047Y-138377200D01*
X33639047Y-138377200D02*
X33686666Y-138329580D01*
X33686666Y-138329580D02*
X33781904Y-138186723D01*
X33781904Y-138186723D02*
X33829523Y-137996247D01*
X33829523Y-137996247D02*
X33829523Y-137615295D01*
X33829523Y-137615295D02*
X33781904Y-137520057D01*
X33781904Y-137520057D02*
X33734285Y-137472438D01*
X33734285Y-137472438D02*
X33639047Y-137424819D01*
X33639047Y-137424819D02*
X33448571Y-137424819D01*
X33448571Y-137424819D02*
X33353333Y-137472438D01*
X33353333Y-137472438D02*
X33305714Y-137520057D01*
X33305714Y-137520057D02*
X33258095Y-137615295D01*
X33258095Y-137615295D02*
X33258095Y-137853390D01*
X33258095Y-137853390D02*
X33305714Y-137948628D01*
X33305714Y-137948628D02*
X33353333Y-137996247D01*
X33353333Y-137996247D02*
X33448571Y-138043866D01*
X33448571Y-138043866D02*
X33639047Y-138043866D01*
X33639047Y-138043866D02*
X33734285Y-137996247D01*
X33734285Y-137996247D02*
X33781904Y-137948628D01*
X33781904Y-137948628D02*
X33829523Y-137853390D01*
X50157142Y-144229819D02*
X49823809Y-143753628D01*
X49585714Y-144229819D02*
X49585714Y-143229819D01*
X49585714Y-143229819D02*
X49966666Y-143229819D01*
X49966666Y-143229819D02*
X50061904Y-143277438D01*
X50061904Y-143277438D02*
X50109523Y-143325057D01*
X50109523Y-143325057D02*
X50157142Y-143420295D01*
X50157142Y-143420295D02*
X50157142Y-143563152D01*
X50157142Y-143563152D02*
X50109523Y-143658390D01*
X50109523Y-143658390D02*
X50061904Y-143706009D01*
X50061904Y-143706009D02*
X49966666Y-143753628D01*
X49966666Y-143753628D02*
X49585714Y-143753628D01*
X51109523Y-144229819D02*
X50538095Y-144229819D01*
X50823809Y-144229819D02*
X50823809Y-143229819D01*
X50823809Y-143229819D02*
X50728571Y-143372676D01*
X50728571Y-143372676D02*
X50633333Y-143467914D01*
X50633333Y-143467914D02*
X50538095Y-143515533D01*
X51585714Y-144229819D02*
X51776190Y-144229819D01*
X51776190Y-144229819D02*
X51871428Y-144182200D01*
X51871428Y-144182200D02*
X51919047Y-144134580D01*
X51919047Y-144134580D02*
X52014285Y-143991723D01*
X52014285Y-143991723D02*
X52061904Y-143801247D01*
X52061904Y-143801247D02*
X52061904Y-143420295D01*
X52061904Y-143420295D02*
X52014285Y-143325057D01*
X52014285Y-143325057D02*
X51966666Y-143277438D01*
X51966666Y-143277438D02*
X51871428Y-143229819D01*
X51871428Y-143229819D02*
X51680952Y-143229819D01*
X51680952Y-143229819D02*
X51585714Y-143277438D01*
X51585714Y-143277438D02*
X51538095Y-143325057D01*
X51538095Y-143325057D02*
X51490476Y-143420295D01*
X51490476Y-143420295D02*
X51490476Y-143658390D01*
X51490476Y-143658390D02*
X51538095Y-143753628D01*
X51538095Y-143753628D02*
X51585714Y-143801247D01*
X51585714Y-143801247D02*
X51680952Y-143848866D01*
X51680952Y-143848866D02*
X51871428Y-143848866D01*
X51871428Y-143848866D02*
X51966666Y-143801247D01*
X51966666Y-143801247D02*
X52014285Y-143753628D01*
X52014285Y-143753628D02*
X52061904Y-143658390D01*
X32281905Y-54414819D02*
X32281905Y-53414819D01*
X32281905Y-53414819D02*
X32520000Y-53414819D01*
X32520000Y-53414819D02*
X32662857Y-53462438D01*
X32662857Y-53462438D02*
X32758095Y-53557676D01*
X32758095Y-53557676D02*
X32805714Y-53652914D01*
X32805714Y-53652914D02*
X32853333Y-53843390D01*
X32853333Y-53843390D02*
X32853333Y-53986247D01*
X32853333Y-53986247D02*
X32805714Y-54176723D01*
X32805714Y-54176723D02*
X32758095Y-54271961D01*
X32758095Y-54271961D02*
X32662857Y-54367200D01*
X32662857Y-54367200D02*
X32520000Y-54414819D01*
X32520000Y-54414819D02*
X32281905Y-54414819D01*
X33186667Y-53414819D02*
X33805714Y-53414819D01*
X33805714Y-53414819D02*
X33472381Y-53795771D01*
X33472381Y-53795771D02*
X33615238Y-53795771D01*
X33615238Y-53795771D02*
X33710476Y-53843390D01*
X33710476Y-53843390D02*
X33758095Y-53891009D01*
X33758095Y-53891009D02*
X33805714Y-53986247D01*
X33805714Y-53986247D02*
X33805714Y-54224342D01*
X33805714Y-54224342D02*
X33758095Y-54319580D01*
X33758095Y-54319580D02*
X33710476Y-54367200D01*
X33710476Y-54367200D02*
X33615238Y-54414819D01*
X33615238Y-54414819D02*
X33329524Y-54414819D01*
X33329524Y-54414819D02*
X33234286Y-54367200D01*
X33234286Y-54367200D02*
X33186667Y-54319580D01*
X27678095Y-54584819D02*
X27678095Y-53584819D01*
X28249523Y-54584819D02*
X27820952Y-54013390D01*
X28249523Y-53584819D02*
X27678095Y-54156247D01*
X32924761Y-92800057D02*
X32829523Y-92752438D01*
X32829523Y-92752438D02*
X32734285Y-92657200D01*
X32734285Y-92657200D02*
X32591428Y-92514342D01*
X32591428Y-92514342D02*
X32496190Y-92466723D01*
X32496190Y-92466723D02*
X32400952Y-92466723D01*
X32448571Y-92704819D02*
X32353333Y-92657200D01*
X32353333Y-92657200D02*
X32258095Y-92561961D01*
X32258095Y-92561961D02*
X32210476Y-92371485D01*
X32210476Y-92371485D02*
X32210476Y-92038152D01*
X32210476Y-92038152D02*
X32258095Y-91847676D01*
X32258095Y-91847676D02*
X32353333Y-91752438D01*
X32353333Y-91752438D02*
X32448571Y-91704819D01*
X32448571Y-91704819D02*
X32639047Y-91704819D01*
X32639047Y-91704819D02*
X32734285Y-91752438D01*
X32734285Y-91752438D02*
X32829523Y-91847676D01*
X32829523Y-91847676D02*
X32877142Y-92038152D01*
X32877142Y-92038152D02*
X32877142Y-92371485D01*
X32877142Y-92371485D02*
X32829523Y-92561961D01*
X32829523Y-92561961D02*
X32734285Y-92657200D01*
X32734285Y-92657200D02*
X32639047Y-92704819D01*
X32639047Y-92704819D02*
X32448571Y-92704819D01*
X33734285Y-91704819D02*
X33543809Y-91704819D01*
X33543809Y-91704819D02*
X33448571Y-91752438D01*
X33448571Y-91752438D02*
X33400952Y-91800057D01*
X33400952Y-91800057D02*
X33305714Y-91942914D01*
X33305714Y-91942914D02*
X33258095Y-92133390D01*
X33258095Y-92133390D02*
X33258095Y-92514342D01*
X33258095Y-92514342D02*
X33305714Y-92609580D01*
X33305714Y-92609580D02*
X33353333Y-92657200D01*
X33353333Y-92657200D02*
X33448571Y-92704819D01*
X33448571Y-92704819D02*
X33639047Y-92704819D01*
X33639047Y-92704819D02*
X33734285Y-92657200D01*
X33734285Y-92657200D02*
X33781904Y-92609580D01*
X33781904Y-92609580D02*
X33829523Y-92514342D01*
X33829523Y-92514342D02*
X33829523Y-92276247D01*
X33829523Y-92276247D02*
X33781904Y-92181009D01*
X33781904Y-92181009D02*
X33734285Y-92133390D01*
X33734285Y-92133390D02*
X33639047Y-92085771D01*
X33639047Y-92085771D02*
X33448571Y-92085771D01*
X33448571Y-92085771D02*
X33353333Y-92133390D01*
X33353333Y-92133390D02*
X33305714Y-92181009D01*
X33305714Y-92181009D02*
X33258095Y-92276247D01*
X32281905Y-145854819D02*
X32281905Y-144854819D01*
X32281905Y-144854819D02*
X32520000Y-144854819D01*
X32520000Y-144854819D02*
X32662857Y-144902438D01*
X32662857Y-144902438D02*
X32758095Y-144997676D01*
X32758095Y-144997676D02*
X32805714Y-145092914D01*
X32805714Y-145092914D02*
X32853333Y-145283390D01*
X32853333Y-145283390D02*
X32853333Y-145426247D01*
X32853333Y-145426247D02*
X32805714Y-145616723D01*
X32805714Y-145616723D02*
X32758095Y-145711961D01*
X32758095Y-145711961D02*
X32662857Y-145807200D01*
X32662857Y-145807200D02*
X32520000Y-145854819D01*
X32520000Y-145854819D02*
X32281905Y-145854819D01*
X33329524Y-145854819D02*
X33520000Y-145854819D01*
X33520000Y-145854819D02*
X33615238Y-145807200D01*
X33615238Y-145807200D02*
X33662857Y-145759580D01*
X33662857Y-145759580D02*
X33758095Y-145616723D01*
X33758095Y-145616723D02*
X33805714Y-145426247D01*
X33805714Y-145426247D02*
X33805714Y-145045295D01*
X33805714Y-145045295D02*
X33758095Y-144950057D01*
X33758095Y-144950057D02*
X33710476Y-144902438D01*
X33710476Y-144902438D02*
X33615238Y-144854819D01*
X33615238Y-144854819D02*
X33424762Y-144854819D01*
X33424762Y-144854819D02*
X33329524Y-144902438D01*
X33329524Y-144902438D02*
X33281905Y-144950057D01*
X33281905Y-144950057D02*
X33234286Y-145045295D01*
X33234286Y-145045295D02*
X33234286Y-145283390D01*
X33234286Y-145283390D02*
X33281905Y-145378628D01*
X33281905Y-145378628D02*
X33329524Y-145426247D01*
X33329524Y-145426247D02*
X33424762Y-145473866D01*
X33424762Y-145473866D02*
X33615238Y-145473866D01*
X33615238Y-145473866D02*
X33710476Y-145426247D01*
X33710476Y-145426247D02*
X33758095Y-145378628D01*
X33758095Y-145378628D02*
X33805714Y-145283390D01*
X27678095Y-146024819D02*
X27678095Y-145024819D01*
X28249523Y-146024819D02*
X27820952Y-145453390D01*
X28249523Y-145024819D02*
X27678095Y-145596247D01*
D12*
%TO.C,D1*%
X28930000Y-25400000D02*
X31380000Y-25400000D01*
X31380000Y-24480000D02*
X31380000Y-26320000D01*
X31380000Y-26320000D02*
X34660000Y-26320000D01*
X31836000Y-24480000D02*
X31836000Y-26320000D01*
X31956000Y-24480000D02*
X31956000Y-26320000D01*
X32076000Y-24480000D02*
X32076000Y-26320000D01*
X34660000Y-24480000D02*
X31380000Y-24480000D01*
X34660000Y-26320000D02*
X34660000Y-24480000D01*
X37110000Y-25400000D02*
X34660000Y-25400000D01*
%TO.C,GND*%
X72330000Y-21530000D02*
X72330000Y-21650000D01*
X72330000Y-21650000D02*
X74990000Y-21650000D01*
X73660000Y-18990000D02*
X74990000Y-18990000D01*
X74990000Y-18990000D02*
X74990000Y-20320000D01*
X74990000Y-21530000D02*
X74990000Y-21650000D01*
%TO.C,Q1*%
X27900000Y-17050000D02*
X27900000Y-21691000D01*
X27900000Y-17050000D02*
X38140000Y-17050000D01*
X27900000Y-18560000D02*
X38140000Y-18560000D01*
X27900000Y-21691000D02*
X38140000Y-21691000D01*
X31170000Y-17050000D02*
X31170000Y-18560000D01*
X34871000Y-17050000D02*
X34871000Y-18560000D01*
X38140000Y-17050000D02*
X38140000Y-21691000D01*
%TO.C,DC_OUT2*%
X21650000Y-36905000D02*
X21650000Y-34305000D01*
X21650000Y-36905000D02*
X18990000Y-36905000D01*
X21650000Y-34305000D02*
X18990000Y-34305000D01*
X20320000Y-39505000D02*
X18990000Y-39505000D01*
X18990000Y-39505000D02*
X18990000Y-38175000D01*
X18990000Y-36905000D02*
X18990000Y-34305000D01*
%TO.C,R1*%
X47530000Y-17775000D02*
X54070000Y-17775000D01*
X47530000Y-18105000D02*
X47530000Y-17775000D01*
X47530000Y-20185000D02*
X47530000Y-20515000D01*
X47530000Y-20515000D02*
X54070000Y-20515000D01*
X54070000Y-17775000D02*
X54070000Y-18105000D01*
X54070000Y-20515000D02*
X54070000Y-20185000D01*
%TO.C,D2*%
X28930000Y-40640000D02*
X31380000Y-40640000D01*
X31380000Y-39720000D02*
X31380000Y-41560000D01*
X31380000Y-41560000D02*
X34660000Y-41560000D01*
X31836000Y-39720000D02*
X31836000Y-41560000D01*
X31956000Y-39720000D02*
X31956000Y-41560000D01*
X32076000Y-39720000D02*
X32076000Y-41560000D01*
X34660000Y-39720000D02*
X31380000Y-39720000D01*
X34660000Y-41560000D02*
X34660000Y-39720000D01*
X37110000Y-40640000D02*
X34660000Y-40640000D01*
%TO.C,R12*%
X47530000Y-38095000D02*
X54070000Y-38095000D01*
X47530000Y-38425000D02*
X47530000Y-38095000D01*
X47530000Y-40505000D02*
X47530000Y-40835000D01*
X47530000Y-40835000D02*
X54070000Y-40835000D01*
X54070000Y-38095000D02*
X54070000Y-38425000D01*
X54070000Y-40835000D02*
X54070000Y-40505000D01*
%TO.C,DC_OUT7*%
X21650000Y-113105000D02*
X21650000Y-110505000D01*
X21650000Y-113105000D02*
X18990000Y-113105000D01*
X21650000Y-110505000D02*
X18990000Y-110505000D01*
X20320000Y-115705000D02*
X18990000Y-115705000D01*
X18990000Y-115705000D02*
X18990000Y-114375000D01*
X18990000Y-113105000D02*
X18990000Y-110505000D01*
%TO.C,R15*%
X47530000Y-83815000D02*
X54070000Y-83815000D01*
X47530000Y-84145000D02*
X47530000Y-83815000D01*
X47530000Y-86225000D02*
X47530000Y-86555000D01*
X47530000Y-86555000D02*
X54070000Y-86555000D01*
X54070000Y-83815000D02*
X54070000Y-84145000D01*
X54070000Y-86555000D02*
X54070000Y-86225000D01*
D11*
%TO.C,P2*%
X86970000Y-80500000D02*
X67970000Y-80500000D01*
X67970000Y-80500000D02*
X67970000Y-67500000D01*
X67970000Y-67500000D02*
X86970000Y-67500000D01*
X86970000Y-67500000D02*
X86970000Y-80500000D01*
D12*
%TO.C,R13*%
X47530000Y-53335000D02*
X54070000Y-53335000D01*
X47530000Y-53665000D02*
X47530000Y-53335000D01*
X47530000Y-55745000D02*
X47530000Y-56075000D01*
X47530000Y-56075000D02*
X54070000Y-56075000D01*
X54070000Y-53335000D02*
X54070000Y-53665000D01*
X54070000Y-56075000D02*
X54070000Y-55745000D01*
%TO.C,D4*%
X28930000Y-71120000D02*
X31380000Y-71120000D01*
X31380000Y-70200000D02*
X31380000Y-72040000D01*
X31380000Y-72040000D02*
X34660000Y-72040000D01*
X31836000Y-70200000D02*
X31836000Y-72040000D01*
X31956000Y-70200000D02*
X31956000Y-72040000D01*
X32076000Y-70200000D02*
X32076000Y-72040000D01*
X34660000Y-70200000D02*
X31380000Y-70200000D01*
X34660000Y-72040000D02*
X34660000Y-70200000D01*
X37110000Y-71120000D02*
X34660000Y-71120000D01*
%TO.C,R7*%
X47530000Y-109215000D02*
X54070000Y-109215000D01*
X47530000Y-109545000D02*
X47530000Y-109215000D01*
X47530000Y-111625000D02*
X47530000Y-111955000D01*
X47530000Y-111955000D02*
X54070000Y-111955000D01*
X54070000Y-109215000D02*
X54070000Y-109545000D01*
X54070000Y-111955000D02*
X54070000Y-111625000D01*
%TO.C,R8*%
X47530000Y-124455000D02*
X54070000Y-124455000D01*
X47530000Y-124785000D02*
X47530000Y-124455000D01*
X47530000Y-126865000D02*
X47530000Y-127195000D01*
X47530000Y-127195000D02*
X54070000Y-127195000D01*
X54070000Y-124455000D02*
X54070000Y-124785000D01*
X54070000Y-127195000D02*
X54070000Y-126865000D01*
%TO.C,R20*%
X47530000Y-160015000D02*
X54070000Y-160015000D01*
X47530000Y-160345000D02*
X47530000Y-160015000D01*
X47530000Y-162425000D02*
X47530000Y-162755000D01*
X47530000Y-162755000D02*
X54070000Y-162755000D01*
X54070000Y-160015000D02*
X54070000Y-160345000D01*
X54070000Y-162755000D02*
X54070000Y-162425000D01*
%TO.C,Electrode_B1*%
X85150000Y-19050000D02*
X85150000Y-16450000D01*
X85150000Y-19050000D02*
X82490000Y-19050000D01*
X85150000Y-16450000D02*
X82490000Y-16450000D01*
X83820000Y-21650000D02*
X82490000Y-21650000D01*
X82490000Y-21650000D02*
X82490000Y-20320000D01*
X82490000Y-19050000D02*
X82490000Y-16450000D01*
%TO.C,Q2*%
X27900000Y-32290000D02*
X27900000Y-36931000D01*
X27900000Y-32290000D02*
X38140000Y-32290000D01*
X27900000Y-33800000D02*
X38140000Y-33800000D01*
X27900000Y-36931000D02*
X38140000Y-36931000D01*
X31170000Y-32290000D02*
X31170000Y-33800000D01*
X34871000Y-32290000D02*
X34871000Y-33800000D01*
X38140000Y-32290000D02*
X38140000Y-36931000D01*
%TO.C,R2*%
X47530000Y-33015000D02*
X54070000Y-33015000D01*
X47530000Y-33345000D02*
X47530000Y-33015000D01*
X47530000Y-35425000D02*
X47530000Y-35755000D01*
X47530000Y-35755000D02*
X54070000Y-35755000D01*
X54070000Y-33015000D02*
X54070000Y-33345000D01*
X54070000Y-35755000D02*
X54070000Y-35425000D01*
%TO.C,DC_OUT5*%
X21650000Y-82625000D02*
X21650000Y-80025000D01*
X21650000Y-82625000D02*
X18990000Y-82625000D01*
X21650000Y-80025000D02*
X18990000Y-80025000D01*
X20320000Y-85225000D02*
X18990000Y-85225000D01*
X18990000Y-85225000D02*
X18990000Y-83895000D01*
X18990000Y-82625000D02*
X18990000Y-80025000D01*
%TO.C,U1*%
X82550000Y-86360000D02*
X72390000Y-86360000D01*
X82550000Y-86360000D02*
X85090000Y-88900000D01*
X72390000Y-86360000D02*
X69850000Y-88900000D01*
X90205000Y-88900000D02*
X90205000Y-134620000D01*
X90170000Y-88900000D02*
X85090000Y-88900000D01*
X69850000Y-88900000D02*
X64735000Y-88900000D01*
X81280000Y-129540000D02*
X73660000Y-129540000D01*
X73660000Y-129540000D02*
X73660000Y-135735000D01*
X90205000Y-134620000D02*
X87630000Y-137160000D01*
X64735000Y-134620000D02*
X64735000Y-88900000D01*
X64735000Y-134620000D02*
X67310000Y-137160000D01*
X81280000Y-135735000D02*
X81280000Y-129540000D01*
X81280000Y-135735000D02*
X73660000Y-135735000D01*
X87630000Y-137160000D02*
X82550000Y-137160000D01*
X82550000Y-137160000D02*
X81280000Y-135735000D01*
X72390000Y-137160000D02*
X73660000Y-135735000D01*
X67310000Y-137160000D02*
X72390000Y-137160000D01*
%TO.C,R10*%
X47530000Y-154935000D02*
X54070000Y-154935000D01*
X47530000Y-155265000D02*
X47530000Y-154935000D01*
X47530000Y-157345000D02*
X47530000Y-157675000D01*
X47530000Y-157675000D02*
X54070000Y-157675000D01*
X54070000Y-154935000D02*
X54070000Y-155265000D01*
X54070000Y-157675000D02*
X54070000Y-157345000D01*
%TO.C,Q4*%
X27900000Y-62770000D02*
X27900000Y-67411000D01*
X27900000Y-62770000D02*
X38140000Y-62770000D01*
X27900000Y-64280000D02*
X38140000Y-64280000D01*
X27900000Y-67411000D02*
X38140000Y-67411000D01*
X31170000Y-62770000D02*
X31170000Y-64280000D01*
X34871000Y-62770000D02*
X34871000Y-64280000D01*
X38140000Y-62770000D02*
X38140000Y-67411000D01*
%TO.C,D10*%
X28930000Y-162560000D02*
X31380000Y-162560000D01*
X31380000Y-161640000D02*
X31380000Y-163480000D01*
X31380000Y-163480000D02*
X34660000Y-163480000D01*
X31836000Y-161640000D02*
X31836000Y-163480000D01*
X31956000Y-161640000D02*
X31956000Y-163480000D01*
X32076000Y-161640000D02*
X32076000Y-163480000D01*
X34660000Y-161640000D02*
X31380000Y-161640000D01*
X34660000Y-163480000D02*
X34660000Y-161640000D01*
X37110000Y-162560000D02*
X34660000Y-162560000D01*
%TO.C,DC_OUT1*%
X21650000Y-21665000D02*
X21650000Y-19065000D01*
X21650000Y-21665000D02*
X18990000Y-21665000D01*
X21650000Y-19065000D02*
X18990000Y-19065000D01*
X20320000Y-24265000D02*
X18990000Y-24265000D01*
X18990000Y-24265000D02*
X18990000Y-22935000D01*
X18990000Y-21665000D02*
X18990000Y-19065000D01*
%TO.C,D8*%
X28930000Y-132080000D02*
X31380000Y-132080000D01*
X31380000Y-131160000D02*
X31380000Y-133000000D01*
X31380000Y-133000000D02*
X34660000Y-133000000D01*
X31836000Y-131160000D02*
X31836000Y-133000000D01*
X31956000Y-131160000D02*
X31956000Y-133000000D01*
X32076000Y-131160000D02*
X32076000Y-133000000D01*
X34660000Y-131160000D02*
X31380000Y-131160000D01*
X34660000Y-133000000D02*
X34660000Y-131160000D01*
X37110000Y-132080000D02*
X34660000Y-132080000D01*
%TO.C,Q3*%
X27900000Y-47530000D02*
X27900000Y-52171000D01*
X27900000Y-47530000D02*
X38140000Y-47530000D01*
X27900000Y-49040000D02*
X38140000Y-49040000D01*
X27900000Y-52171000D02*
X38140000Y-52171000D01*
X31170000Y-47530000D02*
X31170000Y-49040000D01*
X34871000Y-47530000D02*
X34871000Y-49040000D01*
X38140000Y-47530000D02*
X38140000Y-52171000D01*
%TO.C,R11*%
X47530000Y-22855000D02*
X54070000Y-22855000D01*
X47530000Y-23185000D02*
X47530000Y-22855000D01*
X47530000Y-25265000D02*
X47530000Y-25595000D01*
X47530000Y-25595000D02*
X54070000Y-25595000D01*
X54070000Y-22855000D02*
X54070000Y-23185000D01*
X54070000Y-25595000D02*
X54070000Y-25265000D01*
%TO.C,Q10*%
X27900000Y-154210000D02*
X27900000Y-158851000D01*
X27900000Y-154210000D02*
X38140000Y-154210000D01*
X27900000Y-155720000D02*
X38140000Y-155720000D01*
X27900000Y-158851000D02*
X38140000Y-158851000D01*
X31170000Y-154210000D02*
X31170000Y-155720000D01*
X34871000Y-154210000D02*
X34871000Y-155720000D01*
X38140000Y-154210000D02*
X38140000Y-158851000D01*
D11*
%TO.C,P1*%
X86970000Y-46620000D02*
X67970000Y-46620000D01*
X67970000Y-46620000D02*
X67970000Y-33620000D01*
X67970000Y-33620000D02*
X86970000Y-33620000D01*
X86970000Y-33620000D02*
X86970000Y-46620000D01*
D12*
%TO.C,DC_OUT9*%
X21650000Y-143585000D02*
X21650000Y-140985000D01*
X21650000Y-143585000D02*
X18990000Y-143585000D01*
X21650000Y-140985000D02*
X18990000Y-140985000D01*
X20320000Y-146185000D02*
X18990000Y-146185000D01*
X18990000Y-146185000D02*
X18990000Y-144855000D01*
X18990000Y-143585000D02*
X18990000Y-140985000D01*
%TO.C,Q5*%
X27900000Y-78010000D02*
X27900000Y-82651000D01*
X27900000Y-78010000D02*
X38140000Y-78010000D01*
X27900000Y-79520000D02*
X38140000Y-79520000D01*
X27900000Y-82651000D02*
X38140000Y-82651000D01*
X31170000Y-78010000D02*
X31170000Y-79520000D01*
X34871000Y-78010000D02*
X34871000Y-79520000D01*
X38140000Y-78010000D02*
X38140000Y-82651000D01*
%TO.C,D6*%
X28930000Y-101600000D02*
X31380000Y-101600000D01*
X31380000Y-100680000D02*
X31380000Y-102520000D01*
X31380000Y-102520000D02*
X34660000Y-102520000D01*
X31836000Y-100680000D02*
X31836000Y-102520000D01*
X31956000Y-100680000D02*
X31956000Y-102520000D01*
X32076000Y-100680000D02*
X32076000Y-102520000D01*
X34660000Y-100680000D02*
X31380000Y-100680000D01*
X34660000Y-102520000D02*
X34660000Y-100680000D01*
X37110000Y-101600000D02*
X34660000Y-101600000D01*
%TO.C,R14*%
X47530000Y-68575000D02*
X54070000Y-68575000D01*
X47530000Y-68905000D02*
X47530000Y-68575000D01*
X47530000Y-70985000D02*
X47530000Y-71315000D01*
X47530000Y-71315000D02*
X54070000Y-71315000D01*
X54070000Y-68575000D02*
X54070000Y-68905000D01*
X54070000Y-71315000D02*
X54070000Y-70985000D01*
%TO.C,R17*%
X47530000Y-114295000D02*
X54070000Y-114295000D01*
X47530000Y-114625000D02*
X47530000Y-114295000D01*
X47530000Y-116705000D02*
X47530000Y-117035000D01*
X47530000Y-117035000D02*
X54070000Y-117035000D01*
X54070000Y-114295000D02*
X54070000Y-114625000D01*
X54070000Y-117035000D02*
X54070000Y-116705000D01*
%TO.C,DC_OUT8*%
X21650000Y-128345000D02*
X21650000Y-125745000D01*
X21650000Y-128345000D02*
X18990000Y-128345000D01*
X21650000Y-125745000D02*
X18990000Y-125745000D01*
X20320000Y-130945000D02*
X18990000Y-130945000D01*
X18990000Y-130945000D02*
X18990000Y-129615000D01*
X18990000Y-128345000D02*
X18990000Y-125745000D01*
%TO.C,DC_OUT10*%
X21650000Y-158825000D02*
X21650000Y-156225000D01*
X21650000Y-158825000D02*
X18990000Y-158825000D01*
X21650000Y-156225000D02*
X18990000Y-156225000D01*
X20320000Y-161425000D02*
X18990000Y-161425000D01*
X18990000Y-161425000D02*
X18990000Y-160095000D01*
X18990000Y-158825000D02*
X18990000Y-156225000D01*
%TO.C,R16*%
X47530000Y-99055000D02*
X54070000Y-99055000D01*
X47530000Y-99385000D02*
X47530000Y-99055000D01*
X47530000Y-101465000D02*
X47530000Y-101795000D01*
X47530000Y-101795000D02*
X54070000Y-101795000D01*
X54070000Y-99055000D02*
X54070000Y-99385000D01*
X54070000Y-101795000D02*
X54070000Y-101465000D01*
%TO.C,D7*%
X28930000Y-116840000D02*
X31380000Y-116840000D01*
X31380000Y-115920000D02*
X31380000Y-117760000D01*
X31380000Y-117760000D02*
X34660000Y-117760000D01*
X31836000Y-115920000D02*
X31836000Y-117760000D01*
X31956000Y-115920000D02*
X31956000Y-117760000D01*
X32076000Y-115920000D02*
X32076000Y-117760000D01*
X34660000Y-115920000D02*
X31380000Y-115920000D01*
X34660000Y-117760000D02*
X34660000Y-115920000D01*
X37110000Y-116840000D02*
X34660000Y-116840000D01*
%TO.C,R6*%
X47530000Y-93975000D02*
X54070000Y-93975000D01*
X47530000Y-94305000D02*
X47530000Y-93975000D01*
X47530000Y-96385000D02*
X47530000Y-96715000D01*
X47530000Y-96715000D02*
X54070000Y-96715000D01*
X54070000Y-93975000D02*
X54070000Y-94305000D01*
X54070000Y-96715000D02*
X54070000Y-96385000D01*
%TO.C,Q8*%
X27900000Y-123730000D02*
X27900000Y-128371000D01*
X27900000Y-123730000D02*
X38140000Y-123730000D01*
X27900000Y-125240000D02*
X38140000Y-125240000D01*
X27900000Y-128371000D02*
X38140000Y-128371000D01*
X31170000Y-123730000D02*
X31170000Y-125240000D01*
X34871000Y-123730000D02*
X34871000Y-125240000D01*
X38140000Y-123730000D02*
X38140000Y-128371000D01*
%TO.C,DC_OUT3*%
X21650000Y-52145000D02*
X21650000Y-49545000D01*
X21650000Y-52145000D02*
X18990000Y-52145000D01*
X21650000Y-49545000D02*
X18990000Y-49545000D01*
X20320000Y-54745000D02*
X18990000Y-54745000D01*
X18990000Y-54745000D02*
X18990000Y-53415000D01*
X18990000Y-52145000D02*
X18990000Y-49545000D01*
%TO.C,R18*%
X47530000Y-129535000D02*
X54070000Y-129535000D01*
X47530000Y-129865000D02*
X47530000Y-129535000D01*
X47530000Y-131945000D02*
X47530000Y-132275000D01*
X47530000Y-132275000D02*
X54070000Y-132275000D01*
X54070000Y-129535000D02*
X54070000Y-129865000D01*
X54070000Y-132275000D02*
X54070000Y-131945000D01*
%TO.C,R4*%
X47530000Y-63495000D02*
X54070000Y-63495000D01*
X47530000Y-63825000D02*
X47530000Y-63495000D01*
X47530000Y-65905000D02*
X47530000Y-66235000D01*
X47530000Y-66235000D02*
X54070000Y-66235000D01*
X54070000Y-63495000D02*
X54070000Y-63825000D01*
X54070000Y-66235000D02*
X54070000Y-65905000D01*
%TO.C,+15V*%
X67250000Y-21530000D02*
X67250000Y-21650000D01*
X67250000Y-21650000D02*
X69910000Y-21650000D01*
X68580000Y-18990000D02*
X69910000Y-18990000D01*
X69910000Y-18990000D02*
X69910000Y-20320000D01*
X69910000Y-21530000D02*
X69910000Y-21650000D01*
%TO.C,D5*%
X28930000Y-86360000D02*
X31380000Y-86360000D01*
X31380000Y-85440000D02*
X31380000Y-87280000D01*
X31380000Y-87280000D02*
X34660000Y-87280000D01*
X31836000Y-85440000D02*
X31836000Y-87280000D01*
X31956000Y-85440000D02*
X31956000Y-87280000D01*
X32076000Y-85440000D02*
X32076000Y-87280000D01*
X34660000Y-85440000D02*
X31380000Y-85440000D01*
X34660000Y-87280000D02*
X34660000Y-85440000D01*
X37110000Y-86360000D02*
X34660000Y-86360000D01*
%TO.C,Q7*%
X27900000Y-108490000D02*
X27900000Y-113131000D01*
X27900000Y-108490000D02*
X38140000Y-108490000D01*
X27900000Y-110000000D02*
X38140000Y-110000000D01*
X27900000Y-113131000D02*
X38140000Y-113131000D01*
X31170000Y-108490000D02*
X31170000Y-110000000D01*
X34871000Y-108490000D02*
X34871000Y-110000000D01*
X38140000Y-108490000D02*
X38140000Y-113131000D01*
%TO.C,U2*%
X72340000Y-60490000D02*
X82620000Y-60490000D01*
X82620000Y-60490000D02*
X82620000Y-55190000D01*
X72340000Y-58840000D02*
X72340000Y-60490000D01*
X72340000Y-55190000D02*
X72340000Y-56840000D01*
X82620000Y-55190000D02*
X72340000Y-55190000D01*
X72340000Y-58840000D02*
G75*
G03*
X72340000Y-56840000I0J1000000D01*
G01*
%TO.C,DC_OUT6*%
X21650000Y-97865000D02*
X21650000Y-95265000D01*
X21650000Y-97865000D02*
X18990000Y-97865000D01*
X21650000Y-95265000D02*
X18990000Y-95265000D01*
X20320000Y-100465000D02*
X18990000Y-100465000D01*
X18990000Y-100465000D02*
X18990000Y-99135000D01*
X18990000Y-97865000D02*
X18990000Y-95265000D01*
%TO.C,DC_OUT4*%
X21650000Y-67385000D02*
X21650000Y-64785000D01*
X21650000Y-67385000D02*
X18990000Y-67385000D01*
X21650000Y-64785000D02*
X18990000Y-64785000D01*
X20320000Y-69985000D02*
X18990000Y-69985000D01*
X18990000Y-69985000D02*
X18990000Y-68655000D01*
X18990000Y-67385000D02*
X18990000Y-64785000D01*
%TO.C,R3*%
X47530000Y-48255000D02*
X54070000Y-48255000D01*
X47530000Y-48585000D02*
X47530000Y-48255000D01*
X47530000Y-50665000D02*
X47530000Y-50995000D01*
X47530000Y-50995000D02*
X54070000Y-50995000D01*
X54070000Y-48255000D02*
X54070000Y-48585000D01*
X54070000Y-50995000D02*
X54070000Y-50665000D01*
%TO.C,R5*%
X47530000Y-78735000D02*
X54070000Y-78735000D01*
X47530000Y-79065000D02*
X47530000Y-78735000D01*
X47530000Y-81145000D02*
X47530000Y-81475000D01*
X47530000Y-81475000D02*
X54070000Y-81475000D01*
X54070000Y-78735000D02*
X54070000Y-79065000D01*
X54070000Y-81475000D02*
X54070000Y-81145000D01*
%TO.C,R9*%
X47530000Y-139695000D02*
X54070000Y-139695000D01*
X47530000Y-140025000D02*
X47530000Y-139695000D01*
X47530000Y-142105000D02*
X47530000Y-142435000D01*
X47530000Y-142435000D02*
X54070000Y-142435000D01*
X54070000Y-139695000D02*
X54070000Y-140025000D01*
X54070000Y-142435000D02*
X54070000Y-142105000D01*
%TO.C,Q9*%
X27900000Y-138970000D02*
X27900000Y-143611000D01*
X27900000Y-138970000D02*
X38140000Y-138970000D01*
X27900000Y-140480000D02*
X38140000Y-140480000D01*
X27900000Y-143611000D02*
X38140000Y-143611000D01*
X31170000Y-138970000D02*
X31170000Y-140480000D01*
X34871000Y-138970000D02*
X34871000Y-140480000D01*
X38140000Y-138970000D02*
X38140000Y-143611000D01*
%TO.C,R19*%
X47530000Y-144775000D02*
X54070000Y-144775000D01*
X47530000Y-145105000D02*
X47530000Y-144775000D01*
X47530000Y-147185000D02*
X47530000Y-147515000D01*
X47530000Y-147515000D02*
X54070000Y-147515000D01*
X54070000Y-144775000D02*
X54070000Y-145105000D01*
X54070000Y-147515000D02*
X54070000Y-147185000D01*
%TO.C,D3*%
X28930000Y-55880000D02*
X31380000Y-55880000D01*
X31380000Y-54960000D02*
X31380000Y-56800000D01*
X31380000Y-56800000D02*
X34660000Y-56800000D01*
X31836000Y-54960000D02*
X31836000Y-56800000D01*
X31956000Y-54960000D02*
X31956000Y-56800000D01*
X32076000Y-54960000D02*
X32076000Y-56800000D01*
X34660000Y-54960000D02*
X31380000Y-54960000D01*
X34660000Y-56800000D02*
X34660000Y-54960000D01*
X37110000Y-55880000D02*
X34660000Y-55880000D01*
%TO.C,Q6*%
X27900000Y-93250000D02*
X27900000Y-97891000D01*
X27900000Y-93250000D02*
X38140000Y-93250000D01*
X27900000Y-94760000D02*
X38140000Y-94760000D01*
X27900000Y-97891000D02*
X38140000Y-97891000D01*
X31170000Y-93250000D02*
X31170000Y-94760000D01*
X34871000Y-93250000D02*
X34871000Y-94760000D01*
X38140000Y-93250000D02*
X38140000Y-97891000D01*
%TO.C,D9*%
X28930000Y-147320000D02*
X31380000Y-147320000D01*
X31380000Y-146400000D02*
X31380000Y-148240000D01*
X31380000Y-148240000D02*
X34660000Y-148240000D01*
X31836000Y-146400000D02*
X31836000Y-148240000D01*
X31956000Y-146400000D02*
X31956000Y-148240000D01*
X32076000Y-146400000D02*
X32076000Y-148240000D01*
X34660000Y-146400000D02*
X31380000Y-146400000D01*
X34660000Y-148240000D02*
X34660000Y-146400000D01*
X37110000Y-147320000D02*
X34660000Y-147320000D01*
%TD*%
M02*
