%TF.GenerationSoftware,KiCad,Pcbnew,7.0.8*%
%TF.CreationDate,2023-11-12T19:05:12-08:00*%
%TF.ProjectId,Synthwave v2,53796e74-6877-4617-9665-2076322e6b69,rev?*%
%TF.SameCoordinates,Original*%
%TF.FileFunction,Copper,L2,Bot*%
%TF.FilePolarity,Positive*%
%FSLAX46Y46*%
G04 Gerber Fmt 4.6, Leading zero omitted, Abs format (unit mm)*
G04 Created by KiCad (PCBNEW 7.0.8) date 2023-11-12 19:05:12*
%MOMM*%
%LPD*%
G01*
G04 APERTURE LIST*
%TA.AperFunction,ComponentPad*%
%ADD10R,1.500000X1.500000*%
%TD*%
%TA.AperFunction,ComponentPad*%
%ADD11O,1.500000X1.500000*%
%TD*%
%TA.AperFunction,ComponentPad*%
%ADD12R,1.700000X1.700000*%
%TD*%
%TA.AperFunction,ComponentPad*%
%ADD13R,1.905000X2.000000*%
%TD*%
%TA.AperFunction,ComponentPad*%
%ADD14O,1.905000X2.000000*%
%TD*%
%TA.AperFunction,ComponentPad*%
%ADD15O,1.700000X1.700000*%
%TD*%
%TA.AperFunction,ComponentPad*%
%ADD16C,1.600000*%
%TD*%
%TA.AperFunction,ComponentPad*%
%ADD17O,1.600000X1.600000*%
%TD*%
%TA.AperFunction,ComponentPad*%
%ADD18C,1.524000*%
%TD*%
%TA.AperFunction,ComponentPad*%
%ADD19C,1.700000*%
%TD*%
%TA.AperFunction,ComponentPad*%
%ADD20R,1.600000X1.600000*%
%TD*%
%TA.AperFunction,Conductor*%
%ADD21C,0.250000*%
%TD*%
G04 APERTURE END LIST*
D10*
%TO.P,D1,1,K*%
%TO.N,+15V*%
X27940000Y-25400000D03*
D11*
%TO.P,D1,2,A*%
%TO.N,Net-(D1-A)*%
X38100000Y-25400000D03*
%TD*%
D12*
%TO.P,GND,1,Pin_1*%
%TO.N,GND*%
X73660000Y-20320000D03*
%TD*%
D13*
%TO.P,Q1,1,B*%
%TO.N,Net-(Q1-B)*%
X30480000Y-20320000D03*
D14*
%TO.P,Q1,2,C*%
%TO.N,Net-(D1-A)*%
X33020000Y-20320000D03*
%TO.P,Q1,3,E*%
%TO.N,GND*%
X35560000Y-20320000D03*
%TD*%
D12*
%TO.P,DC_OUT2,1,Pin_1*%
%TO.N,+15V*%
X20320000Y-38175000D03*
D15*
%TO.P,DC_OUT2,2,Pin_2*%
%TO.N,Net-(D2-A)*%
X20320000Y-35635000D03*
%TD*%
D16*
%TO.P,R1,1*%
%TO.N,Net-(Q1-B)*%
X46990000Y-19145000D03*
D17*
%TO.P,R1,2*%
%TO.N,Net-(R1-Pad2)*%
X54610000Y-19145000D03*
%TD*%
D10*
%TO.P,D2,1,K*%
%TO.N,+15V*%
X27940000Y-40640000D03*
D11*
%TO.P,D2,2,A*%
%TO.N,Net-(D2-A)*%
X38100000Y-40640000D03*
%TD*%
D16*
%TO.P,R12,1*%
%TO.N,Net-(R12-Pad1)*%
X46990000Y-39465000D03*
D17*
%TO.P,R12,2*%
%TO.N,GND*%
X54610000Y-39465000D03*
%TD*%
D12*
%TO.P,DC_OUT7,1,Pin_1*%
%TO.N,+15V*%
X20320000Y-114375000D03*
D15*
%TO.P,DC_OUT7,2,Pin_2*%
%TO.N,Net-(D7-A)*%
X20320000Y-111835000D03*
%TD*%
D16*
%TO.P,R15,1*%
%TO.N,Net-(R15-Pad1)*%
X46990000Y-85185000D03*
D17*
%TO.P,R15,2*%
%TO.N,GND*%
X54610000Y-85185000D03*
%TD*%
D18*
%TO.P,P2,1,IN-*%
%TO.N,GND*%
X69680000Y-69440000D03*
%TO.P,P2,2,OUT-*%
%TO.N,Net-(P2-OUT-)*%
X85180000Y-69440000D03*
%TO.P,P2,3,OUT+*%
%TO.N,Net-(P2-OUT+)*%
X85180000Y-78740000D03*
%TO.P,P2,4,IN+*%
%TO.N,+15V*%
X69680000Y-78740000D03*
%TD*%
D16*
%TO.P,R13,1*%
%TO.N,Net-(U1-25_DAC)*%
X46990000Y-54705000D03*
D17*
%TO.P,R13,2*%
%TO.N,GND*%
X54610000Y-54705000D03*
%TD*%
D10*
%TO.P,D4,1,K*%
%TO.N,+15V*%
X27940000Y-71120000D03*
D11*
%TO.P,D4,2,A*%
%TO.N,Net-(D4-A)*%
X38100000Y-71120000D03*
%TD*%
D16*
%TO.P,R7,1*%
%TO.N,Net-(Q7-B)*%
X46990000Y-110585000D03*
D17*
%TO.P,R7,2*%
%TO.N,Net-(R17-Pad1)*%
X54610000Y-110585000D03*
%TD*%
D16*
%TO.P,R8,1*%
%TO.N,Net-(Q8-B)*%
X46990000Y-125825000D03*
D17*
%TO.P,R8,2*%
%TO.N,Net-(R18-Pad1)*%
X54610000Y-125825000D03*
%TD*%
D16*
%TO.P,R20,1*%
%TO.N,Net-(R10-Pad2)*%
X46990000Y-161385000D03*
D17*
%TO.P,R20,2*%
%TO.N,GND*%
X54610000Y-161385000D03*
%TD*%
D12*
%TO.P,Electrode_B1,1,Pin_1*%
%TO.N,Net-(Electrode_B1-Pin_1)*%
X83820000Y-20320000D03*
D15*
%TO.P,Electrode_B1,2,Pin_2*%
%TO.N,Net-(Electrode_B1-Pin_2)*%
X83820000Y-17780000D03*
%TD*%
D13*
%TO.P,Q2,1,B*%
%TO.N,Net-(Q2-B)*%
X30480000Y-35560000D03*
D14*
%TO.P,Q2,2,C*%
%TO.N,Net-(D2-A)*%
X33020000Y-35560000D03*
%TO.P,Q2,3,E*%
%TO.N,GND*%
X35560000Y-35560000D03*
%TD*%
D16*
%TO.P,R2,1*%
%TO.N,Net-(Q2-B)*%
X46990000Y-34385000D03*
D17*
%TO.P,R2,2*%
%TO.N,Net-(R12-Pad1)*%
X54610000Y-34385000D03*
%TD*%
D12*
%TO.P,DC_OUT5,1,Pin_1*%
%TO.N,+15V*%
X20320000Y-83895000D03*
D15*
%TO.P,DC_OUT5,2,Pin_2*%
%TO.N,Net-(D5-A)*%
X20320000Y-81355000D03*
%TD*%
D19*
%TO.P,U1,0,0*%
%TO.N,unconnected-(U1-Pad0)*%
X66040000Y-113030000D03*
%TO.P,U1,1,TX*%
%TO.N,unconnected-(U1-TX-Pad1)*%
X66040000Y-123190000D03*
%TO.P,U1,2,2*%
%TO.N,Net-(R19-Pad1)*%
X66040000Y-115570000D03*
%TO.P,U1,3,RX*%
%TO.N,unconnected-(U1-RX-Pad3)*%
X66040000Y-120650000D03*
%TO.P,U1,4,4_OLED*%
%TO.N,unconnected-(U1-4_OLED-Pad4)*%
X66040000Y-110490000D03*
%TO.P,U1,5,5*%
%TO.N,unconnected-(U1-Pad5)*%
X66040000Y-102870000D03*
%TO.P,U1,6,RST*%
%TO.N,unconnected-(U1-RST-Pad6)*%
X88900000Y-125730000D03*
%TO.P,U1,7,Vext*%
%TO.N,unconnected-(U1-Vext-Pad7)*%
X88900000Y-128270000D03*
%TO.P,U1,8,GND*%
%TO.N,unconnected-(U1-GND-Pad8)*%
X88900000Y-133350000D03*
%TO.P,U1,9,3.3*%
%TO.N,unconnected-(U1-3.3-Pad9)*%
X88900000Y-130810000D03*
%TO.P,U1,10,Vext*%
%TO.N,unconnected-(U1-Vext-Pad10)*%
X66040000Y-125730000D03*
%TO.P,U1,11,3.3*%
%TO.N,unconnected-(U1-3.3-Pad11)*%
X66040000Y-128270000D03*
%TO.P,U1,12,12*%
%TO.N,Net-(R18-Pad1)*%
X88900000Y-120650000D03*
%TO.P,U1,13,13*%
%TO.N,Net-(R17-Pad1)*%
X88900000Y-123190000D03*
%TO.P,U1,14,14*%
%TO.N,Net-(R1-Pad2)*%
X88900000Y-118110000D03*
%TO.P,U1,15,15_OLED*%
%TO.N,unconnected-(U1-15_OLED-Pad15)*%
X66040000Y-118110000D03*
%TO.P,U1,16,16_OLED*%
%TO.N,unconnected-(U1-16_OLED-Pad16)*%
X66040000Y-107950000D03*
%TO.P,U1,17,17*%
%TO.N,Net-(R16-Pad1)*%
X66040000Y-105410000D03*
%TO.P,U1,18,18*%
%TO.N,unconnected-(U1-Pad18)*%
X66040000Y-100330000D03*
%TO.P,U1,19,19*%
%TO.N,unconnected-(U1-Pad19)*%
X66040000Y-95250000D03*
%TO.P,U1,20,5V*%
%TO.N,Net-(P2-OUT+)*%
X66040000Y-130810000D03*
%TO.P,U1,21,21*%
%TO.N,unconnected-(U1-Pad21)*%
X66040000Y-90170000D03*
%TO.P,U1,22,22*%
%TO.N,unconnected-(U1-Pad22)*%
X66040000Y-92710000D03*
%TO.P,U1,23,23*%
%TO.N,Net-(R10-Pad2)*%
X66040000Y-97790000D03*
%TO.P,U1,25,25_DAC*%
%TO.N,Net-(U1-25_DAC)*%
X88900000Y-110490000D03*
%TO.P,U1,26,26_DAC*%
%TO.N,unconnected-(U1-26_DAC-Pad26)*%
X88900000Y-113030000D03*
%TO.P,U1,27,27*%
%TO.N,Net-(R12-Pad1)*%
X88900000Y-115570000D03*
%TO.P,U1,28,GND*%
%TO.N,Net-(P2-OUT-)*%
X66040000Y-133350000D03*
%TO.P,U1,32,32*%
%TO.N,Net-(R15-Pad1)*%
X88900000Y-105410000D03*
%TO.P,U1,33,33*%
%TO.N,Net-(R14-Pad1)*%
X88900000Y-107950000D03*
%TO.P,U1,34,34*%
%TO.N,Net-(U2-IB)*%
X88900000Y-100330000D03*
%TO.P,U1,35,35*%
%TO.N,Net-(U2-IA)*%
X88900000Y-102870000D03*
%TO.P,U1,36,36*%
%TO.N,unconnected-(U1-Pad36)*%
X88900000Y-90170000D03*
%TO.P,U1,37,37*%
%TO.N,unconnected-(U1-Pad37)*%
X88900000Y-92710000D03*
%TO.P,U1,38,38*%
%TO.N,unconnected-(U1-Pad38)*%
X88900000Y-95250000D03*
%TO.P,U1,39,39*%
%TO.N,unconnected-(U1-Pad39)*%
X88900000Y-97790000D03*
%TD*%
D16*
%TO.P,R10,1*%
%TO.N,Net-(Q10-B)*%
X46990000Y-156305000D03*
D17*
%TO.P,R10,2*%
%TO.N,Net-(R10-Pad2)*%
X54610000Y-156305000D03*
%TD*%
D13*
%TO.P,Q4,1,B*%
%TO.N,Net-(Q4-B)*%
X30480000Y-66040000D03*
D14*
%TO.P,Q4,2,C*%
%TO.N,Net-(D4-A)*%
X33020000Y-66040000D03*
%TO.P,Q4,3,E*%
%TO.N,GND*%
X35560000Y-66040000D03*
%TD*%
D10*
%TO.P,D10,1,K*%
%TO.N,+15V*%
X27940000Y-162560000D03*
D11*
%TO.P,D10,2,A*%
%TO.N,Net-(D10-A)*%
X38100000Y-162560000D03*
%TD*%
D12*
%TO.P,DC_OUT1,1,Pin_1*%
%TO.N,+15V*%
X20320000Y-22935000D03*
D15*
%TO.P,DC_OUT1,2,Pin_2*%
%TO.N,Net-(D1-A)*%
X20320000Y-20395000D03*
%TD*%
D10*
%TO.P,D8,1,K*%
%TO.N,+15V*%
X27940000Y-132080000D03*
D11*
%TO.P,D8,2,A*%
%TO.N,Net-(D8-A)*%
X38100000Y-132080000D03*
%TD*%
D13*
%TO.P,Q3,1,B*%
%TO.N,Net-(Q3-B)*%
X30480000Y-50800000D03*
D14*
%TO.P,Q3,2,C*%
%TO.N,Net-(D3-A)*%
X33020000Y-50800000D03*
%TO.P,Q3,3,E*%
%TO.N,GND*%
X35560000Y-50800000D03*
%TD*%
D16*
%TO.P,R11,1*%
%TO.N,Net-(R1-Pad2)*%
X46990000Y-24225000D03*
D17*
%TO.P,R11,2*%
%TO.N,GND*%
X54610000Y-24225000D03*
%TD*%
D13*
%TO.P,Q10,1,B*%
%TO.N,Net-(Q10-B)*%
X30480000Y-157480000D03*
D14*
%TO.P,Q10,2,C*%
%TO.N,Net-(D10-A)*%
X33020000Y-157480000D03*
%TO.P,Q10,3,E*%
%TO.N,GND*%
X35560000Y-157480000D03*
%TD*%
D18*
%TO.P,P1,1,IN-*%
%TO.N,GND*%
X69680000Y-35560000D03*
%TO.P,P1,2,OUT-*%
%TO.N,unconnected-(P1-OUT--Pad2)*%
X85180000Y-35560000D03*
%TO.P,P1,3,OUT+*%
%TO.N,Net-(P1-OUT+)*%
X85180000Y-44860000D03*
%TO.P,P1,4,IN+*%
%TO.N,+15V*%
X69680000Y-44860000D03*
%TD*%
D12*
%TO.P,DC_OUT9,1,Pin_1*%
%TO.N,+15V*%
X20320000Y-144855000D03*
D15*
%TO.P,DC_OUT9,2,Pin_2*%
%TO.N,Net-(D9-A)*%
X20320000Y-142315000D03*
%TD*%
D13*
%TO.P,Q5,1,B*%
%TO.N,Net-(Q5-B)*%
X30480000Y-81280000D03*
D14*
%TO.P,Q5,2,C*%
%TO.N,Net-(D5-A)*%
X33020000Y-81280000D03*
%TO.P,Q5,3,E*%
%TO.N,GND*%
X35560000Y-81280000D03*
%TD*%
D10*
%TO.P,D6,1,K*%
%TO.N,+15V*%
X27940000Y-101600000D03*
D11*
%TO.P,D6,2,A*%
%TO.N,Net-(D6-A)*%
X38100000Y-101600000D03*
%TD*%
D16*
%TO.P,R14,1*%
%TO.N,Net-(R14-Pad1)*%
X46990000Y-69945000D03*
D17*
%TO.P,R14,2*%
%TO.N,GND*%
X54610000Y-69945000D03*
%TD*%
D16*
%TO.P,R17,1*%
%TO.N,Net-(R17-Pad1)*%
X46990000Y-115665000D03*
D17*
%TO.P,R17,2*%
%TO.N,GND*%
X54610000Y-115665000D03*
%TD*%
D12*
%TO.P,DC_OUT8,1,Pin_1*%
%TO.N,+15V*%
X20320000Y-129615000D03*
D15*
%TO.P,DC_OUT8,2,Pin_2*%
%TO.N,Net-(D8-A)*%
X20320000Y-127075000D03*
%TD*%
D12*
%TO.P,DC_OUT10,1,Pin_1*%
%TO.N,+15V*%
X20320000Y-160095000D03*
D15*
%TO.P,DC_OUT10,2,Pin_2*%
%TO.N,Net-(D10-A)*%
X20320000Y-157555000D03*
%TD*%
D16*
%TO.P,R16,1*%
%TO.N,Net-(R16-Pad1)*%
X46990000Y-100425000D03*
D17*
%TO.P,R16,2*%
%TO.N,GND*%
X54610000Y-100425000D03*
%TD*%
D10*
%TO.P,D7,1,K*%
%TO.N,+15V*%
X27940000Y-116840000D03*
D11*
%TO.P,D7,2,A*%
%TO.N,Net-(D7-A)*%
X38100000Y-116840000D03*
%TD*%
D16*
%TO.P,R6,1*%
%TO.N,Net-(Q6-B)*%
X46990000Y-95345000D03*
D17*
%TO.P,R6,2*%
%TO.N,Net-(R16-Pad1)*%
X54610000Y-95345000D03*
%TD*%
D13*
%TO.P,Q8,1,B*%
%TO.N,Net-(Q8-B)*%
X30480000Y-127000000D03*
D14*
%TO.P,Q8,2,C*%
%TO.N,Net-(D8-A)*%
X33020000Y-127000000D03*
%TO.P,Q8,3,E*%
%TO.N,GND*%
X35560000Y-127000000D03*
%TD*%
D12*
%TO.P,DC_OUT3,1,Pin_1*%
%TO.N,+15V*%
X20320000Y-53415000D03*
D15*
%TO.P,DC_OUT3,2,Pin_2*%
%TO.N,Net-(D3-A)*%
X20320000Y-50875000D03*
%TD*%
D16*
%TO.P,R18,1*%
%TO.N,Net-(R18-Pad1)*%
X46990000Y-130905000D03*
D17*
%TO.P,R18,2*%
%TO.N,GND*%
X54610000Y-130905000D03*
%TD*%
D16*
%TO.P,R4,1*%
%TO.N,Net-(Q4-B)*%
X46990000Y-64865000D03*
D17*
%TO.P,R4,2*%
%TO.N,Net-(R14-Pad1)*%
X54610000Y-64865000D03*
%TD*%
D12*
%TO.P,+15V,1,Pin_1*%
%TO.N,+15V*%
X68580000Y-20320000D03*
%TD*%
D10*
%TO.P,D5,1,K*%
%TO.N,+15V*%
X27940000Y-86360000D03*
D11*
%TO.P,D5,2,A*%
%TO.N,Net-(D5-A)*%
X38100000Y-86360000D03*
%TD*%
D13*
%TO.P,Q7,1,B*%
%TO.N,Net-(Q7-B)*%
X30480000Y-111760000D03*
D14*
%TO.P,Q7,2,C*%
%TO.N,Net-(D7-A)*%
X33020000Y-111760000D03*
%TO.P,Q7,3,E*%
%TO.N,GND*%
X35560000Y-111760000D03*
%TD*%
D20*
%TO.P,U2,1,OA*%
%TO.N,Net-(Electrode_B1-Pin_1)*%
X73670000Y-61650000D03*
D17*
%TO.P,U2,2,VCC*%
%TO.N,Net-(P1-OUT+)*%
X76210000Y-61650000D03*
%TO.P,U2,3,VCC*%
X78750000Y-61650000D03*
%TO.P,U2,4,OB*%
%TO.N,Net-(Electrode_B1-Pin_2)*%
X81290000Y-61650000D03*
%TO.P,U2,5,GND*%
%TO.N,Net-(P2-OUT-)*%
X81290000Y-54030000D03*
%TO.P,U2,6,IA*%
%TO.N,Net-(U2-IA)*%
X78750000Y-54030000D03*
%TO.P,U2,7,IB*%
%TO.N,Net-(U2-IB)*%
X76210000Y-54030000D03*
%TO.P,U2,8,GND*%
%TO.N,Net-(P2-OUT-)*%
X73670000Y-54030000D03*
%TD*%
D12*
%TO.P,DC_OUT6,1,Pin_1*%
%TO.N,+15V*%
X20320000Y-99135000D03*
D15*
%TO.P,DC_OUT6,2,Pin_2*%
%TO.N,Net-(D6-A)*%
X20320000Y-96595000D03*
%TD*%
D12*
%TO.P,DC_OUT4,1,Pin_1*%
%TO.N,+15V*%
X20320000Y-68655000D03*
D15*
%TO.P,DC_OUT4,2,Pin_2*%
%TO.N,Net-(D4-A)*%
X20320000Y-66115000D03*
%TD*%
D16*
%TO.P,R3,1*%
%TO.N,Net-(Q3-B)*%
X46990000Y-49625000D03*
D17*
%TO.P,R3,2*%
%TO.N,Net-(U1-25_DAC)*%
X54610000Y-49625000D03*
%TD*%
D16*
%TO.P,R5,1*%
%TO.N,Net-(Q5-B)*%
X46990000Y-80105000D03*
D17*
%TO.P,R5,2*%
%TO.N,Net-(R15-Pad1)*%
X54610000Y-80105000D03*
%TD*%
D16*
%TO.P,R9,1*%
%TO.N,Net-(Q9-B)*%
X46990000Y-141065000D03*
D17*
%TO.P,R9,2*%
%TO.N,Net-(R19-Pad1)*%
X54610000Y-141065000D03*
%TD*%
D13*
%TO.P,Q9,1,B*%
%TO.N,Net-(Q9-B)*%
X30480000Y-142240000D03*
D14*
%TO.P,Q9,2,C*%
%TO.N,Net-(D9-A)*%
X33020000Y-142240000D03*
%TO.P,Q9,3,E*%
%TO.N,GND*%
X35560000Y-142240000D03*
%TD*%
D16*
%TO.P,R19,1*%
%TO.N,Net-(R19-Pad1)*%
X46990000Y-146145000D03*
D17*
%TO.P,R19,2*%
%TO.N,GND*%
X54610000Y-146145000D03*
%TD*%
D10*
%TO.P,D3,1,K*%
%TO.N,+15V*%
X27940000Y-55880000D03*
D11*
%TO.P,D3,2,A*%
%TO.N,Net-(D3-A)*%
X38100000Y-55880000D03*
%TD*%
D13*
%TO.P,Q6,1,B*%
%TO.N,Net-(Q6-B)*%
X30480000Y-96520000D03*
D14*
%TO.P,Q6,2,C*%
%TO.N,Net-(D6-A)*%
X33020000Y-96520000D03*
%TO.P,Q6,3,E*%
%TO.N,GND*%
X35560000Y-96520000D03*
%TD*%
D10*
%TO.P,D9,1,K*%
%TO.N,+15V*%
X27940000Y-147320000D03*
D11*
%TO.P,D9,2,A*%
%TO.N,Net-(D9-A)*%
X38100000Y-147320000D03*
%TD*%
D21*
%TO.N,Net-(R1-Pad2)*%
X50800000Y-40842300D02*
X50800000Y-28035000D01*
X50800000Y-28035000D02*
X48823500Y-26058400D01*
X54610000Y-20271900D02*
X48823500Y-26058400D01*
X91106200Y-115903800D02*
X91106200Y-81148500D01*
X48823500Y-26058400D02*
X46990000Y-24225000D01*
X54610000Y-19145000D02*
X54610000Y-20271900D01*
X91106200Y-81148500D02*
X50800000Y-40842300D01*
X88900000Y-118110000D02*
X91106200Y-115903800D01*
%TO.N,GND*%
X54610000Y-69945000D02*
X55736900Y-69945000D01*
X55740000Y-148401900D02*
X55740000Y-159128100D01*
X54610000Y-161385000D02*
X54610000Y-160258100D01*
X56241900Y-69440000D02*
X55736900Y-69945000D01*
X54610000Y-146145000D02*
X54610000Y-147271900D01*
X54610000Y-55831900D02*
X56241900Y-57463800D01*
X59641900Y-35560000D02*
X55736900Y-39465000D01*
X56241900Y-57463800D02*
X56241900Y-69440000D01*
X54610000Y-147271900D02*
X55740000Y-148401900D01*
X54610000Y-54705000D02*
X54610000Y-55831900D01*
X54610000Y-24225000D02*
X54610000Y-25351900D01*
X55740000Y-159128100D02*
X54610000Y-160258100D01*
X59641900Y-30383800D02*
X54610000Y-25351900D01*
X69680000Y-69440000D02*
X56241900Y-69440000D01*
X69680000Y-35560000D02*
X59641900Y-35560000D01*
X54610000Y-39465000D02*
X55736900Y-39465000D01*
X59641900Y-35560000D02*
X59641900Y-30383800D01*
%TO.N,Net-(R10-Pad2)*%
X54610000Y-156305000D02*
X53483100Y-156305000D01*
X53483100Y-156305000D02*
X48403100Y-161385000D01*
X48403100Y-161385000D02*
X46990000Y-161385000D01*
%TO.N,Net-(R19-Pad1)*%
X53482400Y-138810500D02*
X54610000Y-139938100D01*
X46990000Y-146145000D02*
X52070000Y-141065000D01*
X54610000Y-141065000D02*
X54610000Y-139938100D01*
X66040000Y-115570000D02*
X63256100Y-115570000D01*
X63256100Y-115570000D02*
X53482400Y-125343700D01*
X52070000Y-141065000D02*
X54610000Y-141065000D01*
X53482400Y-125343700D02*
X53482400Y-138810500D01*
%TO.N,Net-(R18-Pad1)*%
X54610000Y-125825000D02*
X55736900Y-125825000D01*
X90125200Y-123691600D02*
X89356800Y-124460000D01*
X57101900Y-124460000D02*
X55736900Y-125825000D01*
X89356800Y-124460000D02*
X57101900Y-124460000D01*
X88900000Y-120650000D02*
X90125200Y-121875200D01*
X90125200Y-121875200D02*
X90125200Y-123691600D01*
%TO.N,Net-(R17-Pad1)*%
X88900000Y-123190000D02*
X80010000Y-114300000D01*
X53483100Y-110585000D02*
X48403100Y-115665000D01*
X48403100Y-115665000D02*
X46990000Y-115665000D01*
X80010000Y-114300000D02*
X59451900Y-114300000D01*
X54610000Y-110585000D02*
X53483100Y-110585000D01*
X59451900Y-114300000D02*
X55736900Y-110585000D01*
X54610000Y-110585000D02*
X55736900Y-110585000D01*
%TO.N,Net-(R16-Pad1)*%
X66040000Y-105410000D02*
X55975000Y-95345000D01*
X54610000Y-95345000D02*
X53483100Y-95345000D01*
X55975000Y-95345000D02*
X54610000Y-95345000D01*
X53483100Y-95345000D02*
X48403100Y-100425000D01*
X48403100Y-100425000D02*
X46990000Y-100425000D01*
%TO.N,Net-(R15-Pad1)*%
X63595000Y-80105000D02*
X54610000Y-80105000D01*
X88900000Y-105410000D02*
X63595000Y-80105000D01*
%TO.N,Net-(R14-Pad1)*%
X53481300Y-67120600D02*
X53481300Y-69945000D01*
X88900000Y-107950000D02*
X62618700Y-81668700D01*
X62618700Y-81668700D02*
X54531000Y-81668700D01*
X54531000Y-81668700D02*
X53481300Y-80619000D01*
X54610000Y-64865000D02*
X54610000Y-65991900D01*
X53481300Y-69945000D02*
X46990000Y-69945000D01*
X53481300Y-80619000D02*
X53481300Y-69945000D01*
X54610000Y-65991900D02*
X53481300Y-67120600D01*
%TO.N,Net-(U1-25_DAC)*%
X88499000Y-104140000D02*
X71399500Y-87040500D01*
X54610000Y-50188400D02*
X54610000Y-50751900D01*
X51506600Y-50188400D02*
X46990000Y-54705000D01*
X71399500Y-67541400D02*
X54610000Y-50751900D01*
X90103500Y-109286500D02*
X90103500Y-104932700D01*
X54610000Y-50188400D02*
X51506600Y-50188400D01*
X90103500Y-104932700D02*
X89310800Y-104140000D01*
X89310800Y-104140000D02*
X88499000Y-104140000D01*
X54610000Y-49625000D02*
X54610000Y-50188400D01*
X88900000Y-110490000D02*
X90103500Y-109286500D01*
X71399500Y-87040500D02*
X71399500Y-67541400D01*
%TO.N,Net-(R12-Pad1)*%
X90589800Y-113880200D02*
X88900000Y-115570000D01*
X82976600Y-75451600D02*
X82976600Y-79686800D01*
X90589800Y-87300000D02*
X90589800Y-113880200D01*
X46990000Y-39465000D02*
X82976600Y-75451600D01*
X82976600Y-79686800D02*
X90589800Y-87300000D01*
%TO.N,Net-(Q6-B)*%
X46832200Y-95187200D02*
X31812800Y-95187200D01*
X31812800Y-95187200D02*
X30480000Y-96520000D01*
X46990000Y-95345000D02*
X46832200Y-95187200D01*
%TO.N,Net-(Q5-B)*%
X31815400Y-79944600D02*
X30480000Y-81280000D01*
X46990000Y-80105000D02*
X46829600Y-79944600D01*
X46829600Y-79944600D02*
X31815400Y-79944600D01*
%TO.N,Net-(Q4-B)*%
X46990000Y-64865000D02*
X46829600Y-64704600D01*
X31815400Y-64704600D02*
X30480000Y-66040000D01*
X46829600Y-64704600D02*
X31815400Y-64704600D01*
%TO.N,Net-(Q3-B)*%
X46832200Y-49467200D02*
X31812800Y-49467200D01*
X46990000Y-49625000D02*
X46832200Y-49467200D01*
X31812800Y-49467200D02*
X30480000Y-50800000D01*
%TO.N,Net-(Q2-B)*%
X46829600Y-34224600D02*
X31815400Y-34224600D01*
X31815400Y-34224600D02*
X30480000Y-35560000D01*
X46990000Y-34385000D02*
X46829600Y-34224600D01*
%TO.N,Net-(Q1-B)*%
X46815100Y-18970100D02*
X31829900Y-18970100D01*
X46990000Y-19145000D02*
X46815100Y-18970100D01*
X31829900Y-18970100D02*
X30480000Y-20320000D01*
%TO.N,Net-(Q8-B)*%
X46990000Y-125825000D02*
X46829600Y-125664600D01*
X46829600Y-125664600D02*
X31815400Y-125664600D01*
X31815400Y-125664600D02*
X30480000Y-127000000D01*
%TO.N,Net-(Q9-B)*%
X46990000Y-141065000D02*
X46829600Y-140904600D01*
X31815400Y-140904600D02*
X30480000Y-142240000D01*
X46829600Y-140904600D02*
X31815400Y-140904600D01*
%TO.N,Net-(Q10-B)*%
X31815400Y-156144600D02*
X30480000Y-157480000D01*
X46990000Y-156305000D02*
X46829600Y-156144600D01*
X46829600Y-156144600D02*
X31815400Y-156144600D01*
%TO.N,Net-(Q7-B)*%
X46829600Y-110424600D02*
X31815400Y-110424600D01*
X46990000Y-110585000D02*
X46829600Y-110424600D01*
X31815400Y-110424600D02*
X30480000Y-111760000D01*
%TO.N,+15V*%
X67991600Y-20320000D02*
X67403100Y-20320000D01*
X67991600Y-20320000D02*
X70830900Y-23159300D01*
X51345100Y-17989500D02*
X65072600Y-17989500D01*
X29016900Y-25400000D02*
X30140300Y-26523400D01*
X68580000Y-20320000D02*
X67991600Y-20320000D01*
X65072600Y-17989500D02*
X67403100Y-20320000D01*
X27940000Y-25400000D02*
X29016900Y-25400000D01*
X70830900Y-23159300D02*
X70830900Y-43709100D01*
X30140300Y-26523400D02*
X42811200Y-26523400D01*
X70830900Y-43709100D02*
X69680000Y-44860000D01*
X42811200Y-26523400D02*
X51345100Y-17989500D01*
%TO.N,Net-(D10-A)*%
X38100000Y-162560000D02*
X37023100Y-162560000D01*
X33020000Y-158806900D02*
X33270000Y-158806900D01*
X22748800Y-158806900D02*
X33020000Y-158806900D01*
X20320000Y-157555000D02*
X21496900Y-157555000D01*
X21496900Y-157555000D02*
X22748800Y-158806900D01*
X33270000Y-158806900D02*
X37023100Y-162560000D01*
X33020000Y-158806900D02*
X33020000Y-157480000D01*
%TO.N,Net-(D9-A)*%
X33020000Y-143590400D02*
X33293500Y-143590400D01*
X33293500Y-143590400D02*
X37023100Y-147320000D01*
X20320000Y-142315000D02*
X21496900Y-142315000D01*
X33020000Y-143590400D02*
X33020000Y-142240000D01*
X22772300Y-143590400D02*
X33020000Y-143590400D01*
X38100000Y-147320000D02*
X37023100Y-147320000D01*
X21496900Y-142315000D02*
X22772300Y-143590400D01*
%TO.N,Net-(D8-A)*%
X38100000Y-132080000D02*
X37023100Y-132080000D01*
X21496900Y-127075000D02*
X22772300Y-128350400D01*
X33293500Y-128350400D02*
X37023100Y-132080000D01*
X22772300Y-128350400D02*
X33020000Y-128350400D01*
X33020000Y-128350400D02*
X33293500Y-128350400D01*
X20320000Y-127075000D02*
X21496900Y-127075000D01*
X33020000Y-128350400D02*
X33020000Y-127000000D01*
%TO.N,Net-(D7-A)*%
X33293500Y-113110400D02*
X37023100Y-116840000D01*
X33020000Y-113110400D02*
X33020000Y-111760000D01*
X20320000Y-111835000D02*
X21496900Y-111835000D01*
X33020000Y-113110400D02*
X33293500Y-113110400D01*
X21496900Y-111835000D02*
X22772300Y-113110400D01*
X22772300Y-113110400D02*
X33020000Y-113110400D01*
X38100000Y-116840000D02*
X37023100Y-116840000D01*
%TO.N,Net-(D6-A)*%
X33293500Y-97870400D02*
X37023100Y-101600000D01*
X21496900Y-96595000D02*
X22772300Y-97870400D01*
X38100000Y-101600000D02*
X37023100Y-101600000D01*
X33020000Y-97870400D02*
X33020000Y-96520000D01*
X22772300Y-97870400D02*
X33020000Y-97870400D01*
X20320000Y-96595000D02*
X21496900Y-96595000D01*
X33020000Y-97870400D02*
X33293500Y-97870400D01*
%TO.N,Net-(D5-A)*%
X33293500Y-82630400D02*
X37023100Y-86360000D01*
X22772300Y-82630400D02*
X33020000Y-82630400D01*
X21496900Y-81355000D02*
X22772300Y-82630400D01*
X33020000Y-82630400D02*
X33293500Y-82630400D01*
X20320000Y-81355000D02*
X21496900Y-81355000D01*
X33020000Y-82630400D02*
X33020000Y-81280000D01*
X38100000Y-86360000D02*
X37023100Y-86360000D01*
%TO.N,Net-(D4-A)*%
X21496900Y-66115000D02*
X22772300Y-67390400D01*
X20320000Y-66115000D02*
X21496900Y-66115000D01*
X33020000Y-67390400D02*
X33293500Y-67390400D01*
X38100000Y-71120000D02*
X37023100Y-71120000D01*
X33293500Y-67390400D02*
X37023100Y-71120000D01*
X22772300Y-67390400D02*
X33020000Y-67390400D01*
X33020000Y-67390400D02*
X33020000Y-66040000D01*
%TO.N,Net-(D3-A)*%
X21496900Y-50875000D02*
X22772300Y-52150400D01*
X22772300Y-52150400D02*
X33020000Y-52150400D01*
X38100000Y-55880000D02*
X37023100Y-55880000D01*
X33020000Y-52150400D02*
X33020000Y-50800000D01*
X33020000Y-52150400D02*
X33293500Y-52150400D01*
X20320000Y-50875000D02*
X21496900Y-50875000D01*
X33293500Y-52150400D02*
X37023100Y-55880000D01*
%TO.N,Net-(D2-A)*%
X33020000Y-36910400D02*
X33293500Y-36910400D01*
X38100000Y-40640000D02*
X37023100Y-40640000D01*
X21496900Y-35635000D02*
X22772300Y-36910400D01*
X33020000Y-36910400D02*
X33020000Y-35560000D01*
X33293500Y-36910400D02*
X37023100Y-40640000D01*
X22772300Y-36910400D02*
X33020000Y-36910400D01*
X20320000Y-35635000D02*
X21496900Y-35635000D01*
%TO.N,Net-(D1-A)*%
X22748800Y-21646900D02*
X33020000Y-21646900D01*
X38100000Y-25400000D02*
X37023100Y-25400000D01*
X21496900Y-20395000D02*
X22748800Y-21646900D01*
X33020000Y-21646900D02*
X33020000Y-20320000D01*
X33020000Y-21646900D02*
X33270000Y-21646900D01*
X20320000Y-20395000D02*
X21496900Y-20395000D01*
X33270000Y-21646900D02*
X37023100Y-25400000D01*
%TO.N,Net-(P1-OUT+)*%
X72523100Y-53558800D02*
X81221900Y-44860000D01*
X81221900Y-44860000D02*
X85180000Y-44860000D01*
X78750000Y-61650000D02*
X76210000Y-61650000D01*
X76210000Y-60523100D02*
X72523100Y-56836200D01*
X72523100Y-56836200D02*
X72523100Y-53558800D01*
X76210000Y-61650000D02*
X76210000Y-60523100D01*
%TO.N,Net-(P2-OUT-)*%
X85180000Y-61095600D02*
X85180000Y-69440000D01*
X81290000Y-54030000D02*
X80163100Y-54030000D01*
X73670000Y-54030000D02*
X74796900Y-54030000D01*
X80163100Y-54263500D02*
X80163100Y-54030000D01*
X75656300Y-55171100D02*
X79255500Y-55171100D01*
X79255500Y-55171100D02*
X80163100Y-54263500D01*
X74796900Y-54030000D02*
X74796900Y-54311700D01*
X74796900Y-54311700D02*
X75656300Y-55171100D01*
X79255500Y-55171100D02*
X85180000Y-61095600D01*
%TD*%
M02*
