%TF.GenerationSoftware,KiCad,Pcbnew,7.0.8*%
%TF.CreationDate,2023-11-12T19:05:12-08:00*%
%TF.ProjectId,Synthwave v2,53796e74-6877-4617-9665-2076322e6b69,rev?*%
%TF.SameCoordinates,Original*%
%TF.FileFunction,Copper,L1,Top*%
%TF.FilePolarity,Positive*%
%FSLAX46Y46*%
G04 Gerber Fmt 4.6, Leading zero omitted, Abs format (unit mm)*
G04 Created by KiCad (PCBNEW 7.0.8) date 2023-11-12 19:05:12*
%MOMM*%
%LPD*%
G01*
G04 APERTURE LIST*
%ADD10C,0.300000*%
%TA.AperFunction,NonConductor*%
%ADD11C,0.300000*%
%TD*%
%TA.AperFunction,ComponentPad*%
%ADD12R,1.500000X1.500000*%
%TD*%
%TA.AperFunction,ComponentPad*%
%ADD13O,1.500000X1.500000*%
%TD*%
%TA.AperFunction,ComponentPad*%
%ADD14R,1.700000X1.700000*%
%TD*%
%TA.AperFunction,ComponentPad*%
%ADD15R,1.905000X2.000000*%
%TD*%
%TA.AperFunction,ComponentPad*%
%ADD16O,1.905000X2.000000*%
%TD*%
%TA.AperFunction,ComponentPad*%
%ADD17O,1.700000X1.700000*%
%TD*%
%TA.AperFunction,ComponentPad*%
%ADD18C,1.600000*%
%TD*%
%TA.AperFunction,ComponentPad*%
%ADD19O,1.600000X1.600000*%
%TD*%
%TA.AperFunction,ComponentPad*%
%ADD20C,1.524000*%
%TD*%
%TA.AperFunction,ComponentPad*%
%ADD21C,1.700000*%
%TD*%
%TA.AperFunction,ComponentPad*%
%ADD22R,1.600000X1.600000*%
%TD*%
%TA.AperFunction,Conductor*%
%ADD23C,0.250000*%
%TD*%
G04 APERTURE END LIST*
D10*
D11*
X67798319Y-30124400D02*
X67988795Y-30219638D01*
X67988795Y-30219638D02*
X68369747Y-30219638D01*
X68369747Y-30219638D02*
X68560224Y-30124400D01*
X68560224Y-30124400D02*
X68655462Y-29933923D01*
X68655462Y-29933923D02*
X68655462Y-29838685D01*
X68655462Y-29838685D02*
X68560224Y-29648209D01*
X68560224Y-29648209D02*
X68369747Y-29552971D01*
X68369747Y-29552971D02*
X68084033Y-29552971D01*
X68084033Y-29552971D02*
X67893557Y-29457733D01*
X67893557Y-29457733D02*
X67798319Y-29267257D01*
X67798319Y-29267257D02*
X67798319Y-29172019D01*
X67798319Y-29172019D02*
X67893557Y-28981542D01*
X67893557Y-28981542D02*
X68084033Y-28886304D01*
X68084033Y-28886304D02*
X68369747Y-28886304D01*
X68369747Y-28886304D02*
X68560224Y-28981542D01*
X69322129Y-28886304D02*
X69798319Y-30219638D01*
X70274510Y-28886304D02*
X69798319Y-30219638D01*
X69798319Y-30219638D02*
X69607843Y-30695828D01*
X69607843Y-30695828D02*
X69512605Y-30791066D01*
X69512605Y-30791066D02*
X69322129Y-30886304D01*
X71036415Y-28886304D02*
X71036415Y-30219638D01*
X71036415Y-29076780D02*
X71131653Y-28981542D01*
X71131653Y-28981542D02*
X71322129Y-28886304D01*
X71322129Y-28886304D02*
X71607844Y-28886304D01*
X71607844Y-28886304D02*
X71798320Y-28981542D01*
X71798320Y-28981542D02*
X71893558Y-29172019D01*
X71893558Y-29172019D02*
X71893558Y-30219638D01*
X72560225Y-28886304D02*
X73322129Y-28886304D01*
X72845939Y-28219638D02*
X72845939Y-29933923D01*
X72845939Y-29933923D02*
X72941177Y-30124400D01*
X72941177Y-30124400D02*
X73131653Y-30219638D01*
X73131653Y-30219638D02*
X73322129Y-30219638D01*
X73988796Y-30219638D02*
X73988796Y-28219638D01*
X74845939Y-30219638D02*
X74845939Y-29172019D01*
X74845939Y-29172019D02*
X74750701Y-28981542D01*
X74750701Y-28981542D02*
X74560225Y-28886304D01*
X74560225Y-28886304D02*
X74274510Y-28886304D01*
X74274510Y-28886304D02*
X74084034Y-28981542D01*
X74084034Y-28981542D02*
X73988796Y-29076780D01*
X75607844Y-28886304D02*
X75988796Y-30219638D01*
X75988796Y-30219638D02*
X76369749Y-29267257D01*
X76369749Y-29267257D02*
X76750701Y-30219638D01*
X76750701Y-30219638D02*
X77131653Y-28886304D01*
X78750701Y-30219638D02*
X78750701Y-29172019D01*
X78750701Y-29172019D02*
X78655463Y-28981542D01*
X78655463Y-28981542D02*
X78464987Y-28886304D01*
X78464987Y-28886304D02*
X78084034Y-28886304D01*
X78084034Y-28886304D02*
X77893558Y-28981542D01*
X78750701Y-30124400D02*
X78560225Y-30219638D01*
X78560225Y-30219638D02*
X78084034Y-30219638D01*
X78084034Y-30219638D02*
X77893558Y-30124400D01*
X77893558Y-30124400D02*
X77798320Y-29933923D01*
X77798320Y-29933923D02*
X77798320Y-29743447D01*
X77798320Y-29743447D02*
X77893558Y-29552971D01*
X77893558Y-29552971D02*
X78084034Y-29457733D01*
X78084034Y-29457733D02*
X78560225Y-29457733D01*
X78560225Y-29457733D02*
X78750701Y-29362495D01*
X79512606Y-28886304D02*
X79988796Y-30219638D01*
X79988796Y-30219638D02*
X80464987Y-28886304D01*
X81988797Y-30124400D02*
X81798321Y-30219638D01*
X81798321Y-30219638D02*
X81417368Y-30219638D01*
X81417368Y-30219638D02*
X81226892Y-30124400D01*
X81226892Y-30124400D02*
X81131654Y-29933923D01*
X81131654Y-29933923D02*
X81131654Y-29172019D01*
X81131654Y-29172019D02*
X81226892Y-28981542D01*
X81226892Y-28981542D02*
X81417368Y-28886304D01*
X81417368Y-28886304D02*
X81798321Y-28886304D01*
X81798321Y-28886304D02*
X81988797Y-28981542D01*
X81988797Y-28981542D02*
X82084035Y-29172019D01*
X82084035Y-29172019D02*
X82084035Y-29362495D01*
X82084035Y-29362495D02*
X81131654Y-29552971D01*
X84274512Y-28886304D02*
X84750702Y-30219638D01*
X84750702Y-30219638D02*
X85226893Y-28886304D01*
X87036417Y-30219638D02*
X85893560Y-30219638D01*
X86464988Y-30219638D02*
X86464988Y-28219638D01*
X86464988Y-28219638D02*
X86274512Y-28505352D01*
X86274512Y-28505352D02*
X86084036Y-28695828D01*
X86084036Y-28695828D02*
X85893560Y-28791066D01*
D12*
%TO.P,D1,1,K*%
%TO.N,+15V*%
X27940000Y-25400000D03*
D13*
%TO.P,D1,2,A*%
%TO.N,Net-(D1-A)*%
X38100000Y-25400000D03*
%TD*%
D14*
%TO.P,GND,1,Pin_1*%
%TO.N,GND*%
X73660000Y-20320000D03*
%TD*%
D15*
%TO.P,Q1,1,B*%
%TO.N,Net-(Q1-B)*%
X30480000Y-20320000D03*
D16*
%TO.P,Q1,2,C*%
%TO.N,Net-(D1-A)*%
X33020000Y-20320000D03*
%TO.P,Q1,3,E*%
%TO.N,GND*%
X35560000Y-20320000D03*
%TD*%
D14*
%TO.P,DC_OUT2,1,Pin_1*%
%TO.N,+15V*%
X20320000Y-38175000D03*
D17*
%TO.P,DC_OUT2,2,Pin_2*%
%TO.N,Net-(D2-A)*%
X20320000Y-35635000D03*
%TD*%
D18*
%TO.P,R1,1*%
%TO.N,Net-(Q1-B)*%
X46990000Y-19145000D03*
D19*
%TO.P,R1,2*%
%TO.N,Net-(R1-Pad2)*%
X54610000Y-19145000D03*
%TD*%
D12*
%TO.P,D2,1,K*%
%TO.N,+15V*%
X27940000Y-40640000D03*
D13*
%TO.P,D2,2,A*%
%TO.N,Net-(D2-A)*%
X38100000Y-40640000D03*
%TD*%
D18*
%TO.P,R12,1*%
%TO.N,Net-(R12-Pad1)*%
X46990000Y-39465000D03*
D19*
%TO.P,R12,2*%
%TO.N,GND*%
X54610000Y-39465000D03*
%TD*%
D14*
%TO.P,DC_OUT7,1,Pin_1*%
%TO.N,+15V*%
X20320000Y-114375000D03*
D17*
%TO.P,DC_OUT7,2,Pin_2*%
%TO.N,Net-(D7-A)*%
X20320000Y-111835000D03*
%TD*%
D18*
%TO.P,R15,1*%
%TO.N,Net-(R15-Pad1)*%
X46990000Y-85185000D03*
D19*
%TO.P,R15,2*%
%TO.N,GND*%
X54610000Y-85185000D03*
%TD*%
D20*
%TO.P,P2,1,IN-*%
%TO.N,GND*%
X69680000Y-69440000D03*
%TO.P,P2,2,OUT-*%
%TO.N,Net-(P2-OUT-)*%
X85180000Y-69440000D03*
%TO.P,P2,3,OUT+*%
%TO.N,Net-(P2-OUT+)*%
X85180000Y-78740000D03*
%TO.P,P2,4,IN+*%
%TO.N,+15V*%
X69680000Y-78740000D03*
%TD*%
D18*
%TO.P,R13,1*%
%TO.N,Net-(U1-25_DAC)*%
X46990000Y-54705000D03*
D19*
%TO.P,R13,2*%
%TO.N,GND*%
X54610000Y-54705000D03*
%TD*%
D12*
%TO.P,D4,1,K*%
%TO.N,+15V*%
X27940000Y-71120000D03*
D13*
%TO.P,D4,2,A*%
%TO.N,Net-(D4-A)*%
X38100000Y-71120000D03*
%TD*%
D18*
%TO.P,R7,1*%
%TO.N,Net-(Q7-B)*%
X46990000Y-110585000D03*
D19*
%TO.P,R7,2*%
%TO.N,Net-(R17-Pad1)*%
X54610000Y-110585000D03*
%TD*%
D18*
%TO.P,R8,1*%
%TO.N,Net-(Q8-B)*%
X46990000Y-125825000D03*
D19*
%TO.P,R8,2*%
%TO.N,Net-(R18-Pad1)*%
X54610000Y-125825000D03*
%TD*%
D18*
%TO.P,R20,1*%
%TO.N,Net-(R10-Pad2)*%
X46990000Y-161385000D03*
D19*
%TO.P,R20,2*%
%TO.N,GND*%
X54610000Y-161385000D03*
%TD*%
D14*
%TO.P,Electrode_B1,1,Pin_1*%
%TO.N,Net-(Electrode_B1-Pin_1)*%
X83820000Y-20320000D03*
D17*
%TO.P,Electrode_B1,2,Pin_2*%
%TO.N,Net-(Electrode_B1-Pin_2)*%
X83820000Y-17780000D03*
%TD*%
D15*
%TO.P,Q2,1,B*%
%TO.N,Net-(Q2-B)*%
X30480000Y-35560000D03*
D16*
%TO.P,Q2,2,C*%
%TO.N,Net-(D2-A)*%
X33020000Y-35560000D03*
%TO.P,Q2,3,E*%
%TO.N,GND*%
X35560000Y-35560000D03*
%TD*%
D18*
%TO.P,R2,1*%
%TO.N,Net-(Q2-B)*%
X46990000Y-34385000D03*
D19*
%TO.P,R2,2*%
%TO.N,Net-(R12-Pad1)*%
X54610000Y-34385000D03*
%TD*%
D14*
%TO.P,DC_OUT5,1,Pin_1*%
%TO.N,+15V*%
X20320000Y-83895000D03*
D17*
%TO.P,DC_OUT5,2,Pin_2*%
%TO.N,Net-(D5-A)*%
X20320000Y-81355000D03*
%TD*%
D21*
%TO.P,U1,0,0*%
%TO.N,unconnected-(U1-Pad0)*%
X66040000Y-113030000D03*
%TO.P,U1,1,TX*%
%TO.N,unconnected-(U1-TX-Pad1)*%
X66040000Y-123190000D03*
%TO.P,U1,2,2*%
%TO.N,Net-(R19-Pad1)*%
X66040000Y-115570000D03*
%TO.P,U1,3,RX*%
%TO.N,unconnected-(U1-RX-Pad3)*%
X66040000Y-120650000D03*
%TO.P,U1,4,4_OLED*%
%TO.N,unconnected-(U1-4_OLED-Pad4)*%
X66040000Y-110490000D03*
%TO.P,U1,5,5*%
%TO.N,unconnected-(U1-Pad5)*%
X66040000Y-102870000D03*
%TO.P,U1,6,RST*%
%TO.N,unconnected-(U1-RST-Pad6)*%
X88900000Y-125730000D03*
%TO.P,U1,7,Vext*%
%TO.N,unconnected-(U1-Vext-Pad7)*%
X88900000Y-128270000D03*
%TO.P,U1,8,GND*%
%TO.N,unconnected-(U1-GND-Pad8)*%
X88900000Y-133350000D03*
%TO.P,U1,9,3.3*%
%TO.N,unconnected-(U1-3.3-Pad9)*%
X88900000Y-130810000D03*
%TO.P,U1,10,Vext*%
%TO.N,unconnected-(U1-Vext-Pad10)*%
X66040000Y-125730000D03*
%TO.P,U1,11,3.3*%
%TO.N,unconnected-(U1-3.3-Pad11)*%
X66040000Y-128270000D03*
%TO.P,U1,12,12*%
%TO.N,Net-(R18-Pad1)*%
X88900000Y-120650000D03*
%TO.P,U1,13,13*%
%TO.N,Net-(R17-Pad1)*%
X88900000Y-123190000D03*
%TO.P,U1,14,14*%
%TO.N,Net-(R1-Pad2)*%
X88900000Y-118110000D03*
%TO.P,U1,15,15_OLED*%
%TO.N,unconnected-(U1-15_OLED-Pad15)*%
X66040000Y-118110000D03*
%TO.P,U1,16,16_OLED*%
%TO.N,unconnected-(U1-16_OLED-Pad16)*%
X66040000Y-107950000D03*
%TO.P,U1,17,17*%
%TO.N,Net-(R16-Pad1)*%
X66040000Y-105410000D03*
%TO.P,U1,18,18*%
%TO.N,unconnected-(U1-Pad18)*%
X66040000Y-100330000D03*
%TO.P,U1,19,19*%
%TO.N,unconnected-(U1-Pad19)*%
X66040000Y-95250000D03*
%TO.P,U1,20,5V*%
%TO.N,Net-(P2-OUT+)*%
X66040000Y-130810000D03*
%TO.P,U1,21,21*%
%TO.N,unconnected-(U1-Pad21)*%
X66040000Y-90170000D03*
%TO.P,U1,22,22*%
%TO.N,unconnected-(U1-Pad22)*%
X66040000Y-92710000D03*
%TO.P,U1,23,23*%
%TO.N,Net-(R10-Pad2)*%
X66040000Y-97790000D03*
%TO.P,U1,25,25_DAC*%
%TO.N,Net-(U1-25_DAC)*%
X88900000Y-110490000D03*
%TO.P,U1,26,26_DAC*%
%TO.N,unconnected-(U1-26_DAC-Pad26)*%
X88900000Y-113030000D03*
%TO.P,U1,27,27*%
%TO.N,Net-(R12-Pad1)*%
X88900000Y-115570000D03*
%TO.P,U1,28,GND*%
%TO.N,Net-(P2-OUT-)*%
X66040000Y-133350000D03*
%TO.P,U1,32,32*%
%TO.N,Net-(R15-Pad1)*%
X88900000Y-105410000D03*
%TO.P,U1,33,33*%
%TO.N,Net-(R14-Pad1)*%
X88900000Y-107950000D03*
%TO.P,U1,34,34*%
%TO.N,Net-(U2-IB)*%
X88900000Y-100330000D03*
%TO.P,U1,35,35*%
%TO.N,Net-(U2-IA)*%
X88900000Y-102870000D03*
%TO.P,U1,36,36*%
%TO.N,unconnected-(U1-Pad36)*%
X88900000Y-90170000D03*
%TO.P,U1,37,37*%
%TO.N,unconnected-(U1-Pad37)*%
X88900000Y-92710000D03*
%TO.P,U1,38,38*%
%TO.N,unconnected-(U1-Pad38)*%
X88900000Y-95250000D03*
%TO.P,U1,39,39*%
%TO.N,unconnected-(U1-Pad39)*%
X88900000Y-97790000D03*
%TD*%
D18*
%TO.P,R10,1*%
%TO.N,Net-(Q10-B)*%
X46990000Y-156305000D03*
D19*
%TO.P,R10,2*%
%TO.N,Net-(R10-Pad2)*%
X54610000Y-156305000D03*
%TD*%
D15*
%TO.P,Q4,1,B*%
%TO.N,Net-(Q4-B)*%
X30480000Y-66040000D03*
D16*
%TO.P,Q4,2,C*%
%TO.N,Net-(D4-A)*%
X33020000Y-66040000D03*
%TO.P,Q4,3,E*%
%TO.N,GND*%
X35560000Y-66040000D03*
%TD*%
D12*
%TO.P,D10,1,K*%
%TO.N,+15V*%
X27940000Y-162560000D03*
D13*
%TO.P,D10,2,A*%
%TO.N,Net-(D10-A)*%
X38100000Y-162560000D03*
%TD*%
D14*
%TO.P,DC_OUT1,1,Pin_1*%
%TO.N,+15V*%
X20320000Y-22935000D03*
D17*
%TO.P,DC_OUT1,2,Pin_2*%
%TO.N,Net-(D1-A)*%
X20320000Y-20395000D03*
%TD*%
D12*
%TO.P,D8,1,K*%
%TO.N,+15V*%
X27940000Y-132080000D03*
D13*
%TO.P,D8,2,A*%
%TO.N,Net-(D8-A)*%
X38100000Y-132080000D03*
%TD*%
D15*
%TO.P,Q3,1,B*%
%TO.N,Net-(Q3-B)*%
X30480000Y-50800000D03*
D16*
%TO.P,Q3,2,C*%
%TO.N,Net-(D3-A)*%
X33020000Y-50800000D03*
%TO.P,Q3,3,E*%
%TO.N,GND*%
X35560000Y-50800000D03*
%TD*%
D18*
%TO.P,R11,1*%
%TO.N,Net-(R1-Pad2)*%
X46990000Y-24225000D03*
D19*
%TO.P,R11,2*%
%TO.N,GND*%
X54610000Y-24225000D03*
%TD*%
D15*
%TO.P,Q10,1,B*%
%TO.N,Net-(Q10-B)*%
X30480000Y-157480000D03*
D16*
%TO.P,Q10,2,C*%
%TO.N,Net-(D10-A)*%
X33020000Y-157480000D03*
%TO.P,Q10,3,E*%
%TO.N,GND*%
X35560000Y-157480000D03*
%TD*%
D20*
%TO.P,P1,1,IN-*%
%TO.N,GND*%
X69680000Y-35560000D03*
%TO.P,P1,2,OUT-*%
%TO.N,unconnected-(P1-OUT--Pad2)*%
X85180000Y-35560000D03*
%TO.P,P1,3,OUT+*%
%TO.N,Net-(P1-OUT+)*%
X85180000Y-44860000D03*
%TO.P,P1,4,IN+*%
%TO.N,+15V*%
X69680000Y-44860000D03*
%TD*%
D14*
%TO.P,DC_OUT9,1,Pin_1*%
%TO.N,+15V*%
X20320000Y-144855000D03*
D17*
%TO.P,DC_OUT9,2,Pin_2*%
%TO.N,Net-(D9-A)*%
X20320000Y-142315000D03*
%TD*%
D15*
%TO.P,Q5,1,B*%
%TO.N,Net-(Q5-B)*%
X30480000Y-81280000D03*
D16*
%TO.P,Q5,2,C*%
%TO.N,Net-(D5-A)*%
X33020000Y-81280000D03*
%TO.P,Q5,3,E*%
%TO.N,GND*%
X35560000Y-81280000D03*
%TD*%
D12*
%TO.P,D6,1,K*%
%TO.N,+15V*%
X27940000Y-101600000D03*
D13*
%TO.P,D6,2,A*%
%TO.N,Net-(D6-A)*%
X38100000Y-101600000D03*
%TD*%
D18*
%TO.P,R14,1*%
%TO.N,Net-(R14-Pad1)*%
X46990000Y-69945000D03*
D19*
%TO.P,R14,2*%
%TO.N,GND*%
X54610000Y-69945000D03*
%TD*%
D18*
%TO.P,R17,1*%
%TO.N,Net-(R17-Pad1)*%
X46990000Y-115665000D03*
D19*
%TO.P,R17,2*%
%TO.N,GND*%
X54610000Y-115665000D03*
%TD*%
D14*
%TO.P,DC_OUT8,1,Pin_1*%
%TO.N,+15V*%
X20320000Y-129615000D03*
D17*
%TO.P,DC_OUT8,2,Pin_2*%
%TO.N,Net-(D8-A)*%
X20320000Y-127075000D03*
%TD*%
D14*
%TO.P,DC_OUT10,1,Pin_1*%
%TO.N,+15V*%
X20320000Y-160095000D03*
D17*
%TO.P,DC_OUT10,2,Pin_2*%
%TO.N,Net-(D10-A)*%
X20320000Y-157555000D03*
%TD*%
D18*
%TO.P,R16,1*%
%TO.N,Net-(R16-Pad1)*%
X46990000Y-100425000D03*
D19*
%TO.P,R16,2*%
%TO.N,GND*%
X54610000Y-100425000D03*
%TD*%
D12*
%TO.P,D7,1,K*%
%TO.N,+15V*%
X27940000Y-116840000D03*
D13*
%TO.P,D7,2,A*%
%TO.N,Net-(D7-A)*%
X38100000Y-116840000D03*
%TD*%
D18*
%TO.P,R6,1*%
%TO.N,Net-(Q6-B)*%
X46990000Y-95345000D03*
D19*
%TO.P,R6,2*%
%TO.N,Net-(R16-Pad1)*%
X54610000Y-95345000D03*
%TD*%
D15*
%TO.P,Q8,1,B*%
%TO.N,Net-(Q8-B)*%
X30480000Y-127000000D03*
D16*
%TO.P,Q8,2,C*%
%TO.N,Net-(D8-A)*%
X33020000Y-127000000D03*
%TO.P,Q8,3,E*%
%TO.N,GND*%
X35560000Y-127000000D03*
%TD*%
D14*
%TO.P,DC_OUT3,1,Pin_1*%
%TO.N,+15V*%
X20320000Y-53415000D03*
D17*
%TO.P,DC_OUT3,2,Pin_2*%
%TO.N,Net-(D3-A)*%
X20320000Y-50875000D03*
%TD*%
D18*
%TO.P,R18,1*%
%TO.N,Net-(R18-Pad1)*%
X46990000Y-130905000D03*
D19*
%TO.P,R18,2*%
%TO.N,GND*%
X54610000Y-130905000D03*
%TD*%
D18*
%TO.P,R4,1*%
%TO.N,Net-(Q4-B)*%
X46990000Y-64865000D03*
D19*
%TO.P,R4,2*%
%TO.N,Net-(R14-Pad1)*%
X54610000Y-64865000D03*
%TD*%
D14*
%TO.P,+15V,1,Pin_1*%
%TO.N,+15V*%
X68580000Y-20320000D03*
%TD*%
D12*
%TO.P,D5,1,K*%
%TO.N,+15V*%
X27940000Y-86360000D03*
D13*
%TO.P,D5,2,A*%
%TO.N,Net-(D5-A)*%
X38100000Y-86360000D03*
%TD*%
D15*
%TO.P,Q7,1,B*%
%TO.N,Net-(Q7-B)*%
X30480000Y-111760000D03*
D16*
%TO.P,Q7,2,C*%
%TO.N,Net-(D7-A)*%
X33020000Y-111760000D03*
%TO.P,Q7,3,E*%
%TO.N,GND*%
X35560000Y-111760000D03*
%TD*%
D22*
%TO.P,U2,1,OA*%
%TO.N,Net-(Electrode_B1-Pin_1)*%
X73670000Y-61650000D03*
D19*
%TO.P,U2,2,VCC*%
%TO.N,Net-(P1-OUT+)*%
X76210000Y-61650000D03*
%TO.P,U2,3,VCC*%
X78750000Y-61650000D03*
%TO.P,U2,4,OB*%
%TO.N,Net-(Electrode_B1-Pin_2)*%
X81290000Y-61650000D03*
%TO.P,U2,5,GND*%
%TO.N,Net-(P2-OUT-)*%
X81290000Y-54030000D03*
%TO.P,U2,6,IA*%
%TO.N,Net-(U2-IA)*%
X78750000Y-54030000D03*
%TO.P,U2,7,IB*%
%TO.N,Net-(U2-IB)*%
X76210000Y-54030000D03*
%TO.P,U2,8,GND*%
%TO.N,Net-(P2-OUT-)*%
X73670000Y-54030000D03*
%TD*%
D14*
%TO.P,DC_OUT6,1,Pin_1*%
%TO.N,+15V*%
X20320000Y-99135000D03*
D17*
%TO.P,DC_OUT6,2,Pin_2*%
%TO.N,Net-(D6-A)*%
X20320000Y-96595000D03*
%TD*%
D14*
%TO.P,DC_OUT4,1,Pin_1*%
%TO.N,+15V*%
X20320000Y-68655000D03*
D17*
%TO.P,DC_OUT4,2,Pin_2*%
%TO.N,Net-(D4-A)*%
X20320000Y-66115000D03*
%TD*%
D18*
%TO.P,R3,1*%
%TO.N,Net-(Q3-B)*%
X46990000Y-49625000D03*
D19*
%TO.P,R3,2*%
%TO.N,Net-(U1-25_DAC)*%
X54610000Y-49625000D03*
%TD*%
D18*
%TO.P,R5,1*%
%TO.N,Net-(Q5-B)*%
X46990000Y-80105000D03*
D19*
%TO.P,R5,2*%
%TO.N,Net-(R15-Pad1)*%
X54610000Y-80105000D03*
%TD*%
D18*
%TO.P,R9,1*%
%TO.N,Net-(Q9-B)*%
X46990000Y-141065000D03*
D19*
%TO.P,R9,2*%
%TO.N,Net-(R19-Pad1)*%
X54610000Y-141065000D03*
%TD*%
D15*
%TO.P,Q9,1,B*%
%TO.N,Net-(Q9-B)*%
X30480000Y-142240000D03*
D16*
%TO.P,Q9,2,C*%
%TO.N,Net-(D9-A)*%
X33020000Y-142240000D03*
%TO.P,Q9,3,E*%
%TO.N,GND*%
X35560000Y-142240000D03*
%TD*%
D18*
%TO.P,R19,1*%
%TO.N,Net-(R19-Pad1)*%
X46990000Y-146145000D03*
D19*
%TO.P,R19,2*%
%TO.N,GND*%
X54610000Y-146145000D03*
%TD*%
D12*
%TO.P,D3,1,K*%
%TO.N,+15V*%
X27940000Y-55880000D03*
D13*
%TO.P,D3,2,A*%
%TO.N,Net-(D3-A)*%
X38100000Y-55880000D03*
%TD*%
D15*
%TO.P,Q6,1,B*%
%TO.N,Net-(Q6-B)*%
X30480000Y-96520000D03*
D16*
%TO.P,Q6,2,C*%
%TO.N,Net-(D6-A)*%
X33020000Y-96520000D03*
%TO.P,Q6,3,E*%
%TO.N,GND*%
X35560000Y-96520000D03*
%TD*%
D12*
%TO.P,D9,1,K*%
%TO.N,+15V*%
X27940000Y-147320000D03*
D13*
%TO.P,D9,2,A*%
%TO.N,Net-(D9-A)*%
X38100000Y-147320000D03*
%TD*%
D23*
%TO.N,GND*%
X54610000Y-85185000D02*
X54610000Y-86311900D01*
X35560000Y-142240000D02*
X35560000Y-127000000D01*
X35560000Y-111760000D02*
X35560000Y-127000000D01*
X55784100Y-72246000D02*
X55784100Y-82884000D01*
X54610000Y-100988400D02*
X54610000Y-101551900D01*
X55781400Y-143846700D02*
X54610000Y-145018100D01*
X55784100Y-82884000D02*
X54610000Y-84058100D01*
X54610000Y-100425000D02*
X54610000Y-99298100D01*
X69680000Y-25476900D02*
X73660000Y-21496900D01*
X53482800Y-102679100D02*
X54610000Y-101551900D01*
X53439100Y-96520000D02*
X36839400Y-96520000D01*
X53482800Y-113410900D02*
X53482800Y-102679100D01*
X54610000Y-53578100D02*
X55736900Y-52451200D01*
X35560000Y-96520000D02*
X36839400Y-96520000D01*
X54610000Y-130905000D02*
X54610000Y-132031900D01*
X54610000Y-54141500D02*
X54610000Y-53578100D01*
X35560000Y-81280000D02*
X35560000Y-66040000D01*
X35560000Y-35560000D02*
X35560000Y-20320000D01*
X54610000Y-100988400D02*
X54610000Y-100425000D01*
X54610000Y-115101500D02*
X54610000Y-114538100D01*
X54610000Y-114538100D02*
X53482800Y-113410900D01*
X55736900Y-41718800D02*
X54610000Y-40591900D01*
X54610000Y-115101500D02*
X54610000Y-115665000D01*
X35560000Y-96520000D02*
X35560000Y-81280000D01*
X54610000Y-54141500D02*
X54610000Y-54705000D01*
X55781400Y-128606700D02*
X54610000Y-129778100D01*
X54610000Y-71071900D02*
X55784100Y-72246000D01*
X54610000Y-146145000D02*
X54610000Y-145018100D01*
X35560000Y-157480000D02*
X35560000Y-142240000D01*
X53439100Y-98127200D02*
X53439100Y-96520000D01*
X54610000Y-115665000D02*
X54610000Y-116791900D01*
X54610000Y-85185000D02*
X54610000Y-84058100D01*
X35560000Y-50800000D02*
X35560000Y-35560000D01*
X54610000Y-130905000D02*
X54610000Y-129778100D01*
X55781400Y-133203300D02*
X55781400Y-143846700D01*
X73660000Y-20320000D02*
X73660000Y-21496900D01*
X53439100Y-87482800D02*
X54610000Y-86311900D01*
X54610000Y-69945000D02*
X54610000Y-71071900D01*
X53439100Y-96520000D02*
X53439100Y-87482800D01*
X54610000Y-132031900D02*
X55781400Y-133203300D01*
X54610000Y-39465000D02*
X54610000Y-40591900D01*
X54610000Y-116791900D02*
X55781400Y-117963300D01*
X54610000Y-99298100D02*
X53439100Y-98127200D01*
X55781400Y-117963300D02*
X55781400Y-128606700D01*
X55736900Y-52451200D02*
X55736900Y-41718800D01*
X35560000Y-111760000D02*
X35560000Y-96520000D01*
X69680000Y-35560000D02*
X69680000Y-25476900D01*
X35560000Y-66040000D02*
X35560000Y-50800000D01*
%TO.N,Net-(R10-Pad2)*%
X57364900Y-152423200D02*
X54610000Y-155178100D01*
X66040000Y-97790000D02*
X57364900Y-106465100D01*
X54610000Y-156305000D02*
X54610000Y-155178100D01*
X57364900Y-106465100D02*
X57364900Y-152423200D01*
%TO.N,Net-(R18-Pad1)*%
X48403100Y-130905000D02*
X53483100Y-125825000D01*
X54610000Y-125825000D02*
X53483100Y-125825000D01*
X46990000Y-130905000D02*
X48403100Y-130905000D01*
%TO.N,Net-(R15-Pad1)*%
X48403100Y-85185000D02*
X46990000Y-85185000D01*
X54610000Y-80105000D02*
X53483100Y-80105000D01*
X53483100Y-80105000D02*
X48403100Y-85185000D01*
%TO.N,Net-(R12-Pad1)*%
X54610000Y-34385000D02*
X53483100Y-34385000D01*
X48403100Y-39465000D02*
X46990000Y-39465000D01*
X53483100Y-34385000D02*
X48403100Y-39465000D01*
%TO.N,+15V*%
X27940000Y-68655000D02*
X27940000Y-55880000D01*
X27940000Y-55880000D02*
X27940000Y-53415000D01*
X27940000Y-132080000D02*
X27940000Y-144855000D01*
X20320000Y-53415000D02*
X21496900Y-53415000D01*
X27940000Y-147320000D02*
X27940000Y-160095000D01*
X27940000Y-25400000D02*
X23961900Y-25400000D01*
X27940000Y-71120000D02*
X27940000Y-68655000D01*
X23828100Y-25533800D02*
X23961900Y-25400000D01*
X27940000Y-53415000D02*
X27940000Y-40640000D01*
X27940000Y-83895000D02*
X27940000Y-71120000D01*
X20320000Y-114375000D02*
X21496900Y-114375000D01*
X26863100Y-40033100D02*
X23828100Y-36998100D01*
X27940000Y-114375000D02*
X27940000Y-101600000D01*
X70768900Y-45948900D02*
X70768900Y-77651100D01*
X27940000Y-162560000D02*
X27940000Y-161483100D01*
X27940000Y-99135000D02*
X27940000Y-86360000D01*
X27940000Y-144855000D02*
X21496900Y-144855000D01*
X20320000Y-144855000D02*
X21496900Y-144855000D01*
X27940000Y-83895000D02*
X21496900Y-83895000D01*
X27940000Y-160095000D02*
X27940000Y-161483100D01*
X20320000Y-38175000D02*
X20320000Y-36998100D01*
X70768900Y-77651100D02*
X69680000Y-78740000D01*
X69680000Y-44860000D02*
X70768900Y-45948900D01*
X27940000Y-129615000D02*
X21496900Y-129615000D01*
X27940000Y-116840000D02*
X27940000Y-114375000D01*
X23961900Y-25400000D02*
X21496900Y-22935000D01*
X27940000Y-129615000D02*
X27940000Y-116840000D01*
X23828100Y-36998100D02*
X23828100Y-25533800D01*
X27940000Y-160095000D02*
X21496900Y-160095000D01*
X27940000Y-68655000D02*
X21496900Y-68655000D01*
X27940000Y-101600000D02*
X27940000Y-99135000D01*
X27940000Y-86360000D02*
X27940000Y-83895000D01*
X27940000Y-144855000D02*
X27940000Y-147320000D01*
X27940000Y-53415000D02*
X21496900Y-53415000D01*
X20320000Y-160095000D02*
X21496900Y-160095000D01*
X27940000Y-40640000D02*
X26863100Y-40640000D01*
X20320000Y-83895000D02*
X21496900Y-83895000D01*
X23828100Y-36998100D02*
X20320000Y-36998100D01*
X26863100Y-40640000D02*
X26863100Y-40033100D01*
X20320000Y-22935000D02*
X21496900Y-22935000D01*
X27940000Y-132080000D02*
X27940000Y-129615000D01*
X27940000Y-99135000D02*
X21496900Y-99135000D01*
X20320000Y-129615000D02*
X21496900Y-129615000D01*
X20320000Y-68655000D02*
X21496900Y-68655000D01*
X20320000Y-99135000D02*
X21496900Y-99135000D01*
X27940000Y-114375000D02*
X21496900Y-114375000D01*
%TO.N,Net-(Electrode_B1-Pin_1)*%
X83820000Y-20320000D02*
X83820000Y-21496900D01*
X73670000Y-61650000D02*
X73670000Y-60523100D01*
X74796900Y-30520000D02*
X83820000Y-21496900D01*
X73670000Y-60523100D02*
X74796900Y-59396200D01*
X74796900Y-59396200D02*
X74796900Y-30520000D01*
%TO.N,Net-(Electrode_B1-Pin_2)*%
X84996900Y-27982500D02*
X84996900Y-19301500D01*
X82416900Y-59396200D02*
X82416900Y-30562500D01*
X81290000Y-60523100D02*
X82416900Y-59396200D01*
X84996900Y-19301500D02*
X84652300Y-18956900D01*
X84652300Y-18956900D02*
X83820000Y-18956900D01*
X81290000Y-61650000D02*
X81290000Y-60523100D01*
X83820000Y-17780000D02*
X83820000Y-18956900D01*
X82416900Y-30562500D02*
X84996900Y-27982500D01*
%TO.N,Net-(P2-OUT-)*%
X89369200Y-104140000D02*
X91006100Y-102503100D01*
X91006100Y-75266100D02*
X85180000Y-69440000D01*
X66040000Y-133350000D02*
X67856500Y-131533500D01*
X91006100Y-102503100D02*
X91006100Y-75266100D01*
X67856500Y-124729700D02*
X88446200Y-104140000D01*
X88446200Y-104140000D02*
X89369200Y-104140000D01*
X67856500Y-131533500D02*
X67856500Y-124729700D01*
%TO.N,Net-(U2-IA)*%
X78750000Y-54030000D02*
X78750000Y-55156900D01*
X90539900Y-101230100D02*
X88900000Y-102870000D01*
X78750000Y-55156900D02*
X79876900Y-56283800D01*
X79876900Y-56283800D02*
X79876900Y-70000200D01*
X90539900Y-80663200D02*
X90539900Y-101230100D01*
X79876900Y-70000200D02*
X90539900Y-80663200D01*
%TO.N,Net-(U2-IB)*%
X76210000Y-54030000D02*
X76210000Y-55156900D01*
X77336900Y-88766900D02*
X88900000Y-100330000D01*
X76210000Y-55156900D02*
X77336900Y-56283800D01*
X77336900Y-56283800D02*
X77336900Y-88766900D01*
%TO.N,Net-(P2-OUT+)*%
X90087700Y-100874400D02*
X89455200Y-101506900D01*
X85180000Y-78740000D02*
X90087700Y-83647700D01*
X89455200Y-101506900D02*
X88586000Y-101506900D01*
X67277000Y-129573000D02*
X66040000Y-130810000D01*
X67277000Y-122815900D02*
X67277000Y-129573000D01*
X88586000Y-101506900D02*
X67277000Y-122815900D01*
X90087700Y-83647700D02*
X90087700Y-100874400D01*
%TD*%
M02*
