solid OpenSCAD_Model
  facet normal 0 0 -1
    outer loop
      vertex 24 5 0
      vertex -25.6 7 0
      vertex 25.6 7 0
    endloop
  endfacet
  facet normal 0 0 -1
    outer loop
      vertex -32 -2 0
      vertex -32 0 0
      vertex -25.6 0 0
    endloop
  endfacet
  facet normal 0 0 -1
    outer loop
      vertex -25.6 7 0
      vertex -24 5 0
      vertex -25.6 0 0
    endloop
  endfacet
  facet normal -0 -0 -1
    outer loop
      vertex 32 0 0
      vertex 32 -2 0
      vertex 25.6 0 0
    endloop
  endfacet
  facet normal 0 0 -1
    outer loop
      vertex 24 5 0
      vertex 25.6 0 0
      vertex 24 -2 0
    endloop
  endfacet
  facet normal 0 -0 -1
    outer loop
      vertex 25.6 0 0
      vertex 32 -2 0
      vertex 24 -2 0
    endloop
  endfacet
  facet normal 0 0 -1
    outer loop
      vertex 24 5 0
      vertex 25.6 7 0
      vertex 25.6 0 0
    endloop
  endfacet
  facet normal 0 0 -1
    outer loop
      vertex -24 5 0
      vertex -25.6 7 0
      vertex 24 5 0
    endloop
  endfacet
  facet normal 0 0 -1
    outer loop
      vertex -24 -2 0
      vertex -25.6 0 0
      vertex -24 5 0
    endloop
  endfacet
  facet normal 0 0 -1
    outer loop
      vertex -24 -2 0
      vertex -32 -2 0
      vertex -25.6 0 0
    endloop
  endfacet
  facet normal 0 -1 0
    outer loop
      vertex 24 5 0
      vertex -24 5 15
      vertex -24 5 0
    endloop
  endfacet
  facet normal 0 -1 0
    outer loop
      vertex 24 5 0
      vertex 24 5 15
      vertex -24 5 15
    endloop
  endfacet
  facet normal -1 0 0
    outer loop
      vertex 24 -2 0
      vertex 24 5 15
      vertex 24 5 0
    endloop
  endfacet
  facet normal -1 0 0
    outer loop
      vertex 24 -2 0
      vertex 24 -2 15
      vertex 24 5 15
    endloop
  endfacet
  facet normal -0 -1 -0
    outer loop
      vertex 28.7815 -2 6.0346
      vertex 28.691 -2 6.04894
      vertex 32 -2 0
    endloop
  endfacet
  facet normal -0.454246 1.15134e-05 -0.890876
    outer loop
      vertex -28.6224 0 7.91614
      vertex -28.5516 0 7.88004
      vertex -28.5795 -2 7.89424
    endloop
  endfacet
  facet normal 1 0 0
    outer loop
      vertex 32 0 0
      vertex 32 -2 15
      vertex 32 -2 0
    endloop
  endfacet
  facet normal 1 0 -0
    outer loop
      vertex 32 0 0
      vertex 32 0 15
      vertex 32 -2 15
    endloop
  endfacet
  facet normal 0.156385 0 0.987696
    outer loop
      vertex -29.1854 -2 6.02937
      vertex -29.309 -0 6.04894
      vertex -29.309 -2 6.04894
    endloop
  endfacet
  facet normal -0 1 0
    outer loop
      vertex 29.0125 0 7.99802
      vertex 29 -0 8
      vertex 32 0 15
    endloop
  endfacet
  facet normal 1 0 0
    outer loop
      vertex 25.6 7 0
      vertex 25.6 0 15
      vertex 25.6 0 0
    endloop
  endfacet
  facet normal 1 0 -0
    outer loop
      vertex 25.6 7 0
      vertex 25.6 7 15
      vertex 25.6 0 15
    endloop
  endfacet
  facet normal 0 1 0
    outer loop
      vertex -25.6 7 0
      vertex 25.6 7 15
      vertex 25.6 7 0
    endloop
  endfacet
  facet normal 0 1 0
    outer loop
      vertex -25.6 7 0
      vertex -25.6 7 15
      vertex 25.6 7 15
    endloop
  endfacet
  facet normal -1 0 0
    outer loop
      vertex -25.6 0 0
      vertex -25.6 7 15
      vertex -25.6 7 0
    endloop
  endfacet
  facet normal -1 0 0
    outer loop
      vertex -25.6 0 0
      vertex -25.6 0 15
      vertex -25.6 7 15
    endloop
  endfacet
  facet normal -0.156449 0 -0.987686
    outer loop
      vertex 29 -2 8
      vertex 29 -0 8
      vertex 29.0125 0 7.99802
    endloop
  endfacet
  facet normal -0.891062 -0 -0.453881
    outer loop
      vertex 29.809 -0 7.58779
      vertex 29.8658 -2 7.47628
      vertex 29.809 -2 7.58779
    endloop
  endfacet
  facet normal -1 0 0
    outer loop
      vertex -32 -2 0
      vertex -32 0 15
      vertex -32 0 0
    endloop
  endfacet
  facet normal -1 0 0
    outer loop
      vertex -32 -2 0
      vertex -32 -2 15
      vertex -32 0 15
    endloop
  endfacet
  facet normal 0 -1 -0
    outer loop
      vertex -29.9804 -2 6.87639
      vertex -32 -2 0
      vertex -29.9511 -2 6.69098
    endloop
  endfacet
  facet normal 0 -1 0
    outer loop
      vertex -24 -2 0
      vertex -24 -2 15
      vertex -32 -2 15
    endloop
  endfacet
  facet normal 1 0 0
    outer loop
      vertex -24 5 0
      vertex -24 -2 15
      vertex -24 -2 0
    endloop
  endfacet
  facet normal 1 0 -0
    outer loop
      vertex -24 5 0
      vertex -24 5 15
      vertex -24 -2 15
    endloop
  endfacet
  facet normal 0 0 1
    outer loop
      vertex 25.6 7 15
      vertex -25.6 7 15
      vertex 24 5 15
    endloop
  endfacet
  facet normal 0 0 1
    outer loop
      vertex -25.6 0 15
      vertex -32 0 15
      vertex -32 -2 15
    endloop
  endfacet
  facet normal 0 0 1
    outer loop
      vertex -25.6 0 15
      vertex -24 5 15
      vertex -25.6 7 15
    endloop
  endfacet
  facet normal -0 0 1
    outer loop
      vertex 25.6 0 15
      vertex 32 -2 15
      vertex 32 0 15
    endloop
  endfacet
  facet normal 0 0 1
    outer loop
      vertex 24 -2 15
      vertex 25.6 0 15
      vertex 24 5 15
    endloop
  endfacet
  facet normal 0 0 1
    outer loop
      vertex 24 -2 15
      vertex 32 -2 15
      vertex 25.6 0 15
    endloop
  endfacet
  facet normal 0 -0 1
    outer loop
      vertex 25.6 0 15
      vertex 25.6 7 15
      vertex 24 5 15
    endloop
  endfacet
  facet normal 0 0 1
    outer loop
      vertex 24 5 15
      vertex -25.6 7 15
      vertex -24 5 15
    endloop
  endfacet
  facet normal 0 0 1
    outer loop
      vertex -24 5 15
      vertex -25.6 0 15
      vertex -24 -2 15
    endloop
  endfacet
  facet normal 0 0 1
    outer loop
      vertex -25.6 0 15
      vertex -32 -2 15
      vertex -24 -2 15
    endloop
  endfacet
  facet normal 0 -1 0
    outer loop
      vertex 24 -2 0
      vertex 32 -2 0
      vertex 28.691 -2 6.04894
    endloop
  endfacet
  facet normal 0 -1 0
    outer loop
      vertex 24 -2 0
      vertex 28 -2 7
      vertex 24 -2 15
    endloop
  endfacet
  facet normal -0.454041 1.70685e-05 -0.890981
    outer loop
      vertex -28.691 -2 7.95106
      vertex -28.6224 0 7.91614
      vertex -28.5795 -2 7.89424
    endloop
  endfacet
  facet normal 0 -1 0
    outer loop
      vertex 24 -2 0
      vertex 28.5795 -2 6.10576
      vertex 28.4122 -2 6.19098
    endloop
  endfacet
  facet normal -0.453891 5.26752e-06 0.891057
    outer loop
      vertex -28.5795 -2 6.10576
      vertex -28.4122 -2 6.19098
      vertex -28.5516 -0 6.11996
    endloop
  endfacet
  facet normal 0 -1 0
    outer loop
      vertex 24 -2 0
      vertex 28.191 -2 6.41222
      vertex 28.1058 -2 6.57948
    endloop
  endfacet
  facet normal -0.453951 0 0.891027
    outer loop
      vertex -28.5516 -0 6.11996
      vertex -28.4122 -2 6.19098
      vertex -28.4122 -0 6.19098
    endloop
  endfacet
  facet normal 0 -1 0
    outer loop
      vertex 24 -2 15
      vertex 28.0489 -2 7.30902
      vertex 28.0748 -2 7.35976
    endloop
  endfacet
  facet normal 0 -1 -0
    outer loop
      vertex 28.0489 -2 6.69098
      vertex 24 -2 0
      vertex 28.1058 -2 6.57948
    endloop
  endfacet
  facet normal 0 -1 0
    outer loop
      vertex 24 -2 0
      vertex 28.0489 -2 6.69098
      vertex 28.0196 -2 6.87639
    endloop
  endfacet
  facet normal 0.890794 9.81675e-06 -0.454408
    outer loop
      vertex -29.9511 -0 7.30902
      vertex -29.88 0 7.4484
      vertex -29.8942 -2 7.42052
    endloop
  endfacet
  facet normal 0 -1 0
    outer loop
      vertex 24 -2 0
      vertex 28.691 -2 6.04894
      vertex 28.5795 -2 6.10576
    endloop
  endfacet
  facet normal 0.890722 0 -0.454548
    outer loop
      vertex -29.9511 -2 7.30902
      vertex -29.9511 -0 7.30902
      vertex -29.8942 -2 7.42052
    endloop
  endfacet
  facet normal 0 -1 0
    outer loop
      vertex 24 -2 0
      vertex 28.4122 -2 6.19098
      vertex 28.3237 -2 6.27948
    endloop
  endfacet
  facet normal -0.891062 -0 -0.453881
    outer loop
      vertex -28.191 -0 7.58779
      vertex -28.1342 -2 7.47628
      vertex -28.191 -2 7.58779
    endloop
  endfacet
  facet normal 0 -1 0
    outer loop
      vertex 24 -2 15
      vertex 28 -2 7
      vertex 28.0196 -2 7.12361
    endloop
  endfacet
  facet normal -0.707171 0 -0.707043
    outer loop
      vertex -28.4122 -2 7.80902
      vertex -28.4122 0 7.80902
      vertex -28.3016 0 7.6984
    endloop
  endfacet
  facet normal -0.454041 0 0.890981
    outer loop
      vertex -28.691 -0 6.04894
      vertex -28.691 -2 6.04894
      vertex -28.5795 -2 6.10576
    endloop
  endfacet
  facet normal -0.156385 0 0.987696
    outer loop
      vertex -28.691 -0 6.04894
      vertex -28.8146 -2 6.02937
      vertex -28.691 -2 6.04894
    endloop
  endfacet
  facet normal 0 -1 0
    outer loop
      vertex 24 -2 15
      vertex 28.0196 -2 7.12361
      vertex 28.0489 -2 7.30902
    endloop
  endfacet
  facet normal 0.453933 1.10008e-05 0.891036
    outer loop
      vertex -29.4763 -2 6.13417
      vertex -29.309 -2 6.04894
      vertex -29.3995 0 6.09502
    endloop
  endfacet
  facet normal 0 -1 0
    outer loop
      vertex 24 -2 0
      vertex 28.3237 -2 6.27948
      vertex 28.191 -2 6.41222
    endloop
  endfacet
  facet normal 0.454341 -8.717e-06 0.890828
    outer loop
      vertex -29.4763 -2 6.13417
      vertex -29.3995 0 6.09502
      vertex -29.4484 0 6.11996
    endloop
  endfacet
  facet normal 0 -1 0
    outer loop
      vertex 24 -2 0
      vertex 28.0196 -2 6.87639
      vertex 28 -2 7
    endloop
  endfacet
  facet normal -0 1 0
    outer loop
      vertex -29 -0 8
      vertex -25.6 0 15
      vertex -28.8455 0 7.97553
    endloop
  endfacet
  facet normal 0 1 0
    outer loop
      vertex -32 0 15
      vertex -29.4484 -0 7.88004
      vertex -29.5878 -0 7.80902
    endloop
  endfacet
  facet normal -0.707107 0 0.707107
    outer loop
      vertex 29.5878 -0 6.19098
      vertex 29.5878 -2 6.19098
      vertex 29.6763 -2 6.27948
    endloop
  endfacet
  facet normal 0 1 -0
    outer loop
      vertex -32 0 15
      vertex -25.6 0 15
      vertex -29 -0 8
    endloop
  endfacet
  facet normal 0.890675 0 -0.454641
    outer loop
      vertex 28.0489 -2 7.30902
      vertex 28.0489 -0 7.30902
      vertex 28.0748 -2 7.35976
    endloop
  endfacet
  facet normal 0 1 -0
    outer loop
      vertex -32 0 0
      vertex -32 0 15
      vertex -30 -0 7
    endloop
  endfacet
  facet normal 0.890794 7.43926e-06 -0.454408
    outer loop
      vertex 28.0489 -0 7.30902
      vertex 28.12 -0 7.4484
      vertex 28.0748 -2 7.35976
    endloop
  endfacet
  facet normal -0 1 -0
    outer loop
      vertex -32 0 15
      vertex -29.6984 0 7.6984
      vertex -29.809 -0 7.58779
    endloop
  endfacet
  facet normal 0.890762 1.09073e-05 -0.45447
    outer loop
      vertex 28.0748 -2 7.35976
      vertex 28.12 -0 7.4484
      vertex 28.1058 -2 7.42052
    endloop
  endfacet
  facet normal 0 1 0
    outer loop
      vertex -32 0 15
      vertex -29.309 -0 7.95106
      vertex -29.4484 -0 7.88004
    endloop
  endfacet
  facet normal 0.156432 -3.18042e-06 0.987689
    outer loop
      vertex 28.691 -0 6.04894
      vertex 28.7815 -2 6.0346
      vertex 28.8455 0 6.02447
    endloop
  endfacet
  facet normal -0 1 -0
    outer loop
      vertex -32 0 15
      vertex -29.1545 0 7.97553
      vertex -29.309 -0 7.95106
    endloop
  endfacet
  facet normal 0.156501 0 0.987678
    outer loop
      vertex 28.691 -0 6.04894
      vertex 28.691 -2 6.04894
      vertex 28.7815 -2 6.0346
    endloop
  endfacet
  facet normal -0 1 -0
    outer loop
      vertex -32 0 15
      vertex -29.88 0 7.4484
      vertex -29.9511 -0 7.30902
    endloop
  endfacet
  facet normal -0.156432 2.96307e-06 0.987689
    outer loop
      vertex 29.309 -0 6.04894
      vertex 29.1545 0 6.02447
      vertex 29.1854 -2 6.02937
    endloop
  endfacet
  facet normal 0 1 0
    outer loop
      vertex -32 0 0
      vertex -29.5878 0 6.19098
      vertex -29.4484 0 6.11996
    endloop
  endfacet
  facet normal -0.156385 0 0.987696
    outer loop
      vertex 29.309 -2 6.04894
      vertex 29.309 -0 6.04894
      vertex 29.1854 -2 6.02937
    endloop
  endfacet
  facet normal 0 1 0
    outer loop
      vertex -32 0 15
      vertex -29.5878 -0 7.80902
      vertex -29.6984 0 7.6984
    endloop
  endfacet
  facet normal 0.156432 -0 0.987689
    outer loop
      vertex 29 -2 6
      vertex 29 -0 6
      vertex 28.8455 0 6.02447
    endloop
  endfacet
  facet normal 0 1 0
    outer loop
      vertex -32 0 15
      vertex -29.809 -0 7.58779
      vertex -29.88 0 7.4484
    endloop
  endfacet
  facet normal 0.156432 2.96307e-06 -0.987689
    outer loop
      vertex 28.691 -0 7.95106
      vertex 28.8455 0 7.97553
      vertex 28.8146 -2 7.97063
    endloop
  endfacet
  facet normal -0 1 0
    outer loop
      vertex -32 0 0
      vertex -29.9511 -0 6.69098
      vertex -29.88 0 6.5516
    endloop
  endfacet
  facet normal 0.156385 0 -0.987696
    outer loop
      vertex 28.691 -2 7.95106
      vertex 28.691 -0 7.95106
      vertex 28.8146 -2 7.97063
    endloop
  endfacet
  facet normal -0 1 0
    outer loop
      vertex -32 0 0
      vertex -29.809 -0 6.41222
      vertex -29.6984 0 6.3016
    endloop
  endfacet
  facet normal 0.891052 -0 0.453901
    outer loop
      vertex 28.191 -2 6.41222
      vertex 28.191 -0 6.41222
      vertex 28.12 -0 6.5516
    endloop
  endfacet
  facet normal 0 1 0
    outer loop
      vertex -32 0 15
      vertex -29 -0 8
      vertex -29.1545 0 7.97553
    endloop
  endfacet
  facet normal -0.98766 1.30509e-07 -0.156611
    outer loop
      vertex 30 -2 7
      vertex 29.9706 -2 7.18541
      vertex 29.9755 0 7.15451
    endloop
  endfacet
  facet normal 0 1 -0
    outer loop
      vertex -32 0 0
      vertex -29.9755 0 6.84549
      vertex -29.9511 -0 6.69098
    endloop
  endfacet
  facet normal -0.987661 -0 -0.156609
    outer loop
      vertex 30 -0 7
      vertex 30 -2 7
      vertex 29.9755 0 7.15451
    endloop
  endfacet
  facet normal 0 1 0
    outer loop
      vertex -32 0 0
      vertex -29.6984 0 6.3016
      vertex -29.5878 0 6.19098
    endloop
  endfacet
  facet normal -0.987661 0 0.156609
    outer loop
      vertex 30 -2 7
      vertex 30 -0 7
      vertex 29.9755 0 6.84549
    endloop
  endfacet
  facet normal -0 1 0
    outer loop
      vertex -32 0 0
      vertex -30 -0 7
      vertex -29.9755 0 6.84549
    endloop
  endfacet
  facet normal -0.156463 2.46921e-06 0.987684
    outer loop
      vertex 29 -2 6
      vertex 29.1854 -2 6.02937
      vertex 29.1545 0 6.02447
    endloop
  endfacet
  facet normal 0 1 -0
    outer loop
      vertex -32 0 0
      vertex -29.88 0 6.5516
      vertex -29.809 -0 6.41222
    endloop
  endfacet
  facet normal -0.156432 0 0.987689
    outer loop
      vertex 29 -0 6
      vertex 29 -2 6
      vertex 29.1545 0 6.02447
    endloop
  endfacet
  facet normal 0 1 0
    outer loop
      vertex -32 0 15
      vertex -29.9511 -0 7.30902
      vertex -29.9755 0 7.15451
    endloop
  endfacet
  facet normal 0 1 -0
    outer loop
      vertex -28.691 -0 7.95106
      vertex -28.8455 0 7.97553
      vertex -25.6 0 15
    endloop
  endfacet
  facet normal -0 1 0
    outer loop
      vertex -28.6224 0 7.91614
      vertex -28.691 -0 7.95106
      vertex -25.6 0 15
    endloop
  endfacet
  facet normal 0.453951 6.32156e-06 0.891027
    outer loop
      vertex 28.691 -0 6.04894
      vertex 28.5516 0 6.11996
      vertex 28.5795 -2 6.10576
    endloop
  endfacet
  facet normal 0 1 0
    outer loop
      vertex -32 0 0
      vertex -29.4484 0 6.11996
      vertex -29.3995 0 6.09502
    endloop
  endfacet
  facet normal 0.454041 -0 0.890981
    outer loop
      vertex 28.691 -2 6.04894
      vertex 28.691 -0 6.04894
      vertex 28.5795 -2 6.10576
    endloop
  endfacet
  facet normal -0 1 -0
    outer loop
      vertex -32 0 15
      vertex -29.9755 0 7.15451
      vertex -30 -0 7
    endloop
  endfacet
  facet normal -0.707067 -0 -0.707147
    outer loop
      vertex 29.809 -0 7.58779
      vertex 29.809 -2 7.58779
      vertex 29.7205 -2 7.67628
    endloop
  endfacet
  facet normal 0.987661 -1.56609e-07 0.156609
    outer loop
      vertex 28.0245 0 6.84549
      vertex 28 -0 7
      vertex 28.0196 -2 6.87639
    endloop
  endfacet
  facet normal 0.987661 0 0.156607
    outer loop
      vertex 28.0196 -2 6.87639
      vertex 28 -0 7
      vertex 28 -2 7
    endloop
  endfacet
  facet normal 0 1 0
    outer loop
      vertex -25.6 0 0
      vertex -32 0 0
      vertex -29 -0 6
    endloop
  endfacet
  facet normal 0 1 -0
    outer loop
      vertex -28.191 -0 7.58779
      vertex -28.3016 0 7.6984
      vertex -25.6 0 15
    endloop
  endfacet
  facet normal -0 1 0
    outer loop
      vertex -25.6 0 0
      vertex -28 -0 7
      vertex -25.6 0 15
    endloop
  endfacet
  facet normal 0.707067 0 -0.707147
    outer loop
      vertex 28.191 -0 7.58779
      vertex 28.2795 -2 7.67628
      vertex 28.191 -2 7.58779
    endloop
  endfacet
  facet normal 0 1 -0
    outer loop
      vertex -25.6 0 15
      vertex -28 -0 7
      vertex -28.0245 0 7.15451
    endloop
  endfacet
  facet normal 0.987661 0 -0.156607
    outer loop
      vertex 28 -0 7
      vertex 28.0196 -2 7.12361
      vertex 28 -2 7
    endloop
  endfacet
  facet normal 0 1 0
    outer loop
      vertex -25.6 0 0
      vertex -28.0245 0 6.84549
      vertex -28 -0 7
    endloop
  endfacet
  facet normal 0.453891 5.26752e-06 0.891057
    outer loop
      vertex 28.4122 -2 6.19098
      vertex 28.5795 -2 6.10576
      vertex 28.5516 0 6.11996
    endloop
  endfacet
  facet normal -0 1 -0
    outer loop
      vertex -25.6 0 0
      vertex -28.0489 -0 6.69098
      vertex -28.0245 0 6.84549
    endloop
  endfacet
  facet normal 0.453951 0 0.891027
    outer loop
      vertex 28.4122 0 6.19098
      vertex 28.4122 -2 6.19098
      vertex 28.5516 0 6.11996
    endloop
  endfacet
  facet normal -0 1 0
    outer loop
      vertex -25.6 0 15
      vertex -28.0245 0 7.15451
      vertex -28.0489 -0 7.30902
    endloop
  endfacet
  facet normal 0 1 -0
    outer loop
      vertex -28.5516 0 7.88004
      vertex -28.6224 0 7.91614
      vertex -25.6 0 15
    endloop
  endfacet
  facet normal 0.453951 6.32156e-06 -0.891027
    outer loop
      vertex 28.5516 -0 7.88004
      vertex 28.691 -0 7.95106
      vertex 28.5795 -2 7.89424
    endloop
  endfacet
  facet normal 0.454041 0 -0.890981
    outer loop
      vertex 28.5795 -2 7.89424
      vertex 28.691 -0 7.95106
      vertex 28.691 -2 7.95106
    endloop
  endfacet
  facet normal 0 1 0
    outer loop
      vertex -25.6 0 0
      vertex -28.12 -0 6.5516
      vertex -28.0489 -0 6.69098
    endloop
  endfacet
  facet normal 0.987759 0 -0.155986
    outer loop
      vertex 28.0489 -2 7.30902
      vertex 28.0245 0 7.15451
      vertex 28.0489 -0 7.30902
    endloop
  endfacet
  facet normal -0 1 -0
    outer loop
      vertex -25.6 0 0
      vertex -28.4122 -0 6.19098
      vertex -28.3016 0 6.3016
    endloop
  endfacet
  facet normal -0.987759 1.00336e-05 -0.155986
    outer loop
      vertex 29.9511 -0 7.30902
      vertex 29.9755 0 7.15451
      vertex 29.9706 -2 7.18541
    endloop
  endfacet
  facet normal 0 1 0
    outer loop
      vertex -25.6 0 0
      vertex -28.5516 -0 6.11996
      vertex -28.4122 -0 6.19098
    endloop
  endfacet
  facet normal -0.987784 0 -0.155827
    outer loop
      vertex 29.9511 -2 7.30902
      vertex 29.9511 -0 7.30902
      vertex 29.9706 -2 7.18541
    endloop
  endfacet
  facet normal 0 1 0
    outer loop
      vertex -25.6 0 15
      vertex -28.12 -0 7.4484
      vertex -28.191 -0 7.58779
    endloop
  endfacet
  facet normal -0 1 0
    outer loop
      vertex -28.691 -0 6.04894
      vertex -28.5516 -0 6.11996
      vertex -25.6 0 0
    endloop
  endfacet
  facet normal -0.890841 -8.18087e-06 -0.454315
    outer loop
      vertex 29.9511 -2 7.30902
      vertex 29.8658 -2 7.47628
      vertex 29.88 0 7.4484
    endloop
  endfacet
  facet normal 0 1 0
    outer loop
      vertex -28.8455 0 6.02447
      vertex -28.691 -0 6.04894
      vertex -25.6 0 0
    endloop
  endfacet
  facet normal -0.890794 -0 -0.454408
    outer loop
      vertex 29.9511 -0 7.30902
      vertex 29.9511 -2 7.30902
      vertex 29.88 0 7.4484
    endloop
  endfacet
  facet normal 0.987743 -8.36126e-06 0.156091
    outer loop
      vertex 28.0196 -2 6.87639
      vertex 28.0489 -2 6.69098
      vertex 28.0245 0 6.84549
    endloop
  endfacet
  facet normal 0 1 0
    outer loop
      vertex -29.3995 0 6.09502
      vertex -29.309 -0 6.04894
      vertex -32 0 0
    endloop
  endfacet
  facet normal 0.987759 0 0.155986
    outer loop
      vertex 28.0245 0 6.84549
      vertex 28.0489 -2 6.69098
      vertex 28.0489 -0 6.69098
    endloop
  endfacet
  facet normal 0 1 0
    outer loop
      vertex -25.6 0 15
      vertex -28.0489 -0 7.30902
      vertex -28.12 -0 7.4484
    endloop
  endfacet
  facet normal -0.453891 5.26752e-06 -0.891057
    outer loop
      vertex 29.5878 -2 7.80902
      vertex 29.4205 -2 7.89424
      vertex 29.4484 -0 7.88004
    endloop
  endfacet
  facet normal 0 1 0
    outer loop
      vertex -29.309 -0 6.04894
      vertex -29.1545 0 6.02447
      vertex -32 0 0
    endloop
  endfacet
  facet normal -0.453951 -0 -0.891027
    outer loop
      vertex 29.5878 -0 7.80902
      vertex 29.5878 -2 7.80902
      vertex 29.4484 -0 7.88004
    endloop
  endfacet
  facet normal 0 1 0
    outer loop
      vertex -25.6 0 0
      vertex -28.3016 0 6.3016
      vertex -28.191 -0 6.41222
    endloop
  endfacet
  facet normal -0 1 0
    outer loop
      vertex -29 -0 6
      vertex -28.8455 0 6.02447
      vertex -25.6 0 0
    endloop
  endfacet
  facet normal 0 1 0
    outer loop
      vertex -29.1545 0 6.02447
      vertex -29 -0 6
      vertex -32 0 0
    endloop
  endfacet
  facet normal 0.707107 0 0.707107
    outer loop
      vertex 28.4122 0 6.19098
      vertex 28.3237 -2 6.27948
      vertex 28.4122 -2 6.19098
    endloop
  endfacet
  facet normal 0 1 0
    outer loop
      vertex -25.6 0 0
      vertex -28.191 -0 6.41222
      vertex -28.12 -0 6.5516
    endloop
  endfacet
  facet normal 0 1 -0
    outer loop
      vertex -28.4122 0 7.80902
      vertex -28.5516 0 7.88004
      vertex -25.6 0 15
    endloop
  endfacet
  facet normal 0 1 -0
    outer loop
      vertex -28.3016 0 7.6984
      vertex -28.4122 0 7.80902
      vertex -25.6 0 15
    endloop
  endfacet
  facet normal 0 -1 0
    outer loop
      vertex -32 -2 15
      vertex -28.2795 -2 7.67628
      vertex -28.191 -2 7.58779
    endloop
  endfacet
  facet normal 0.156463 2.46921e-06 -0.987684
    outer loop
      vertex 29 -2 8
      vertex 28.8146 -2 7.97063
      vertex 28.8455 0 7.97553
    endloop
  endfacet
  facet normal 0.156432 0 -0.987689
    outer loop
      vertex 29 -0 8
      vertex 29 -2 8
      vertex 28.8455 0 7.97553
    endloop
  endfacet
  facet normal 0 -1 0
    outer loop
      vertex -32 -2 15
      vertex -28.8146 -2 7.97063
      vertex -28.691 -2 7.95106
    endloop
  endfacet
  facet normal -0.453951 0 0.891027
    outer loop
      vertex 29.5878 -2 6.19098
      vertex 29.5878 -0 6.19098
      vertex 29.4484 0 6.11996
    endloop
  endfacet
  facet normal 0 -1 0
    outer loop
      vertex -32 -2 15
      vertex -29.4205 -2 7.89424
      vertex -29.309 -2 7.95106
    endloop
  endfacet
  facet normal -0.454041 0 0.890981
    outer loop
      vertex 29.309 -0 6.04894
      vertex 29.309 -2 6.04894
      vertex 29.4205 -2 6.10576
    endloop
  endfacet
  facet normal 0 -1 0
    outer loop
      vertex -32 -2 15
      vertex -29.7205 -2 7.67628
      vertex -29.5878 -2 7.80902
    endloop
  endfacet
  facet normal 0.453891 5.26752e-06 -0.891057
    outer loop
      vertex 28.5795 -2 7.89424
      vertex 28.4122 -2 7.80902
      vertex 28.5516 -0 7.88004
    endloop
  endfacet
  facet normal 0 -1 0
    outer loop
      vertex -32 -2 15
      vertex -29.309 -2 7.95106
      vertex -29.1854 -2 7.97063
    endloop
  endfacet
  facet normal 0.453951 0 -0.891027
    outer loop
      vertex 28.5516 -0 7.88004
      vertex 28.4122 -2 7.80902
      vertex 28.4122 -0 7.80902
    endloop
  endfacet
  facet normal 0 -1 0
    outer loop
      vertex -32 -2 15
      vertex -28.191 -2 7.58779
      vertex -24 -2 0
    endloop
  endfacet
  facet normal -0.987784 0 0.155827
    outer loop
      vertex 29.9511 -0 6.69098
      vertex 29.9511 -2 6.69098
      vertex 29.9706 -2 6.81459
    endloop
  endfacet
  facet normal 0 -1 0
    outer loop
      vertex -32 -2 15
      vertex -29.1854 -2 7.97063
      vertex -29 -2 8
    endloop
  endfacet
  facet normal 0.707171 0 -0.707043
    outer loop
      vertex 28.4122 -2 7.80902
      vertex 28.3016 0 7.6984
      vertex 28.4122 -0 7.80902
    endloop
  endfacet
  facet normal 0.891065 0 -0.453875
    outer loop
      vertex 28.191 -2 7.58779
      vertex 28.12 -0 7.4484
      vertex 28.191 -0 7.58779
    endloop
  endfacet
  facet normal 0.890722 0 0.454548
    outer loop
      vertex 28.0489 -0 6.69098
      vertex 28.0489 -2 6.69098
      vertex 28.1058 -2 6.57948
    endloop
  endfacet
  facet normal 0 -1 -0
    outer loop
      vertex -28 -2 7
      vertex -28.0294 -2 6.81459
      vertex -24 -2 0
    endloop
  endfacet
  facet normal -0.707213 -4.71511e-06 0.707
    outer loop
      vertex 29.6763 -2 6.27948
      vertex 29.809 -2 6.41222
      vertex 29.6984 0 6.3016
    endloop
  endfacet
  facet normal 0 -1 -0
    outer loop
      vertex -28.0294 -2 6.81459
      vertex -28.0489 -2 6.69098
      vertex -24 -2 0
    endloop
  endfacet
  facet normal 0 -1 0
    outer loop
      vertex -28.0294 -2 7.18541
      vertex -28 -2 7
      vertex -24 -2 0
    endloop
  endfacet
  facet normal -0.707171 0 0.707043
    outer loop
      vertex 29.6984 0 6.3016
      vertex 29.809 -2 6.41222
      vertex 29.809 -0 6.41222
    endloop
  endfacet
  facet normal -0.891052 0 0.453901
    outer loop
      vertex 29.809 -2 6.41222
      vertex 29.88 0 6.5516
      vertex 29.809 -0 6.41222
    endloop
  endfacet
  facet normal 0 -1 0
    outer loop
      vertex -32 -2 15
      vertex -28.5795 -2 7.89424
      vertex -28.4122 -2 7.80902
    endloop
  endfacet
  facet normal -0.156432 2.96307e-06 -0.987689
    outer loop
      vertex 29.1545 0 7.97553
      vertex 29.309 0 7.95106
      vertex 29.1854 -2 7.97063
    endloop
  endfacet
  facet normal 0 -1 -0
    outer loop
      vertex -28.0489 -2 6.69098
      vertex -28.1058 -2 6.57948
      vertex -24 -2 0
    endloop
  endfacet
  facet normal 0 -1 -0
    outer loop
      vertex -28.4122 -2 6.19098
      vertex -28.5795 -2 6.10576
      vertex -24 -2 0
    endloop
  endfacet
  facet normal -0.156385 0 -0.987696
    outer loop
      vertex 29.1854 -2 7.97063
      vertex 29.309 0 7.95106
      vertex 29.309 -2 7.95106
    endloop
  endfacet
  facet normal 0 -1 -0
    outer loop
      vertex -28.5795 -2 6.10576
      vertex -28.691 -2 6.04894
      vertex -24 -2 0
    endloop
  endfacet
  facet normal -0.454041 -0 -0.890981
    outer loop
      vertex 29.309 0 7.95106
      vertex 29.4205 -2 7.89424
      vertex 29.309 -2 7.95106
    endloop
  endfacet
  facet normal 0.707139 6.36431e-06 -0.707075
    outer loop
      vertex 28.191 -0 7.58779
      vertex 28.3016 0 7.6984
      vertex 28.2795 -2 7.67628
    endloop
  endfacet
  facet normal 0 -1 0
    outer loop
      vertex -28.191 -2 7.58779
      vertex -28.1342 -2 7.47628
      vertex -24 -2 0
    endloop
  endfacet
  facet normal 0 -1 -0
    outer loop
      vertex -28.691 -2 6.04894
      vertex -32 -2 0
      vertex -24 -2 0
    endloop
  endfacet
  facet normal 0.707213 4.71511e-06 -0.707
    outer loop
      vertex 28.4122 -2 7.80902
      vertex 28.2795 -2 7.67628
      vertex 28.3016 0 7.6984
    endloop
  endfacet
  facet normal 0 -1 -0
    outer loop
      vertex -28.8146 -2 6.02937
      vertex -32 -2 0
      vertex -28.691 -2 6.04894
    endloop
  endfacet
  facet normal 0.707171 -5.65762e-06 0.707043
    outer loop
      vertex 28.4122 0 6.19098
      vertex 28.3016 0 6.3016
      vertex 28.3237 -2 6.27948
    endloop
  endfacet
  facet normal 0 -1 -0
    outer loop
      vertex -29.309 -2 6.04894
      vertex -32 -2 0
      vertex -29.1854 -2 6.02937
    endloop
  endfacet
  facet normal 0.891068 3.78226e-07 -0.453871
    outer loop
      vertex 28.191 -2 7.58779
      vertex 28.1058 -2 7.42052
      vertex 28.12 -0 7.4484
    endloop
  endfacet
  facet normal 0 -1 0
    outer loop
      vertex -28.0489 -2 7.30902
      vertex -28.0294 -2 7.18541
      vertex -24 -2 0
    endloop
  endfacet
  facet normal 0 -1 0
    outer loop
      vertex -28.1342 -2 7.47628
      vertex -28.0489 -2 7.30902
      vertex -24 -2 0
    endloop
  endfacet
  facet normal 0 -1 -0
    outer loop
      vertex -29.1854 -2 6.02937
      vertex -32 -2 0
      vertex -29 -2 6
    endloop
  endfacet
  facet normal 0.891057 7.56487e-07 0.453892
    outer loop
      vertex 28.1058 -2 6.57948
      vertex 28.191 -2 6.41222
      vertex 28.12 -0 6.5516
    endloop
  endfacet
  facet normal -0 -1 0
    outer loop
      vertex -29.8942 -2 7.42052
      vertex -32 -2 15
      vertex -29.9511 -2 7.30902
    endloop
  endfacet
  facet normal 0 -1 0
    outer loop
      vertex -32 -2 15
      vertex -29.8942 -2 7.42052
      vertex -29.809 -2 7.58779
    endloop
  endfacet
  facet normal 0 -1 -0
    outer loop
      vertex -28.3237 -2 6.27948
      vertex -28.4122 -2 6.19098
      vertex -24 -2 0
    endloop
  endfacet
  facet normal -0.891057 7.56487e-07 0.453892
    outer loop
      vertex 29.809 -2 6.41222
      vertex 29.8942 -2 6.57948
      vertex 29.88 0 6.5516
    endloop
  endfacet
  facet normal 0 -1 -0
    outer loop
      vertex -29.4763 -2 6.13417
      vertex -32 -2 0
      vertex -29.309 -2 6.04894
    endloop
  endfacet
  facet normal -0.707139 6.36431e-06 -0.707075
    outer loop
      vertex 29.6984 0 7.6984
      vertex 29.809 -0 7.58779
      vertex 29.7205 -2 7.67628
    endloop
  endfacet
  facet normal -0.707171 -5.65762e-06 0.707043
    outer loop
      vertex 29.6984 0 6.3016
      vertex 29.5878 -0 6.19098
      vertex 29.6763 -2 6.27948
    endloop
  endfacet
  facet normal 0 -1 0
    outer loop
      vertex -32 -2 15
      vertex -29.5878 -2 7.80902
      vertex -29.4205 -2 7.89424
    endloop
  endfacet
  facet normal 0.987661 -1.56609e-07 -0.156609
    outer loop
      vertex 28 -0 7
      vertex 28.0245 0 7.15451
      vertex 28.0196 -2 7.12361
    endloop
  endfacet
  facet normal 0 -1 0
    outer loop
      vertex -32 -2 15
      vertex -29.809 -2 7.58779
      vertex -29.7205 -2 7.67628
    endloop
  endfacet
  facet normal 0 -1 -0
    outer loop
      vertex -29.8658 -2 6.52372
      vertex -32 -2 0
      vertex -29.809 -2 6.41222
    endloop
  endfacet
  facet normal -0.987759 1.00336e-05 0.155986
    outer loop
      vertex 29.9755 0 6.84549
      vertex 29.9511 -0 6.69098
      vertex 29.9706 -2 6.81459
    endloop
  endfacet
  facet normal 0 -1 -0
    outer loop
      vertex -29.6763 -2 6.27948
      vertex -32 -2 0
      vertex -29.5878 -2 6.19098
    endloop
  endfacet
  facet normal -0.156463 2.46921e-06 -0.987684
    outer loop
      vertex 29.1854 -2 7.97063
      vertex 29 -2 8
      vertex 29.1545 0 7.97553
    endloop
  endfacet
  facet normal 0 -1 -0
    outer loop
      vertex -29 -2 6
      vertex -32 -2 0
      vertex -28.8146 -2 6.02937
    endloop
  endfacet
  facet normal -0.453951 6.32156e-06 -0.891027
    outer loop
      vertex 29.309 0 7.95106
      vertex 29.4484 -0 7.88004
      vertex 29.4205 -2 7.89424
    endloop
  endfacet
  facet normal 0.987743 -8.36126e-06 -0.156091
    outer loop
      vertex 28.0489 -2 7.30902
      vertex 28.0196 -2 7.12361
      vertex 28.0245 0 7.15451
    endloop
  endfacet
  facet normal 0 -1 0
    outer loop
      vertex -32 -2 15
      vertex -29 -2 8
      vertex -28.8146 -2 7.97063
    endloop
  endfacet
  facet normal -0 -1 0
    outer loop
      vertex -29.9804 -2 6.87639
      vertex -30 -2 7
      vertex -32 -2 0
    endloop
  endfacet
  facet normal -0.98766 1.30509e-07 0.156611
    outer loop
      vertex 29.9706 -2 6.81459
      vertex 30 -2 7
      vertex 29.9755 0 6.84549
    endloop
  endfacet
  facet normal -0 -1 0
    outer loop
      vertex -29.6763 -2 6.27948
      vertex -29.809 -2 6.41222
      vertex -32 -2 0
    endloop
  endfacet
  facet normal 0.890794 9.81675e-06 0.454408
    outer loop
      vertex 28.12 -0 6.5516
      vertex 28.0489 -0 6.69098
      vertex 28.1058 -2 6.57948
    endloop
  endfacet
  facet normal -0 -1 0
    outer loop
      vertex -30 -2 7
      vertex -32 -2 15
      vertex -32 -2 0
    endloop
  endfacet
  facet normal 0.707213 1.39296e-05 0.707
    outer loop
      vertex 28.191 -2 6.41222
      vertex 28.3237 -2 6.27948
      vertex 28.2925 0 6.31065
    endloop
  endfacet
  facet normal 0.156463 2.46921e-06 0.987684
    outer loop
      vertex 28.8146 -2 6.02937
      vertex 29 -2 6
      vertex 28.8455 0 6.02447
    endloop
  endfacet
  facet normal 0 -1 0
    outer loop
      vertex -32 -2 0
      vertex -29.8658 -2 6.52372
      vertex -29.9511 -2 6.69098
    endloop
  endfacet
  facet normal -0 -1 0
    outer loop
      vertex -29.9511 -2 7.30902
      vertex -32 -2 15
      vertex -29.9706 -2 7.18541
    endloop
  endfacet
  facet normal -0.453891 5.26752e-06 0.891057
    outer loop
      vertex 29.4205 -2 6.10576
      vertex 29.5878 -2 6.19098
      vertex 29.4484 0 6.11996
    endloop
  endfacet
  facet normal 0.15607 8.69873e-06 0.987746
    outer loop
      vertex 28.8455 0 6.02447
      vertex 28.7815 -2 6.0346
      vertex 28.8146 -2 6.02937
    endloop
  endfacet
  facet normal 0 -1 0
    outer loop
      vertex -32 -2 15
      vertex -28.691 -2 7.95106
      vertex -28.5795 -2 7.89424
    endloop
  endfacet
  facet normal 0 -1 -0
    outer loop
      vertex -28.191 -2 6.41222
      vertex -28.3237 -2 6.27948
      vertex -24 -2 0
    endloop
  endfacet
  facet normal 0 -1 -0
    outer loop
      vertex -28.1058 -2 6.57948
      vertex -28.191 -2 6.41222
      vertex -24 -2 0
    endloop
  endfacet
  facet normal -0 -1 0
    outer loop
      vertex -29.4763 -2 6.13417
      vertex -29.5878 -2 6.19098
      vertex -32 -2 0
    endloop
  endfacet
  facet normal -0.707213 4.71511e-06 -0.707
    outer loop
      vertex 29.7205 -2 7.67628
      vertex 29.5878 -2 7.80902
      vertex 29.6984 0 7.6984
    endloop
  endfacet
  facet normal -0.453951 6.32156e-06 0.891027
    outer loop
      vertex 29.4484 0 6.11996
      vertex 29.309 -0 6.04894
      vertex 29.4205 -2 6.10576
    endloop
  endfacet
  facet normal 0 -1 0
    outer loop
      vertex -32 -2 15
      vertex -28.4122 -2 7.80902
      vertex -28.2795 -2 7.67628
    endloop
  endfacet
  facet normal -0 -1 0
    outer loop
      vertex -29.9706 -2 7.18541
      vertex -32 -2 15
      vertex -30 -2 7
    endloop
  endfacet
  facet normal -0.891065 -4.53875e-07 -0.453875
    outer loop
      vertex 29.809 -0 7.58779
      vertex 29.88 0 7.4484
      vertex 29.8658 -2 7.47628
    endloop
  endfacet
  facet normal 0 1 -0
    outer loop
      vertex 25.6 0 15
      vertex 32 0 15
      vertex 29 -0 8
    endloop
  endfacet
  facet normal -0 1 -0
    outer loop
      vertex 25.6 0 15
      vertex 28.3016 0 7.6984
      vertex 28.191 -0 7.58779
    endloop
  endfacet
  facet normal -0.987759 1.00336e-05 -0.155986
    outer loop
      vertex -28.0489 -0 7.30902
      vertex -28.0245 0 7.15451
      vertex -28.0294 -2 7.18541
    endloop
  endfacet
  facet normal -0 1 -0
    outer loop
      vertex 25.6 0 15
      vertex 28.8455 0 7.97553
      vertex 28.691 -0 7.95106
    endloop
  endfacet
  facet normal -0.987784 0 -0.155827
    outer loop
      vertex -28.0489 -2 7.30902
      vertex -28.0489 -0 7.30902
      vertex -28.0294 -2 7.18541
    endloop
  endfacet
  facet normal 0 1 0
    outer loop
      vertex 25.6 0 15
      vertex 28.691 -0 7.95106
      vertex 28.5516 -0 7.88004
    endloop
  endfacet
  facet normal 0 1 -0
    outer loop
      vertex 28.4122 -0 7.80902
      vertex 25.6 0 15
      vertex 28.5516 -0 7.88004
    endloop
  endfacet
  facet normal 0 1 0
    outer loop
      vertex 25.6 0 15
      vertex 28.4122 -0 7.80902
      vertex 28.3016 0 7.6984
    endloop
  endfacet
  facet normal -0.987661 0 -0.156609
    outer loop
      vertex -28 -2 7
      vertex -28.0245 0 7.15451
      vertex -28 -0 7
    endloop
  endfacet
  facet normal -0.890841 -8.18087e-06 -0.454315
    outer loop
      vertex -28.0489 -2 7.30902
      vertex -28.1342 -2 7.47628
      vertex -28.12 -0 7.4484
    endloop
  endfacet
  facet normal -0.890794 -0 -0.454408
    outer loop
      vertex -28.0489 -0 7.30902
      vertex -28.0489 -2 7.30902
      vertex -28.12 -0 7.4484
    endloop
  endfacet
  facet normal 0 1 -0
    outer loop
      vertex 25.6 0 0
      vertex 25.6 0 15
      vertex 28 -0 7
    endloop
  endfacet
  facet normal -0.890794 9.81675e-06 0.454408
    outer loop
      vertex -28.0489 -0 6.69098
      vertex -28.12 -0 6.5516
      vertex -28.1058 -2 6.57948
    endloop
  endfacet
  facet normal 0 1 0
    outer loop
      vertex 25.6 0 15
      vertex 28.191 -0 7.58779
      vertex 28.12 -0 7.4484
    endloop
  endfacet
  facet normal -0.890722 0 0.454548
    outer loop
      vertex -28.0489 -2 6.69098
      vertex -28.0489 -0 6.69098
      vertex -28.1058 -2 6.57948
    endloop
  endfacet
  facet normal -0 1 0
    outer loop
      vertex 25.6 0 0
      vertex 28.191 -0 6.41222
      vertex 28.2925 0 6.31065
    endloop
  endfacet
  facet normal -0.987784 0 0.155827
    outer loop
      vertex -28.0489 -0 6.69098
      vertex -28.0489 -2 6.69098
      vertex -28.0294 -2 6.81459
    endloop
  endfacet
  facet normal 0 1 0
    outer loop
      vertex 25.6 0 15
      vertex 28.0489 -0 7.30902
      vertex 28.0245 0 7.15451
    endloop
  endfacet
  facet normal -0.98766 1.30509e-07 0.156611
    outer loop
      vertex -28.0294 -2 6.81459
      vertex -28 -2 7
      vertex -28.0245 0 6.84549
    endloop
  endfacet
  facet normal 0 1 0
    outer loop
      vertex 25.6 0 0
      vertex 28.0489 -0 6.69098
      vertex 28.12 -0 6.5516
    endloop
  endfacet
  facet normal -0.987661 0 0.156609
    outer loop
      vertex -28.0245 0 6.84549
      vertex -28 -2 7
      vertex -28 -0 7
    endloop
  endfacet
  facet normal 0 1 0
    outer loop
      vertex 25.6 0 15
      vertex 28.12 -0 7.4484
      vertex 28.0489 -0 7.30902
    endloop
  endfacet
  facet normal 0.156385 0 -0.987696
    outer loop
      vertex -29.309 -0 7.95106
      vertex -29.1854 -2 7.97063
      vertex -29.309 -2 7.95106
    endloop
  endfacet
  facet normal -0 1 0
    outer loop
      vertex 25.6 0 0
      vertex 28 -0 7
      vertex 28.0245 0 6.84549
    endloop
  endfacet
  facet normal -0.707139 6.36431e-06 -0.707075
    outer loop
      vertex -28.3016 0 7.6984
      vertex -28.191 -0 7.58779
      vertex -28.2795 -2 7.67628
    endloop
  endfacet
  facet normal 0 1 0
    outer loop
      vertex 25.6 0 0
      vertex 28.12 -0 6.5516
      vertex 28.191 -0 6.41222
    endloop
  endfacet
  facet normal -0.707067 0 -0.707147
    outer loop
      vertex -28.2795 -2 7.67628
      vertex -28.191 -0 7.58779
      vertex -28.191 -2 7.58779
    endloop
  endfacet
  facet normal -0 1 -0
    outer loop
      vertex 25.6 0 15
      vertex 28.0245 0 7.15451
      vertex 28 -0 7
    endloop
  endfacet
  facet normal 0.454041 0 -0.890981
    outer loop
      vertex -29.309 -0 7.95106
      vertex -29.309 -2 7.95106
      vertex -29.4205 -2 7.89424
    endloop
  endfacet
  facet normal 0 1 0
    outer loop
      vertex 25.6 0 15
      vertex 29 -0 8
      vertex 28.8455 0 7.97553
    endloop
  endfacet
  facet normal -0.156432 2.96307e-06 0.987689
    outer loop
      vertex -28.691 -0 6.04894
      vertex -28.8455 0 6.02447
      vertex -28.8146 -2 6.02937
    endloop
  endfacet
  facet normal 0 1 -0
    outer loop
      vertex 25.6 0 0
      vertex 28.0245 0 6.84549
      vertex 28.0489 -0 6.69098
    endloop
  endfacet
  facet normal 0.45374 0 0.891134
    outer loop
      vertex -29.3995 0 6.09502
      vertex -29.309 -2 6.04894
      vertex -29.309 -0 6.04894
    endloop
  endfacet
  facet normal -0 -1 0
    outer loop
      vertex 32 -2 15
      vertex 24 -2 15
      vertex 28.691 -2 7.95106
    endloop
  endfacet
  facet normal 0.453951 0 -0.891027
    outer loop
      vertex -29.5878 -2 7.80902
      vertex -29.5878 -0 7.80902
      vertex -29.4484 -0 7.88004
    endloop
  endfacet
  facet normal 0 -1 0
    outer loop
      vertex 32 -2 15
      vertex 29.7205 -2 7.67628
      vertex 29.809 -2 7.58779
    endloop
  endfacet
  facet normal -0.707171 0 0.707043
    outer loop
      vertex -28.191 -2 6.41222
      vertex -28.191 -0 6.41222
      vertex -28.3016 0 6.3016
    endloop
  endfacet
  facet normal 0.987759 1.00336e-05 -0.155986
    outer loop
      vertex -29.9755 0 7.15451
      vertex -29.9511 -0 7.30902
      vertex -29.9706 -2 7.18541
    endloop
  endfacet
  facet normal 0.987784 0 -0.155827
    outer loop
      vertex -29.9706 -2 7.18541
      vertex -29.9511 -0 7.30902
      vertex -29.9511 -2 7.30902
    endloop
  endfacet
  facet normal 0.707213 4.71511e-06 -0.707
    outer loop
      vertex -29.5878 -2 7.80902
      vertex -29.7205 -2 7.67628
      vertex -29.6984 0 7.6984
    endloop
  endfacet
  facet normal 0.707171 0 -0.707043
    outer loop
      vertex -29.5878 -0 7.80902
      vertex -29.5878 -2 7.80902
      vertex -29.6984 0 7.6984
    endloop
  endfacet
  facet normal 0 -1 0
    outer loop
      vertex 29.309 -2 7.95106
      vertex 29.4205 -2 7.89424
      vertex 32 -2 15
    endloop
  endfacet
  facet normal 0 -1 0
    outer loop
      vertex 29.1854 -2 7.97063
      vertex 29.309 -2 7.95106
      vertex 32 -2 15
    endloop
  endfacet
  facet normal 0.707171 -0 0.707043
    outer loop
      vertex -29.809 -2 6.41222
      vertex -29.6984 0 6.3016
      vertex -29.809 -0 6.41222
    endloop
  endfacet
  facet normal 0.453951 -1.86643e-06 0.891027
    outer loop
      vertex -29.4484 0 6.11996
      vertex -29.5878 0 6.19098
      vertex -29.4763 -2 6.13417
    endloop
  endfacet
  facet normal 0.453977 0 0.891013
    outer loop
      vertex -29.4763 -2 6.13417
      vertex -29.5878 0 6.19098
      vertex -29.5878 -2 6.19098
    endloop
  endfacet
  facet normal 0 -1 0
    outer loop
      vertex 28.691 -2 7.95106
      vertex 28.8146 -2 7.97063
      vertex 32 -2 15
    endloop
  endfacet
  facet normal 0.156432 -0 0.987689
    outer loop
      vertex -29 -2 6
      vertex -29 -0 6
      vertex -29.1545 0 6.02447
    endloop
  endfacet
  facet normal 0 -1 0
    outer loop
      vertex 28.4122 -2 7.80902
      vertex 28.5795 -2 7.89424
      vertex 24 -2 15
    endloop
  endfacet
  facet normal -0.891057 7.56487e-07 0.453892
    outer loop
      vertex -28.191 -2 6.41222
      vertex -28.1058 -2 6.57948
      vertex -28.12 -0 6.5516
    endloop
  endfacet
  facet normal -0.891052 0 0.453901
    outer loop
      vertex -28.191 -0 6.41222
      vertex -28.191 -2 6.41222
      vertex -28.12 -0 6.5516
    endloop
  endfacet
  facet normal 0 -1 0
    outer loop
      vertex 24 -2 15
      vertex 28.5795 -2 7.89424
      vertex 28.691 -2 7.95106
    endloop
  endfacet
  facet normal 0 -1 0
    outer loop
      vertex 28.2795 -2 7.67628
      vertex 28.4122 -2 7.80902
      vertex 24 -2 15
    endloop
  endfacet
  facet normal 0.891046 0 0.453914
    outer loop
      vertex -29.809 -0 6.41222
      vertex -29.8658 -2 6.52372
      vertex -29.809 -2 6.41222
    endloop
  endfacet
  facet normal 0 -1 0
    outer loop
      vertex 28.191 -2 7.58779
      vertex 28.2795 -2 7.67628
      vertex 24 -2 15
    endloop
  endfacet
  facet normal 0 -1 0
    outer loop
      vertex 28.0748 -2 7.35976
      vertex 28.1058 -2 7.42052
      vertex 24 -2 15
    endloop
  endfacet
  facet normal -0.156385 -0 -0.987696
    outer loop
      vertex -28.691 -0 7.95106
      vertex -28.691 -2 7.95106
      vertex -28.8146 -2 7.97063
    endloop
  endfacet
  facet normal 0.890794 -0 0.454408
    outer loop
      vertex -29.9511 -2 6.69098
      vertex -29.88 0 6.5516
      vertex -29.9511 -0 6.69098
    endloop
  endfacet
  facet normal 0 -1 -0
    outer loop
      vertex 29.8942 -2 6.57948
      vertex 29.809 -2 6.41222
      vertex 32 -2 0
    endloop
  endfacet
  facet normal 0 -1 0
    outer loop
      vertex 32 -2 15
      vertex 29.809 -2 7.58779
      vertex 29.8658 -2 7.47628
    endloop
  endfacet
  facet normal -0.156432 0 -0.987689
    outer loop
      vertex -29 -2 8
      vertex -29 -0 8
      vertex -28.8455 0 7.97553
    endloop
  endfacet
  facet normal 0 -1 -0
    outer loop
      vertex 29.809 -2 6.41222
      vertex 29.6763 -2 6.27948
      vertex 32 -2 0
    endloop
  endfacet
  facet normal 0.987661 0 0.156607
    outer loop
      vertex -30 -0 7
      vertex -30 -2 7
      vertex -29.9804 -2 6.87639
    endloop
  endfacet
  facet normal 0.707107 0 0.707107
    outer loop
      vertex -29.5878 0 6.19098
      vertex -29.6763 -2 6.27948
      vertex -29.5878 -2 6.19098
    endloop
  endfacet
  facet normal -0 -1 -0
    outer loop
      vertex 29 -2 6
      vertex 28.8146 -2 6.02937
      vertex 32 -2 0
    endloop
  endfacet
  facet normal 0 -1 -0
    outer loop
      vertex 29.1854 -2 6.02937
      vertex 29 -2 6
      vertex 32 -2 0
    endloop
  endfacet
  facet normal -0 -1 -0
    outer loop
      vertex 28.8146 -2 6.02937
      vertex 28.7815 -2 6.0346
      vertex 32 -2 0
    endloop
  endfacet
  facet normal 0.987743 -8.36126e-06 0.156091
    outer loop
      vertex -29.9804 -2 6.87639
      vertex -29.9511 -2 6.69098
      vertex -29.9755 0 6.84549
    endloop
  endfacet
  facet normal 0.987759 0 0.155986
    outer loop
      vertex -29.9755 0 6.84549
      vertex -29.9511 -2 6.69098
      vertex -29.9511 -0 6.69098
    endloop
  endfacet
  facet normal 0 -1 0
    outer loop
      vertex 32 -2 15
      vertex 29.9706 -2 7.18541
      vertex 30 -2 7
    endloop
  endfacet
  facet normal 0.891068 3.78226e-07 -0.453871
    outer loop
      vertex -29.809 -2 7.58779
      vertex -29.8942 -2 7.42052
      vertex -29.88 0 7.4484
    endloop
  endfacet
  facet normal 0.891065 0 -0.453875
    outer loop
      vertex -29.809 -0 7.58779
      vertex -29.809 -2 7.58779
      vertex -29.88 0 7.4484
    endloop
  endfacet
  facet normal 0.707139 6.36431e-06 -0.707075
    outer loop
      vertex -29.809 -0 7.58779
      vertex -29.6984 0 7.6984
      vertex -29.7205 -2 7.67628
    endloop
  endfacet
  facet normal 0 -1 0
    outer loop
      vertex 32 -2 0
      vertex 32 -2 15
      vertex 30 -2 7
    endloop
  endfacet
  facet normal 0.707067 0 -0.707147
    outer loop
      vertex -29.809 -2 7.58779
      vertex -29.809 -0 7.58779
      vertex -29.7205 -2 7.67628
    endloop
  endfacet
  facet normal 0 -1 0
    outer loop
      vertex 24 -2 15
      vertex 28.1058 -2 7.42052
      vertex 28.191 -2 7.58779
    endloop
  endfacet
  facet normal 0 -1 -0
    outer loop
      vertex 29.309 -2 6.04894
      vertex 29.1854 -2 6.02937
      vertex 32 -2 0
    endloop
  endfacet
  facet normal 0 -1 -0
    outer loop
      vertex 29.4205 -2 6.10576
      vertex 29.309 -2 6.04894
      vertex 32 -2 0
    endloop
  endfacet
  facet normal 0 -1 -0
    outer loop
      vertex 29.9511 -2 6.69098
      vertex 29.8942 -2 6.57948
      vertex 32 -2 0
    endloop
  endfacet
  facet normal 0 -1 -0
    outer loop
      vertex 29.9706 -2 6.81459
      vertex 29.9511 -2 6.69098
      vertex 32 -2 0
    endloop
  endfacet
  facet normal -0.707171 -5.65762e-06 0.707043
    outer loop
      vertex -28.3016 0 6.3016
      vertex -28.4122 -0 6.19098
      vertex -28.3237 -2 6.27948
    endloop
  endfacet
  facet normal 0 -1 0
    outer loop
      vertex 32 -2 15
      vertex 29.8658 -2 7.47628
      vertex 29.9511 -2 7.30902
    endloop
  endfacet
  facet normal 0 -1 0
    outer loop
      vertex 29 -2 8
      vertex 29.1854 -2 7.97063
      vertex 32 -2 15
    endloop
  endfacet
  facet normal 0 -1 0
    outer loop
      vertex 28.8146 -2 7.97063
      vertex 29 -2 8
      vertex 32 -2 15
    endloop
  endfacet
  facet normal 0 -1 -0
    outer loop
      vertex 29.5878 -2 6.19098
      vertex 29.4205 -2 6.10576
      vertex 32 -2 0
    endloop
  endfacet
  facet normal 0 -1 -0
    outer loop
      vertex 29.6763 -2 6.27948
      vertex 29.5878 -2 6.19098
      vertex 32 -2 0
    endloop
  endfacet
  facet normal 0 -1 0
    outer loop
      vertex 29.5878 -2 7.80902
      vertex 29.7205 -2 7.67628
      vertex 32 -2 15
    endloop
  endfacet
  facet normal 0 -1 0
    outer loop
      vertex 29.4205 -2 7.89424
      vertex 29.5878 -2 7.80902
      vertex 32 -2 15
    endloop
  endfacet
  facet normal -0.707107 0 0.707107
    outer loop
      vertex -28.3237 -2 6.27948
      vertex -28.4122 -0 6.19098
      vertex -28.4122 -2 6.19098
    endloop
  endfacet
  facet normal 0 -1 0
    outer loop
      vertex 32 -2 15
      vertex 29.9511 -2 7.30902
      vertex 29.9706 -2 7.18541
    endloop
  endfacet
  facet normal 0.156432 2.96307e-06 0.987689
    outer loop
      vertex -29.1545 0 6.02447
      vertex -29.309 -0 6.04894
      vertex -29.1854 -2 6.02937
    endloop
  endfacet
  facet normal 0 -1 0
    outer loop
      vertex 32 -2 0
      vertex 30 -2 7
      vertex 29.9706 -2 6.81459
    endloop
  endfacet
  facet normal 0.987661 -1.56609e-07 0.156609
    outer loop
      vertex -29.9755 0 6.84549
      vertex -30 -0 7
      vertex -29.9804 -2 6.87639
    endloop
  endfacet
  facet normal 0.707171 -5.65762e-06 0.707043
    outer loop
      vertex -29.5878 0 6.19098
      vertex -29.6984 0 6.3016
      vertex -29.6763 -2 6.27948
    endloop
  endfacet
  facet normal -0.987759 1.00336e-05 0.155986
    outer loop
      vertex -28.0245 0 6.84549
      vertex -28.0489 -0 6.69098
      vertex -28.0294 -2 6.81459
    endloop
  endfacet
  facet normal 0 1 0
    outer loop
      vertex 32 0 0
      vertex 25.6 0 0
      vertex 29 -0 6
    endloop
  endfacet
  facet normal 0 1 -0
    outer loop
      vertex 29.309 0 7.95106
      vertex 29.1545 0 7.97553
      vertex 32 0 15
    endloop
  endfacet
  facet normal -0.707213 4.71511e-06 -0.707
    outer loop
      vertex -28.2795 -2 7.67628
      vertex -28.4122 -2 7.80902
      vertex -28.3016 0 7.6984
    endloop
  endfacet
  facet normal 0 1 -0
    outer loop
      vertex 29.809 -0 7.58779
      vertex 29.6984 0 7.6984
      vertex 32 0 15
    endloop
  endfacet
  facet normal 0 1 0
    outer loop
      vertex 32 0 0
      vertex 29.88 0 6.5516
      vertex 29.9511 -0 6.69098
    endloop
  endfacet
  facet normal 0 1 -0
    outer loop
      vertex 29.4484 -0 7.88004
      vertex 29.309 0 7.95106
      vertex 32 0 15
    endloop
  endfacet
  facet normal -0.156463 2.46921e-06 -0.987684
    outer loop
      vertex -28.8146 -2 7.97063
      vertex -29 -2 8
      vertex -28.8455 0 7.97553
    endloop
  endfacet
  facet normal 0 1 -0
    outer loop
      vertex 29.1545 0 7.97553
      vertex 29.0125 0 7.99802
      vertex 32 0 15
    endloop
  endfacet
  facet normal -0.707213 -4.71511e-06 0.707
    outer loop
      vertex -28.3237 -2 6.27948
      vertex -28.191 -2 6.41222
      vertex -28.3016 0 6.3016
    endloop
  endfacet
  facet normal -0.156432 2.96307e-06 -0.987689
    outer loop
      vertex -28.8455 0 7.97553
      vertex -28.691 -0 7.95106
      vertex -28.8146 -2 7.97063
    endloop
  endfacet
  facet normal -0 1 -0
    outer loop
      vertex 32 0 0
      vertex 29.809 -0 6.41222
      vertex 29.88 0 6.5516
    endloop
  endfacet
  facet normal -0.453646 0 -0.891182
    outer loop
      vertex -28.6224 0 7.91614
      vertex -28.691 -2 7.95106
      vertex -28.691 -0 7.95106
    endloop
  endfacet
  facet normal -0 1 0
    outer loop
      vertex 32 0 15
      vertex 32 0 0
      vertex 30 -0 7
    endloop
  endfacet
  facet normal 0.890841 -8.18087e-06 0.454315
    outer loop
      vertex -29.9511 -2 6.69098
      vertex -29.8658 -2 6.52372
      vertex -29.88 0 6.5516
    endloop
  endfacet
  facet normal 0 1 0
    outer loop
      vertex 32 0 0
      vertex 29.6984 0 6.3016
      vertex 29.809 -0 6.41222
    endloop
  endfacet
  facet normal 0.156432 2.96307e-06 -0.987689
    outer loop
      vertex -29.309 -0 7.95106
      vertex -29.1545 0 7.97553
      vertex -29.1854 -2 7.97063
    endloop
  endfacet
  facet normal 0 1 0
    outer loop
      vertex 32 0 0
      vertex 29.1545 0 6.02447
      vertex 29.309 -0 6.04894
    endloop
  endfacet
  facet normal -0 1 0
    outer loop
      vertex 29 -0 6
      vertex 29.1545 0 6.02447
      vertex 32 0 0
    endloop
  endfacet
  facet normal 0.707213 -4.71511e-06 0.707
    outer loop
      vertex -29.809 -2 6.41222
      vertex -29.6763 -2 6.27948
      vertex -29.6984 0 6.3016
    endloop
  endfacet
  facet normal 0 1 0
    outer loop
      vertex 28.8455 0 6.02447
      vertex 29 -0 6
      vertex 25.6 0 0
    endloop
  endfacet
  facet normal -0.98766 1.30509e-07 -0.156611
    outer loop
      vertex -28 -2 7
      vertex -28.0294 -2 7.18541
      vertex -28.0245 0 7.15451
    endloop
  endfacet
  facet normal 0.453951 6.32156e-06 -0.891027
    outer loop
      vertex -29.4484 -0 7.88004
      vertex -29.309 -0 7.95106
      vertex -29.4205 -2 7.89424
    endloop
  endfacet
  facet normal 0 1 0
    outer loop
      vertex 32 0 0
      vertex 29.9755 0 6.84549
      vertex 30 -0 7
    endloop
  endfacet
  facet normal 0.453891 5.26752e-06 -0.891057
    outer loop
      vertex -29.4205 -2 7.89424
      vertex -29.5878 -2 7.80902
      vertex -29.4484 -0 7.88004
    endloop
  endfacet
  facet normal 0 1 0
    outer loop
      vertex 32 0 0
      vertex 29.4484 0 6.11996
      vertex 29.5878 -0 6.19098
    endloop
  endfacet
  facet normal -0.453951 6.32156e-06 0.891027
    outer loop
      vertex -28.5516 -0 6.11996
      vertex -28.691 -0 6.04894
      vertex -28.5795 -2 6.10576
    endloop
  endfacet
  facet normal -0 1 0
    outer loop
      vertex 32 0 15
      vertex 29.9755 0 7.15451
      vertex 29.9511 -0 7.30902
    endloop
  endfacet
  facet normal 0.891052 -9.07802e-07 0.453901
    outer loop
      vertex -29.809 -0 6.41222
      vertex -29.88 0 6.5516
      vertex -29.8658 -2 6.52372
    endloop
  endfacet
  facet normal -0.891065 -4.53875e-07 -0.453875
    outer loop
      vertex -28.191 -0 7.58779
      vertex -28.12 -0 7.4484
      vertex -28.1342 -2 7.47628
    endloop
  endfacet
  facet normal 0 1 0
    outer loop
      vertex 28.691 -0 6.04894
      vertex 28.8455 0 6.02447
      vertex 25.6 0 0
    endloop
  endfacet
  facet normal 0 1 0
    outer loop
      vertex 28.5516 0 6.11996
      vertex 28.691 -0 6.04894
      vertex 25.6 0 0
    endloop
  endfacet
  facet normal 0 1 0
    outer loop
      vertex 28.4122 0 6.19098
      vertex 28.5516 0 6.11996
      vertex 25.6 0 0
    endloop
  endfacet
  facet normal 0 1 0
    outer loop
      vertex 28.2925 0 6.31065
      vertex 28.3016 0 6.3016
      vertex 25.6 0 0
    endloop
  endfacet
  facet normal 0.156463 2.46921e-06 0.987684
    outer loop
      vertex -29.1854 -2 6.02937
      vertex -29 -2 6
      vertex -29.1545 0 6.02447
    endloop
  endfacet
  facet normal -0 1 -0
    outer loop
      vertex 32 0 0
      vertex 29.309 -0 6.04894
      vertex 29.4484 0 6.11996
    endloop
  endfacet
  facet normal 0.70735 -0 0.706863
    outer loop
      vertex 28.191 -2 6.41222
      vertex 28.2925 0 6.31065
      vertex 28.191 -0 6.41222
    endloop
  endfacet
  facet normal -0 1 -0
    outer loop
      vertex 32 0 0
      vertex 29.9511 -0 6.69098
      vertex 29.9755 0 6.84549
    endloop
  endfacet
  facet normal 0.705156 -5.01401e-05 0.709052
    outer loop
      vertex 28.3237 -2 6.27948
      vertex 28.3016 0 6.3016
      vertex 28.2925 0 6.31065
    endloop
  endfacet
  facet normal -0 1 0
    outer loop
      vertex 32 0 15
      vertex 29.88 0 7.4484
      vertex 29.809 -0 7.58779
    endloop
  endfacet
  facet normal -0.890794 9.81675e-06 0.454408
    outer loop
      vertex 29.9511 -0 6.69098
      vertex 29.88 0 6.5516
      vertex 29.8942 -2 6.57948
    endloop
  endfacet
  facet normal -0 1 -0
    outer loop
      vertex 32 0 0
      vertex 29.5878 -0 6.19098
      vertex 29.6984 0 6.3016
    endloop
  endfacet
  facet normal -0.890722 0 0.454548
    outer loop
      vertex 29.9511 -2 6.69098
      vertex 29.9511 -0 6.69098
      vertex 29.8942 -2 6.57948
    endloop
  endfacet
  facet normal 0 1 0
    outer loop
      vertex 25.6 0 0
      vertex 28.3016 0 6.3016
      vertex 28.4122 0 6.19098
    endloop
  endfacet
  facet normal 0 1 -0
    outer loop
      vertex 29.5878 -0 7.80902
      vertex 29.4484 -0 7.88004
      vertex 32 0 15
    endloop
  endfacet
  facet normal -0 1 0
    outer loop
      vertex 29.6984 0 7.6984
      vertex 29.5878 -0 7.80902
      vertex 32 0 15
    endloop
  endfacet
  facet normal -0.707171 0 -0.707043
    outer loop
      vertex 29.5878 -2 7.80902
      vertex 29.5878 -0 7.80902
      vertex 29.6984 0 7.6984
    endloop
  endfacet
  facet normal 0 1 -0
    outer loop
      vertex 32 0 15
      vertex 29.9511 -0 7.30902
      vertex 29.88 0 7.4484
    endloop
  endfacet
  facet normal -0.15643 -1.21722e-07 -0.987689
    outer loop
      vertex 29 -2 8
      vertex 29.0125 0 7.99802
      vertex 29.1545 0 7.97553
    endloop
  endfacet
  facet normal 0 1 -0
    outer loop
      vertex 32 0 15
      vertex 30 -0 7
      vertex 29.9755 0 7.15451
    endloop
  endfacet
  facet normal 0.156432 0 -0.987689
    outer loop
      vertex -29 -0 8
      vertex -29 -2 8
      vertex -29.1545 0 7.97553
    endloop
  endfacet
  facet normal 0.156463 2.46921e-06 -0.987684
    outer loop
      vertex -29 -2 8
      vertex -29.1854 -2 7.97063
      vertex -29.1545 0 7.97553
    endloop
  endfacet
  facet normal -0.453951 -0 -0.891027
    outer loop
      vertex -28.4122 0 7.80902
      vertex -28.4122 -2 7.80902
      vertex -28.5516 0 7.88004
    endloop
  endfacet
  facet normal -0.453891 5.26752e-06 -0.891057
    outer loop
      vertex -28.4122 -2 7.80902
      vertex -28.5795 -2 7.89424
      vertex -28.5516 0 7.88004
    endloop
  endfacet
  facet normal 0.987661 0 -0.156609
    outer loop
      vertex -29.9755 0 7.15451
      vertex -30 -2 7
      vertex -30 -0 7
    endloop
  endfacet
  facet normal 0.98766 1.30509e-07 -0.156611
    outer loop
      vertex -29.9706 -2 7.18541
      vertex -30 -2 7
      vertex -29.9755 0 7.15451
    endloop
  endfacet
  facet normal -0.156432 0 0.987689
    outer loop
      vertex -29 -0 6
      vertex -29 -2 6
      vertex -28.8455 0 6.02447
    endloop
  endfacet
  facet normal -0.156463 2.46921e-06 0.987684
    outer loop
      vertex -29 -2 6
      vertex -28.8146 -2 6.02937
      vertex -28.8455 0 6.02447
    endloop
  endfacet
endsolid OpenSCAD_Model
